<svg xmlns="http://www.w3.org/2000/svg" width="200" height="50.256" viewBox="0 0 200 50.256">
  <g id="logo_ft" transform="translate(-284 -35)">
    <g id="グループ_1539" data-name="グループ 1539" transform="translate(312.554 45.547)" opacity="0.15">
      <path id="パス_787" data-name="パス 787" d="M2019.551,213.274c-1.13-10.026-33.847-14.56-73.077-10.127s-70.115,16.155-68.986,26.181,33.847,14.56,73.076,10.127S2020.68,223.3,2019.551,213.274Zm-72.218,25.417c-35.152,3.972-64.437.193-65.41-8.443s26.735-18.855,61.887-22.828,64.437-.193,65.41,8.443S1982.485,234.718,1947.333,238.691Z" transform="translate(-1877.458 -201.446)" fill="#fff"/>
    </g>
    <g id="グループ_1552" data-name="グループ 1552" transform="translate(284 71.592)">
      <path id="パス_788" data-name="パス 788" d="M1809.755,382.159h1.028v4.5h.636v-4.5h1.028v-.654h-2.693Z" transform="translate(-1809.755 -381.285)" fill="#fff"/>
      <path id="パス_789" data-name="パス 789" d="M1835.676,382.157a1.232,1.232,0,0,0-.727-.226,1.43,1.43,0,0,0-.735.2,1.85,1.85,0,0,0-.461.4V380.6h-.6v5.28h.6v-1.436a5.246,5.246,0,0,1,.06-.984,1.278,1.278,0,0,1,.39-.663.949.949,0,0,1,.658-.264.757.757,0,0,1,.509.165.909.909,0,0,1,.269.506,4.836,4.836,0,0,1,.045.833v1.843h.6V383.9a3.26,3.26,0,0,0-.147-1.141A1.325,1.325,0,0,0,1835.676,382.157Z" transform="translate(-1829.9 -380.507)" fill="#fff"/>
      <path id="パス_790" data-name="パス 790" d="M1864.769,392.221a2.2,2.2,0,0,0-.392-1.31,1.725,1.725,0,0,0-1.46-.75,1.673,1.673,0,0,0-1.42.733,2.234,2.234,0,0,0,.075,2.69,1.662,1.662,0,0,0,1.37.623,1.836,1.836,0,0,0,.706-.13,1.751,1.751,0,0,0,.564-.379,2.276,2.276,0,0,0,.437-.648l.033-.07-.51-.29-.041.073a2.147,2.147,0,0,1-.358.5,1.244,1.244,0,0,1-.393.243,1.289,1.289,0,0,1-.477.092,1.079,1.079,0,0,1-.845-.384,1.463,1.463,0,0,1-.355-.915h3.067Zm-3-.493a1.445,1.445,0,0,1,.346-.62,1.11,1.11,0,0,1,.806-.326,1.2,1.2,0,0,1,.544.13,1.145,1.145,0,0,1,.415.341,1.446,1.446,0,0,1,.216.474Z" transform="translate(-1853.956 -388.738)" fill="#fff"/>
      <rect id="長方形_1311" data-name="長方形 1311" width="0.627" height="5.155" transform="translate(13.506 0.22)" fill="#fff"/>
      <path id="パス_791" data-name="パス 791" d="M1920.893,390.387a1.232,1.232,0,0,0-.727-.225,1.437,1.437,0,0,0-.738.2,1.818,1.818,0,0,0-.458.4v-.5h-.605v3.856h.605v-1.436a5.294,5.294,0,0,1,.06-.984,1.28,1.28,0,0,1,.39-.663.947.947,0,0,1,.658-.263.764.764,0,0,1,.511.165.879.879,0,0,1,.265.506,4.645,4.645,0,0,1,.047.833v1.843h.6v-1.982a3.261,3.261,0,0,0-.147-1.14A1.325,1.325,0,0,0,1920.893,390.387Z" transform="translate(-1903.285 -388.738)" fill="#fff"/>
      <path id="パス_792" data-name="パス 792" d="M1947.141,380.993h-.6v1.37h-.6v.576h.6v3.279h.6v-3.279h.7v-.576h-.7Z" transform="translate(-1927.03 -380.844)" fill="#fff"/>
      <path id="パス_793" data-name="パス 793" d="M1966.583,392.221a2.2,2.2,0,0,0-.393-1.31,1.724,1.724,0,0,0-1.46-.75,1.673,1.673,0,0,0-1.42.733,2.234,2.234,0,0,0,.075,2.69,1.661,1.661,0,0,0,1.37.623,1.835,1.835,0,0,0,.706-.13,1.75,1.75,0,0,0,.563-.379,2.274,2.274,0,0,0,.437-.648l.033-.07-.509-.29-.041.073a2.136,2.136,0,0,1-.358.5,1.239,1.239,0,0,1-.393.243,1.289,1.289,0,0,1-.477.092,1.078,1.078,0,0,1-.845-.384,1.463,1.463,0,0,1-.356-.915h3.067Zm-3-.493a1.446,1.446,0,0,1,.346-.62,1.11,1.11,0,0,1,.806-.326,1.2,1.2,0,0,1,.544.13,1.145,1.145,0,0,1,.415.341,1.438,1.438,0,0,1,.216.474Z" transform="translate(-1941.634 -388.738)" fill="#fff"/>
      <path id="パス_794" data-name="パス 794" d="M1994.782,390.328a1.474,1.474,0,0,0-.292.284v-.361h-.614v3.856h.614v-1.331a6.221,6.221,0,0,1,.079-1.254,1.19,1.19,0,0,1,.287-.566.529.529,0,0,1,.366-.172.5.5,0,0,1,.2.057l.069.032.307-.537-.069-.042A.794.794,0,0,0,1994.782,390.328Z" transform="translate(-1968.313 -388.732)" fill="#fff"/>
      <path id="パス_795" data-name="パス 795" d="M2012.436,390.387a1.231,1.231,0,0,0-.727-.225,1.437,1.437,0,0,0-.738.2,1.823,1.823,0,0,0-.458.4v-.5h-.605v3.856h.605v-1.436a5.28,5.28,0,0,1,.06-.984,1.28,1.28,0,0,1,.39-.663.948.948,0,0,1,.658-.263.764.764,0,0,1,.511.165.879.879,0,0,1,.265.506,4.657,4.657,0,0,1,.047.833v1.843h.6v-1.982a3.267,3.267,0,0,0-.147-1.14A1.325,1.325,0,0,0,2012.436,390.387Z" transform="translate(-1982.118 -388.738)" fill="#fff"/>
      <path id="パス_796" data-name="パス 796" d="M2041.048,390.769a1.748,1.748,0,0,0-.473-.4,1.6,1.6,0,0,0-.8-.2,1.715,1.715,0,0,0-1.306.593,2.041,2.041,0,0,0-.539,1.419,2.078,2.078,0,0,0,.534,1.438,1.694,1.694,0,0,0,1.3.6,1.66,1.66,0,0,0,.79-.193,1.9,1.9,0,0,0,.5-.391v.489h.6v-3.856h-.6Zm-.34.42a1.459,1.459,0,0,1,.368,1.015,1.549,1.549,0,0,1-.164.717,1.254,1.254,0,0,1-.466.5,1.177,1.177,0,0,1-1.264,0,1.332,1.332,0,0,1-.467-.522,1.519,1.519,0,0,1,0-1.414,1.311,1.311,0,0,1,.464-.515,1.171,1.171,0,0,1,.632-.182A1.155,1.155,0,0,1,2040.708,391.189Z" transform="translate(-2006.249 -388.738)" fill="#fff"/>
      <path id="パス_797" data-name="パス 797" d="M2071.2,380.993h-.6v1.37h-.6v.576h.6v3.279h.6v-3.279h.7v-.576h-.7Z" transform="translate(-2033.862 -380.844)" fill="#fff"/>
      <rect id="長方形_1312" data-name="長方形 1312" width="0.605" height="3.856" transform="translate(38.587 1.519)" fill="#fff"/>
      <path id="パス_798" data-name="パス 798" d="M2086.788,380.066a.5.5,0,0,0,0,.665.421.421,0,0,0,.631,0,.5.5,0,0,0,0-.665A.422.422,0,0,0,2086.788,380.066Z" transform="translate(-2048.214 -379.924)" fill="#fff"/>
      <path id="パス_799" data-name="パス 799" d="M2099,390.162a1.72,1.72,0,0,0-1.373.65,2.181,2.181,0,0,0,.028,2.788,1.792,1.792,0,0,0,2.689,0,2.184,2.184,0,0,0,.027-2.792A1.72,1.72,0,0,0,2099,390.162Zm1.25,2.043a1.524,1.524,0,0,1-.17.708,1.251,1.251,0,0,1-.454.5,1.21,1.21,0,0,1-1.254,0,1.25,1.25,0,0,1-.454-.5,1.517,1.517,0,0,1-.17-.708,1.455,1.455,0,0,1,.372-1,1.146,1.146,0,0,1,1.757,0A1.451,1.451,0,0,1,2100.25,392.205Z" transform="translate(-2057.237 -388.738)" fill="#fff"/>
      <path id="パス_800" data-name="パス 800" d="M2132.064,390.387a1.233,1.233,0,0,0-.728-.225,1.435,1.435,0,0,0-.738.2,1.822,1.822,0,0,0-.458.4v-.5h-.6v3.856h.6v-1.436a5.294,5.294,0,0,1,.06-.984,1.278,1.278,0,0,1,.391-.663.946.946,0,0,1,.658-.263.763.763,0,0,1,.51.165.882.882,0,0,1,.266.506,4.673,4.673,0,0,1,.047.833v1.843h.6v-1.982a3.257,3.257,0,0,0-.147-1.14A1.326,1.326,0,0,0,2132.064,390.387Z" transform="translate(-2085.137 -388.738)" fill="#fff"/>
      <path id="パス_801" data-name="パス 801" d="M2160.676,390.769a1.746,1.746,0,0,0-.473-.4,1.6,1.6,0,0,0-.8-.2,1.713,1.713,0,0,0-1.306.593,2.038,2.038,0,0,0-.539,1.419,2.078,2.078,0,0,0,.534,1.438,1.693,1.693,0,0,0,1.3.6,1.661,1.661,0,0,0,.79-.193,1.894,1.894,0,0,0,.5-.391v.489h.6v-3.856h-.6Zm-.34.42a1.46,1.46,0,0,1,.369,1.015,1.543,1.543,0,0,1-.164.717,1.252,1.252,0,0,1-.466.5,1.177,1.177,0,0,1-1.264,0,1.333,1.333,0,0,1-.467-.522,1.519,1.519,0,0,1,0-1.414,1.309,1.309,0,0,1,.464-.515,1.17,1.17,0,0,1,.632-.182A1.154,1.154,0,0,1,2160.336,391.189Z" transform="translate(-2109.268 -388.738)" fill="#fff"/>
      <rect id="長方形_1313" data-name="長方形 1313" width="0.605" height="5.28" transform="translate(52.892 0.095)" fill="#fff"/>
      <path id="パス_802" data-name="パス 802" d="M2212.315,382.159h1.029v4.5h.636v-4.5h1.028v-.654h-2.692Z" transform="translate(-2156.423 -381.285)" fill="#fff"/>
      <path id="パス_803" data-name="パス 803" d="M2238.2,392.221a2.2,2.2,0,0,0-.393-1.31,1.724,1.724,0,0,0-1.46-.75,1.673,1.673,0,0,0-1.419.733,2.234,2.234,0,0,0,.074,2.69,1.662,1.662,0,0,0,1.371.623,1.837,1.837,0,0,0,.707-.13,1.752,1.752,0,0,0,.563-.379,2.276,2.276,0,0,0,.437-.648l.033-.07-.51-.29-.041.073a2.132,2.132,0,0,1-.358.5,1.237,1.237,0,0,1-.393.243,1.287,1.287,0,0,1-.476.092,1.078,1.078,0,0,1-.845-.384,1.466,1.466,0,0,1-.356-.915h3.067Zm-3-.493a1.444,1.444,0,0,1,.346-.62,1.109,1.109,0,0,1,.805-.326,1.2,1.2,0,0,1,.543.13,1.139,1.139,0,0,1,.414.341,1.438,1.438,0,0,1,.217.474Z" transform="translate(-2175.541 -388.738)" fill="#fff"/>
      <path id="パス_804" data-name="パス 804" d="M2268.679,392.99a1.371,1.371,0,0,1-1.161.614,1.344,1.344,0,0,1-.7-.185,1.307,1.307,0,0,1-.489-.52,1.511,1.511,0,0,1-.18-.72,1.4,1.4,0,0,1,.389-1,1.277,1.277,0,0,1,.975-.408,1.332,1.332,0,0,1,1.162.612l.047.067.479-.322-.037-.067a1.653,1.653,0,0,0-.393-.482,1.869,1.869,0,0,0-.559-.306,2.035,2.035,0,0,0-.682-.117,1.971,1.971,0,0,0-1.017.269,1.913,1.913,0,0,0-.716.749,2.142,2.142,0,0,0-.259,1.035,1.972,1.972,0,0,0,.556,1.411,1.868,1.868,0,0,0,1.4.582,2.055,2.055,0,0,0,.978-.229,1.778,1.778,0,0,0,.688-.648l.041-.066-.479-.34Z" transform="translate(-2202.259 -388.738)" fill="#fff"/>
      <path id="パス_805" data-name="パス 805" d="M2300.063,382.157a1.233,1.233,0,0,0-.727-.226,1.431,1.431,0,0,0-.735.2,1.853,1.853,0,0,0-.461.4V380.6h-.6v5.28h.6v-1.436a5.229,5.229,0,0,1,.061-.984,1.279,1.279,0,0,1,.39-.663.948.948,0,0,1,.658-.264.755.755,0,0,1,.508.165.906.906,0,0,1,.27.506,4.849,4.849,0,0,1,.045.833v1.843h.6V383.9a3.261,3.261,0,0,0-.147-1.141A1.326,1.326,0,0,0,2300.063,382.157Z" transform="translate(-2229.811 -380.507)" fill="#fff"/>
      <path id="パス_806" data-name="パス 806" d="M2329.19,390.387a1.232,1.232,0,0,0-.727-.225,1.437,1.437,0,0,0-.738.2,1.834,1.834,0,0,0-.458.4v-.5h-.6v3.856h.6v-1.436a5.259,5.259,0,0,1,.061-.984,1.276,1.276,0,0,1,.39-.663.947.947,0,0,1,.658-.263.764.764,0,0,1,.511.165.88.88,0,0,1,.265.506,4.641,4.641,0,0,1,.047.833v1.843h.6v-1.982a3.263,3.263,0,0,0-.147-1.14A1.325,1.325,0,0,0,2329.19,390.387Z" transform="translate(-2254.894 -388.738)" fill="#fff"/>
      <path id="パス_807" data-name="パス 807" d="M2354.43,380.066a.5.5,0,0,0,0,.665.421.421,0,0,0,.631,0,.5.5,0,0,0,0-.665A.423.423,0,0,0,2354.43,380.066Z" transform="translate(-2278.697 -379.924)" fill="#fff"/>
      <rect id="長方形_1314" data-name="長方形 1314" width="0.605" height="3.856" transform="translate(75.746 1.519)" fill="#fff"/>
      <path id="パス_808" data-name="パス 808" d="M2367.961,392.99a1.37,1.37,0,0,1-1.16.614,1.343,1.343,0,0,1-.7-.185,1.306,1.306,0,0,1-.489-.52,1.511,1.511,0,0,1-.179-.72,1.4,1.4,0,0,1,.389-1,1.277,1.277,0,0,1,.975-.408,1.332,1.332,0,0,1,1.163.612l.047.067.479-.322-.037-.067a1.654,1.654,0,0,0-.393-.482,1.869,1.869,0,0,0-.559-.306,2.03,2.03,0,0,0-.681-.117,1.968,1.968,0,0,0-1.017.269,1.921,1.921,0,0,0-.716.749,2.148,2.148,0,0,0-.26,1.035,1.97,1.97,0,0,0,.557,1.411,1.867,1.867,0,0,0,1.4.582,2.052,2.052,0,0,0,.978-.229,1.78,1.78,0,0,0,.689-.648l.041-.066-.478-.34Z" transform="translate(-2287.756 -388.738)" fill="#fff"/>
      <path id="パス_809" data-name="パス 809" d="M2398.833,390.769a1.75,1.75,0,0,0-.473-.4,1.6,1.6,0,0,0-.8-.2,1.714,1.714,0,0,0-1.306.593,2.04,2.04,0,0,0-.539,1.419,2.076,2.076,0,0,0,.534,1.438,1.693,1.693,0,0,0,1.3.6,1.66,1.66,0,0,0,.79-.193,1.9,1.9,0,0,0,.5-.391v.489h.6v-3.856h-.6Zm-.34.42a1.458,1.458,0,0,1,.369,1.015,1.552,1.552,0,0,1-.164.717,1.258,1.258,0,0,1-.466.5,1.178,1.178,0,0,1-1.264,0,1.337,1.337,0,0,1-.467-.522,1.52,1.52,0,0,1,0-1.414,1.307,1.307,0,0,1,.464-.515,1.171,1.171,0,0,1,.632-.182A1.155,1.155,0,0,1,2398.492,391.189Z" transform="translate(-2314.358 -388.738)" fill="#fff"/>
      <rect id="長方形_1315" data-name="長方形 1315" width="0.605" height="5.28" transform="translate(85.958 0.095)" fill="#fff"/>
      <path id="パス_810" data-name="パス 810" d="M2453.792,386.66h2.79v-.654h-2.163v-1.794h2.163v-.654h-2.163v-1.4h2.182v-.654h-2.809Z" transform="translate(-2364.373 -381.285)" fill="#fff"/>
      <path id="パス_811" data-name="パス 811" d="M2478.061,390.845h-.727l-.854,1.283-.863-1.283h-.726l1.226,1.83-1.348,2.026h.724l.988-1.483.993,1.483h.735l-1.365-2.03Z" transform="translate(-2382.437 -389.326)" fill="#fff"/>
      <path id="パス_812" data-name="パス 812" d="M2504.617,382.157a1.23,1.23,0,0,0-.727-.226,1.431,1.431,0,0,0-.735.2,1.851,1.851,0,0,0-.461.4V380.6h-.6v5.28h.6v-1.436a5.229,5.229,0,0,1,.061-.984,1.277,1.277,0,0,1,.39-.663.947.947,0,0,1,.658-.264.756.756,0,0,1,.508.165.9.9,0,0,1,.269.506,4.781,4.781,0,0,1,.046.833v1.843h.6V383.9a3.255,3.255,0,0,0-.147-1.141A1.319,1.319,0,0,0,2504.617,382.157Z" transform="translate(-2405.965 -380.507)" fill="#fff"/>
      <path id="パス_813" data-name="パス 813" d="M2529.855,380.066a.5.5,0,0,0,0,.665.422.422,0,0,0,.631,0,.5.5,0,0,0,0-.665A.423.423,0,0,0,2529.855,380.066Z" transform="translate(-2429.766 -379.924)" fill="#fff"/>
      <rect id="長方形_1316" data-name="長方形 1316" width="0.605" height="3.856" transform="translate(100.103 1.519)" fill="#fff"/>
      <path id="パス_814" data-name="パス 814" d="M2543.49,381.931a1.66,1.66,0,0,0-.788.191,1.864,1.864,0,0,0-.5.391V380.6h-.6v5.28h.6v-.513a1.779,1.779,0,0,0,.474.4,1.584,1.584,0,0,0,.8.2,1.71,1.71,0,0,0,1.3-.593,2.044,2.044,0,0,0,.539-1.423,2.075,2.075,0,0,0-.533-1.434A1.692,1.692,0,0,0,2543.49,381.931Zm1.219,2.016a1.525,1.525,0,0,1-.173.708,1.31,1.31,0,0,1-.464.516,1.165,1.165,0,0,1-.631.182,1.152,1.152,0,0,1-.9-.4,1.463,1.463,0,0,1-.368-1.016,1.553,1.553,0,0,1,.164-.718,1.26,1.26,0,0,1,.467-.5,1.211,1.211,0,0,1,.64-.186,1.138,1.138,0,0,1,.62.185,1.337,1.337,0,0,1,.467.523A1.531,1.531,0,0,1,2544.709,383.948Z" transform="translate(-2439.992 -380.507)" fill="#fff"/>
      <rect id="長方形_1317" data-name="長方形 1317" width="0.605" height="3.856" transform="translate(106.025 1.519)" fill="#fff"/>
      <path id="パス_815" data-name="パス 815" d="M2572.51,380.066a.5.5,0,0,0,0,.665.42.42,0,0,0,.63,0,.495.495,0,0,0,0-.665A.422.422,0,0,0,2572.51,380.066Z" transform="translate(-2466.499 -379.924)" fill="#fff"/>
      <path id="パス_816" data-name="パス 816" d="M2583.7,380.993h-.6v1.37h-.6v.576h.6v3.279h.6v-3.279h.7v-.576h-.7Z" transform="translate(-2475.208 -380.844)" fill="#fff"/>
      <path id="パス_817" data-name="パス 817" d="M2599.289,380.066a.5.5,0,0,0,0,.665.42.42,0,0,0,.63,0,.5.5,0,0,0,0-.665A.422.422,0,0,0,2599.289,380.066Z" transform="translate(-2489.559 -379.924)" fill="#fff"/>
      <rect id="長方形_1318" data-name="長方形 1318" width="0.605" height="3.856" transform="translate(109.743 1.519)" fill="#fff"/>
      <path id="パス_818" data-name="パス 818" d="M2611.5,390.162a1.719,1.719,0,0,0-1.373.65,2.18,2.18,0,0,0,.027,2.788,1.792,1.792,0,0,0,2.689,0,2.184,2.184,0,0,0,.027-2.792A1.719,1.719,0,0,0,2611.5,390.162Zm1.25,2.043a1.524,1.524,0,0,1-.17.708,1.255,1.255,0,0,1-.455.5,1.209,1.209,0,0,1-1.253,0,1.252,1.252,0,0,1-.455-.5,1.523,1.523,0,0,1-.17-.708,1.454,1.454,0,0,1,.372-1,1.146,1.146,0,0,1,1.757,0A1.449,1.449,0,0,1,2612.753,392.205Z" transform="translate(-2498.583 -388.738)" fill="#fff"/>
      <path id="パス_819" data-name="パス 819" d="M2644.567,390.387a1.233,1.233,0,0,0-.727-.225,1.436,1.436,0,0,0-.738.2,1.817,1.817,0,0,0-.458.4v-.5h-.605v3.856h.605v-1.436a5.288,5.288,0,0,1,.06-.984,1.276,1.276,0,0,1,.39-.663.948.948,0,0,1,.658-.263.764.764,0,0,1,.51.165.88.88,0,0,1,.265.506,4.617,4.617,0,0,1,.047.833v1.843h.6v-1.982a3.258,3.258,0,0,0-.147-1.14A1.327,1.327,0,0,0,2644.567,390.387Z" transform="translate(-2526.484 -388.738)" fill="#fff"/>
      <path id="パス_820" data-name="パス 820" d="M2685.563,390.162a1.721,1.721,0,0,0-1.373.65,2.18,2.18,0,0,0,.028,2.788,1.792,1.792,0,0,0,2.689,0,2.186,2.186,0,0,0,.027-2.792A1.72,1.72,0,0,0,2685.563,390.162Zm1.25,2.043a1.521,1.521,0,0,1-.17.708,1.255,1.255,0,0,1-.455.5,1.21,1.21,0,0,1-1.253,0,1.257,1.257,0,0,1-.455-.5,1.526,1.526,0,0,1-.17-.708,1.453,1.453,0,0,1,.372-1,1.146,1.146,0,0,1,1.757,0A1.45,1.45,0,0,1,2686.813,392.205Z" transform="translate(-2562.36 -388.738)" fill="#fff"/>
      <path id="パス_821" data-name="パス 821" d="M2715.145,380.038a.657.657,0,0,0-.262.312,1.753,1.753,0,0,0-.073.6v.493h-.448v.576h.448V385.3h.6l0-3.279h.712v-.576h-.712v-.415a1.763,1.763,0,0,1,.018-.364.163.163,0,0,1,.073-.083c.106-.069.3-.054.547.062l.118.054v-.655l-.058-.018A1.118,1.118,0,0,0,2715.145,380.038Z" transform="translate(-2588.766 -379.922)" fill="#fff"/>
      <path id="パス_822" data-name="パス 822" d="M2748.7,381.505l-1.8,3.976-1.821-3.976h-.2l-.682,5.155h.613l.426-3.379,1.551,3.379h.224l1.532-3.352.428,3.352h.619l-.686-5.155Z" transform="translate(-2614.458 -381.285)" fill="#fff"/>
      <path id="パス_823" data-name="パス 823" d="M2791.188,392.221a2.2,2.2,0,0,0-.392-1.31,1.726,1.726,0,0,0-1.461-.75,1.673,1.673,0,0,0-1.42.733,2.233,2.233,0,0,0,.074,2.69,1.661,1.661,0,0,0,1.37.623,1.833,1.833,0,0,0,.707-.13,1.752,1.752,0,0,0,.564-.379,2.276,2.276,0,0,0,.437-.648l.032-.07-.509-.29-.041.073a2.132,2.132,0,0,1-.358.5,1.236,1.236,0,0,1-.392.243,1.291,1.291,0,0,1-.477.092,1.079,1.079,0,0,1-.845-.384,1.466,1.466,0,0,1-.355-.915h3.067Zm-3-.493a1.439,1.439,0,0,1,.346-.62,1.109,1.109,0,0,1,.806-.326,1.2,1.2,0,0,1,.543.13,1.14,1.14,0,0,1,.415.341,1.453,1.453,0,0,1,.216.474Z" transform="translate(-2651.75 -388.738)" fill="#fff"/>
      <path id="パス_824" data-name="パス 824" d="M2821.737,382.538a1.754,1.754,0,0,0-.474-.4,1.6,1.6,0,0,0-.8-.2,1.713,1.713,0,0,0-1.306.593,2.041,2.041,0,0,0-.539,1.42,2.079,2.079,0,0,0,.533,1.438,1.7,1.7,0,0,0,1.3.6,1.663,1.663,0,0,0,.79-.193,1.9,1.9,0,0,0,.5-.391v.489h.6V380.6h-.6Zm-.341.42a1.458,1.458,0,0,1,.369,1.015,1.544,1.544,0,0,1-.164.717,1.249,1.249,0,0,1-.466.5,1.178,1.178,0,0,1-1.264,0,1.328,1.328,0,0,1-.467-.522,1.516,1.516,0,0,1,0-1.414,1.308,1.308,0,0,1,.464-.515,1.171,1.171,0,0,1,.632-.182A1.153,1.153,0,0,1,2821.4,382.958Z" transform="translate(-2678.546 -380.507)" fill="#fff"/>
      <path id="パス_825" data-name="パス 825" d="M2850.92,380.066a.5.5,0,0,0,0,.665.421.421,0,0,0,.63,0,.5.5,0,0,0,0-.665A.422.422,0,0,0,2850.92,380.066Z" transform="translate(-2706.253 -379.924)" fill="#fff"/>
      <rect id="長方形_1319" data-name="長方形 1319" width="0.605" height="3.856" transform="translate(144.679 1.519)" fill="#fff"/>
      <path id="パス_826" data-name="パス 826" d="M2864.455,392.99a1.37,1.37,0,0,1-1.161.614,1.342,1.342,0,0,1-.7-.185,1.307,1.307,0,0,1-.489-.52,1.511,1.511,0,0,1-.18-.72,1.4,1.4,0,0,1,.389-1,1.277,1.277,0,0,1,.975-.408,1.332,1.332,0,0,1,1.163.612l.046.067.479-.322-.037-.067a1.66,1.66,0,0,0-.393-.482,1.864,1.864,0,0,0-.56-.306,2.028,2.028,0,0,0-.682-.117,1.971,1.971,0,0,0-1.017.269,1.921,1.921,0,0,0-.716.749,2.147,2.147,0,0,0-.259,1.035,1.97,1.97,0,0,0,.556,1.411,1.867,1.867,0,0,0,1.4.582,2.052,2.052,0,0,0,.978-.229,1.776,1.776,0,0,0,.689-.648l.041-.066-.478-.34Z" transform="translate(-2715.317 -388.738)" fill="#fff"/>
      <path id="パス_827" data-name="パス 827" d="M2895.325,390.769a1.754,1.754,0,0,0-.473-.4,1.6,1.6,0,0,0-.8-.2,1.713,1.713,0,0,0-1.305.593,2.038,2.038,0,0,0-.54,1.419,2.081,2.081,0,0,0,.534,1.438,1.7,1.7,0,0,0,1.3.6,1.659,1.659,0,0,0,.79-.193,1.9,1.9,0,0,0,.5-.391v.489h.6v-3.856h-.6Zm-.34.42a1.459,1.459,0,0,1,.368,1.015,1.552,1.552,0,0,1-.164.717,1.255,1.255,0,0,1-.467.5,1.177,1.177,0,0,1-1.263,0,1.333,1.333,0,0,1-.467-.522,1.517,1.517,0,0,1,0-1.414,1.311,1.311,0,0,1,.465-.515,1.167,1.167,0,0,1,.632-.182A1.155,1.155,0,0,1,2894.985,391.189Z" transform="translate(-2741.917 -388.738)" fill="#fff"/>
      <rect id="長方形_1320" data-name="長方形 1320" width="0.605" height="5.28" transform="translate(154.891 0.095)" fill="#fff"/>
      <rect id="長方形_1321" data-name="長方形 1321" width="0.627" height="5.155" transform="translate(158.283 0.22)" fill="#fff"/>
      <path id="パス_828" data-name="パス 828" d="M2965.8,390.371a1.133,1.133,0,0,0-.672-.209,1.312,1.312,0,0,0-.754.24,1.7,1.7,0,0,0-.484.528,1.413,1.413,0,0,0-.2-.352,1.111,1.111,0,0,0-.393-.3,1.277,1.277,0,0,0-1.252.118,1.592,1.592,0,0,0-.342.327v-.463h-.6v3.856h.6v-1.646a3.037,3.037,0,0,1,.122-1,1.085,1.085,0,0,1,.364-.5.779.779,0,0,1,.924-.054.67.67,0,0,1,.239.342,3.428,3.428,0,0,1,.073.882v1.972h.6v-1.528a3.631,3.631,0,0,1,.117-1.1,1.085,1.085,0,0,1,.358-.5.856.856,0,0,1,.532-.186.667.667,0,0,1,.4.12.639.639,0,0,1,.237.318,2.81,2.81,0,0,1,.073.788v2.1h.615v-2.1a3.141,3.141,0,0,0-.137-1.067A1.225,1.225,0,0,0,2965.8,390.371Z" transform="translate(-2801.246 -388.738)" fill="#fff"/>
      <path id="パス_829" data-name="パス 829" d="M3007.436,390.769a1.744,1.744,0,0,0-.474-.4,1.594,1.594,0,0,0-.8-.2,1.714,1.714,0,0,0-1.306.593,2.04,2.04,0,0,0-.54,1.419,2.079,2.079,0,0,0,.534,1.438,1.694,1.694,0,0,0,1.3.6,1.659,1.659,0,0,0,.79-.193,1.9,1.9,0,0,0,.5-.391v.489h.6v-3.856h-.6Zm-.341.42a1.46,1.46,0,0,1,.369,1.015,1.549,1.549,0,0,1-.164.717,1.249,1.249,0,0,1-.466.5,1.177,1.177,0,0,1-1.263,0,1.333,1.333,0,0,1-.467-.522,1.517,1.517,0,0,1,0-1.414,1.309,1.309,0,0,1,.464-.515,1.169,1.169,0,0,1,.632-.182A1.153,1.153,0,0,1,3007.095,391.189Z" transform="translate(-2838.462 -388.738)" fill="#fff"/>
      <path id="パス_830" data-name="パス 830" d="M3039.794,390.761a1.9,1.9,0,0,0-.518-.412,1.694,1.694,0,0,0-1.673.09,1.9,1.9,0,0,0-.681.732,2.146,2.146,0,0,0-.01,1.972,1.822,1.822,0,0,0,.67.712,1.757,1.757,0,0,0,2.211-.29,2.038,2.038,0,0,1-.124.808.989.989,0,0,1-.408.419,1.407,1.407,0,0,1-.717.169,1.444,1.444,0,0,1-.722-.165,1.238,1.238,0,0,1-.469-.51l-.023-.044h-.653l.049.116a2.265,2.265,0,0,0,.421.687,1.647,1.647,0,0,0,.6.38,2.282,2.282,0,0,0,.818.14,1.943,1.943,0,0,0,1.07-.288,1.546,1.546,0,0,0,.632-.826,3.786,3.786,0,0,0,.13-1.163v-3.023h-.6Zm-.138.694a1.526,1.526,0,0,1,.16.706,1.38,1.38,0,0,1-.346.978,1.181,1.181,0,0,1-.913.367,1.193,1.193,0,0,1-.915-.371,1.326,1.326,0,0,1-.354-.947,1.494,1.494,0,0,1,.173-.706,1.29,1.29,0,0,1,.471-.507,1.232,1.232,0,0,1,.65-.183,1.178,1.178,0,0,1,.624.178A1.214,1.214,0,0,1,3039.656,391.455Z" transform="translate(-2866.331 -388.745)" fill="#fff"/>
      <path id="パス_831" data-name="パス 831" d="M3068.619,380.066a.5.5,0,0,0,0,.665.421.421,0,0,0,.631,0,.5.5,0,0,0,0-.665A.422.422,0,0,0,3068.619,380.066Z" transform="translate(-2893.728 -379.924)" fill="#fff"/>
      <rect id="長方形_1322" data-name="長方形 1322" width="0.605" height="3.856" transform="translate(174.905 1.519)" fill="#fff"/>
      <path id="パス_832" data-name="パス 832" d="M3082.691,390.387a1.233,1.233,0,0,0-.727-.225,1.437,1.437,0,0,0-.739.2,1.833,1.833,0,0,0-.458.4v-.5h-.6v3.856h.6v-1.436a5.259,5.259,0,0,1,.061-.984,1.277,1.277,0,0,1,.39-.663.947.947,0,0,1,.658-.263.765.765,0,0,1,.511.165.878.878,0,0,1,.265.506,4.6,4.6,0,0,1,.047.833v1.843h.6v-1.982a3.257,3.257,0,0,0-.147-1.14A1.325,1.325,0,0,0,3082.691,390.387Z" transform="translate(-2903.779 -388.738)" fill="#fff"/>
      <path id="パス_833" data-name="パス 833" d="M3111.146,390.761a1.9,1.9,0,0,0-.517-.412,1.7,1.7,0,0,0-1.673.09,1.9,1.9,0,0,0-.681.732,2.1,2.1,0,0,0-.245.994,2.067,2.067,0,0,0,.236.978,1.819,1.819,0,0,0,.67.712,1.756,1.756,0,0,0,2.21-.29,2.04,2.04,0,0,1-.124.808.991.991,0,0,1-.408.419,1.406,1.406,0,0,1-.716.169,1.442,1.442,0,0,1-.722-.165,1.237,1.237,0,0,1-.47-.51l-.024-.044h-.652l.049.116a2.255,2.255,0,0,0,.421.687,1.645,1.645,0,0,0,.6.38,2.279,2.279,0,0,0,.818.14,1.946,1.946,0,0,0,1.071-.288,1.545,1.545,0,0,0,.632-.826,3.77,3.77,0,0,0,.13-1.163v-3.023h-.6Zm-.138.694a1.526,1.526,0,0,1,.16.706,1.382,1.382,0,0,1-.345.978,1.317,1.317,0,0,1-1.829,0,1.327,1.327,0,0,1-.353-.947,1.486,1.486,0,0,1,.173-.706,1.284,1.284,0,0,1,.471-.507,1.233,1.233,0,0,1,.65-.183,1.182,1.182,0,0,1,.624.178A1.214,1.214,0,0,1,3111.007,391.455Z" transform="translate(-2927.776 -388.745)" fill="#fff"/>
      <path id="パス_834" data-name="パス 834" d="M3154.612,384.033a5.78,5.78,0,0,0,.739-1.022,1.828,1.828,0,0,0,.2-.833,1.619,1.619,0,0,0-.414-1.1,1.4,1.4,0,0,0-1.092-.472,1.5,1.5,0,0,0-1.141.5,1.878,1.878,0,0,0-.478,1.266l0,.085h.6l.006-.077a1.362,1.362,0,0,1,.312-.845.871.871,0,0,1,.674-.292.858.858,0,0,1,.65.278.924.924,0,0,1,.267.667,1.248,1.248,0,0,1-.151.593,6.073,6.073,0,0,1-.688.907l-1.879,2.2h3.4v-.648h-2.03Z" transform="translate(-2965.827 -380.507)" fill="#fff"/>
      <path id="パス_835" data-name="パス 835" d="M3184.828,380.9a1.386,1.386,0,0,0-.863-.3,1.358,1.358,0,0,0-.85.3,1.857,1.857,0,0,0-.58.854,6.072,6.072,0,0,0,0,3.108,1.867,1.867,0,0,0,.581.856,1.355,1.355,0,0,0,.847.292,1.39,1.39,0,0,0,.866-.3,1.938,1.938,0,0,0,.6-.876,4.478,4.478,0,0,0,.214-1.525,4.429,4.429,0,0,0-.218-1.532A1.939,1.939,0,0,0,3184.828,380.9Zm-1.371,4.286a1.288,1.288,0,0,1-.386-.618,4.366,4.366,0,0,1-.135-1.252,4.318,4.318,0,0,1,.137-1.255,1.3,1.3,0,0,1,.384-.617.771.771,0,0,1,1.043,0,1.387,1.387,0,0,1,.4.664,4.083,4.083,0,0,1,.149,1.208,4.125,4.125,0,0,1-.168,1.258,1.269,1.269,0,0,1-.378.618A.769.769,0,0,1,3183.457,385.185Z" transform="translate(-2991.765 -380.507)" fill="#fff"/>
      <path id="パス_836" data-name="パス 836" d="M3210.495,384.033a5.763,5.763,0,0,0,.739-1.022,1.828,1.828,0,0,0,.2-.833,1.617,1.617,0,0,0-.414-1.1,1.4,1.4,0,0,0-1.092-.472,1.5,1.5,0,0,0-1.141.5,1.876,1.876,0,0,0-.478,1.266l0,.085h.6l.005-.077a1.365,1.365,0,0,1,.312-.845.871.871,0,0,1,.674-.292.859.859,0,0,1,.651.278.926.926,0,0,1,.267.667,1.243,1.243,0,0,1-.152.593,6.089,6.089,0,0,1-.687.907l-1.88,2.2h3.4v-.648h-2.03Z" transform="translate(-3013.951 -380.507)" fill="#fff"/>
      <path id="パス_837" data-name="パス 837" d="M3240.486,381.505l-.37.654h.783v4.5h.624v-5.155Z" transform="translate(-3041.524 -381.285)" fill="#fff"/>
    </g>
    <g id="グループ_1551" data-name="グループ 1551" transform="translate(284 35.264)">
      <rect id="長方形_1324" data-name="長方形 1324" width="5.803" height="31.742" transform="translate(0 0)" fill="#fff"/>
      <path id="パス_856" data-name="パス 856" d="M1902.363,111.348h7.42V137.32h5.929V111.348h7.567v-5.77h-20.915Z" transform="translate(-1889.505 -105.577)" fill="#fff"/>
      <path id="パス_857" data-name="パス 857" d="M2103.817,137.32h16.763v-5.75H2109.62v-8.091h10.959v-5.624H2109.62v-6.549h10.959v-5.729h-16.763Z" transform="translate(-2062.989 -105.577)" fill="#fff"/>
      <path id="パス_860" data-name="パス 860" d="M2301.1,137.351l-.058-31.774h-5.695l-7.116,21.445-7.116-21.445h-5.695l-.058,31.774h5.7l-.147-14.708,4.725,14.676h5.184l4.725-14.676-.147,14.708Z" transform="translate(-2210.714 -105.577)" fill="#fff"/>
    </g>
    <g id="グループ_1550" data-name="グループ 1550" transform="translate(395.666 35)">
      <path id="パス_858" data-name="パス 858" d="M2814.748,105.33a10.065,10.065,0,0,0-5.793-1.652,9.288,9.288,0,0,0-8.079,4.181q-2.609,3.805-2.609,12.273a25.711,25.711,0,0,0,1.336,9.346,10.491,10.491,0,0,0,3.7,4.892,10.092,10.092,0,0,0,5.824,1.61,9.745,9.745,0,0,0,5.741-1.6,10.7,10.7,0,0,0,3.622-5.007,26.808,26.808,0,0,0,1.347-9.534,26.887,26.887,0,0,0-1.326-9.461A10.473,10.473,0,0,0,2814.748,105.33Zm-2.283,23.1a3.79,3.79,0,0,1-3.374,2.112,4.12,4.12,0,0,1-3.593-2.227q-1.386-2.227-1.386-8.06a28.771,28.771,0,0,1,.6-6.795,6.169,6.169,0,0,1,1.75-3.272,3.992,3.992,0,0,1,2.625-.951,4.035,4.035,0,0,1,3.531,2.3q1.365,2.3,1.365,8.363Q2813.986,125.882,2812.465,128.432Z" transform="translate(-2772.687 -103.678)" fill="#fff"/>
      <path id="パス_859" data-name="パス 859" d="M3166.279,109.24l-3.382,5.5h6.325v25.256h5.8V109.24Z" transform="translate(-3086.692 -108.466)" fill="#fff"/>
      <path id="パス_861" data-name="パス 861" d="M2634.519,129.791h-10.944l3.446-3.638a32.132,32.132,0,0,0,5.691-7.464,13.415,13.415,0,0,0,1.556-5.9,8.968,8.968,0,0,0-1.284-4.527,8.848,8.848,0,0,0-3.423-3.408,11.012,11.012,0,0,0-12.358,1.673,11.274,11.274,0,0,0-3.121,7.83h5.7a5.817,5.817,0,0,1,1.336-3.805,4.026,4.026,0,0,1,3.131-1.4,4.148,4.148,0,0,1,3.037,1.16,3.95,3.95,0,0,1,1.18,2.937,8.278,8.278,0,0,1-1.138,3.836,27.787,27.787,0,0,1-4.583,5.614l-8.716,8.9v3.6h20.489Z" transform="translate(-2614.029 -103.678)" fill="#fff"/>
      <path id="パス_862" data-name="パス 862" d="M3010.733,129.791h-10.944l3.446-3.638a32.116,32.116,0,0,0,5.691-7.464,13.415,13.415,0,0,0,1.556-5.9,8.968,8.968,0,0,0-1.284-4.527,8.838,8.838,0,0,0-3.423-3.408,11.011,11.011,0,0,0-12.357,1.673,11.27,11.27,0,0,0-3.121,7.83h5.7a5.821,5.821,0,0,1,1.336-3.805,4.028,4.028,0,0,1,3.131-1.4,4.149,4.149,0,0,1,3.038,1.16,3.95,3.95,0,0,1,1.18,2.937,8.27,8.27,0,0,1-1.138,3.836,27.763,27.763,0,0,1-4.582,5.614l-8.716,8.9v3.6h20.489Z" transform="translate(-2938.009 -103.678)" fill="#fff"/>
    </g>
  </g>
</svg>