<svg xmlns="http://www.w3.org/2000/svg" width="274.5" height="32.666" viewBox="0 0 274.5 32.666">
  <g id="logo_hd_sp" transform="translate(1301 856)">
    <g id="グループ_1843" data-name="グループ 1843" transform="translate(-1585 -891)">
      <g id="グループ_1539" data-name="グループ 1539" transform="translate(302.56 41.856)" opacity="0.15">
        <path id="パス_787" data-name="パス 787" d="M1969.818,209.134c-.734-6.517-22-9.464-47.5-6.582s-45.575,10.5-44.841,17.017,22,9.464,47.5,6.582S1970.553,215.651,1969.818,209.134Zm-46.942,16.521c-22.849,2.582-41.884.125-42.516-5.488s17.378-12.256,40.227-14.838,41.884-.125,42.516,5.488S1945.726,223.073,1922.877,225.655Z" transform="translate(-1877.458 -201.446)" fill="#2f318e"/>
      </g>
      <g id="グループ_1552" data-name="グループ 1552" transform="translate(284 58.785)">
        <path id="パス_788" data-name="パス 788" d="M1809.755,381.93h.668v2.925h.414V381.93h.668v-.425h-1.75Z" transform="translate(-1809.755 -381.362)" fill="#2f318e"/>
        <path id="パス_789" data-name="パス 789" d="M1834.791,381.613a.8.8,0,0,0-.472-.147.929.929,0,0,0-.478.13,1.2,1.2,0,0,0-.3.258V380.6h-.393v3.432h.393V383.1a3.417,3.417,0,0,1,.039-.64.83.83,0,0,1,.254-.431.616.616,0,0,1,.428-.171.493.493,0,0,1,.331.107.59.59,0,0,1,.175.329,3.137,3.137,0,0,1,.029.542v1.2h.393v-1.288a2.124,2.124,0,0,0-.1-.742A.861.861,0,0,0,1834.791,381.613Z" transform="translate(-1831.036 -380.541)" fill="#2f318e"/>
        <path id="パス_790" data-name="パス 790" d="M1863.478,391.5a1.43,1.43,0,0,0-.255-.851,1.121,1.121,0,0,0-.949-.487,1.088,1.088,0,0,0-.923.476,1.452,1.452,0,0,0,.049,1.748,1.08,1.08,0,0,0,.891.4,1.193,1.193,0,0,0,.459-.085,1.137,1.137,0,0,0,.366-.246,1.478,1.478,0,0,0,.284-.421l.021-.045-.331-.188-.026.048a1.4,1.4,0,0,1-.232.327.81.81,0,0,1-.255.158.838.838,0,0,1-.31.06.7.7,0,0,1-.55-.249.951.951,0,0,1-.231-.595h1.993Zm-1.949-.32a.942.942,0,0,1,.225-.4.722.722,0,0,1,.524-.212.779.779,0,0,1,.353.085.744.744,0,0,1,.27.222.94.94,0,0,1,.14.308Z" transform="translate(-1856.45 -389.236)" fill="#2f318e"/>
        <rect id="長方形_1311" data-name="長方形 1311" width="0.407" height="3.35" transform="translate(8.779 0.143)" fill="#2f318e"/>
        <path id="パス_791" data-name="パス 791" d="M1920.008,390.309a.8.8,0,0,0-.473-.147.934.934,0,0,0-.48.13,1.185,1.185,0,0,0-.3.257v-.325h-.393v2.506h.393V391.8a3.439,3.439,0,0,1,.039-.64.831.831,0,0,1,.254-.431.616.616,0,0,1,.428-.171.5.5,0,0,1,.332.107.571.571,0,0,1,.172.329,3.01,3.01,0,0,1,.031.541v1.2h.393v-1.288a2.12,2.12,0,0,0-.1-.741A.862.862,0,0,0,1920.008,390.309Z" transform="translate(-1908.563 -389.236)" fill="#2f318e"/>
        <path id="パス_792" data-name="パス 792" d="M1946.72,380.993h-.393v.891h-.389v.375h.389v2.132h.393v-2.132h.453v-.375h-.453Z" transform="translate(-1933.648 -380.896)" fill="#2f318e"/>
        <path id="パス_793" data-name="パス 793" d="M1965.292,391.5a1.431,1.431,0,0,0-.255-.851,1.121,1.121,0,0,0-.949-.487,1.088,1.088,0,0,0-.923.476,1.452,1.452,0,0,0,.049,1.748,1.079,1.079,0,0,0,.891.4,1.193,1.193,0,0,0,.459-.085,1.138,1.138,0,0,0,.366-.246,1.487,1.487,0,0,0,.284-.421l.021-.045-.331-.188-.026.048a1.4,1.4,0,0,1-.232.327.807.807,0,0,1-.255.158.838.838,0,0,1-.31.06.7.7,0,0,1-.549-.249.952.952,0,0,1-.231-.595h1.993Zm-1.949-.32a.94.94,0,0,1,.225-.4.721.721,0,0,1,.523-.212.778.778,0,0,1,.353.085.744.744,0,0,1,.27.222.935.935,0,0,1,.14.308Z" transform="translate(-1949.076 -389.236)" fill="#2f318e"/>
        <path id="パス_794" data-name="パス 794" d="M1994.465,390.268a.961.961,0,0,0-.19.184v-.235h-.4v2.506h.4v-.865a4.043,4.043,0,0,1,.052-.815.772.772,0,0,1,.187-.368.343.343,0,0,1,.238-.112.325.325,0,0,1,.128.037l.045.021.2-.349-.045-.027A.516.516,0,0,0,1994.465,390.268Z" transform="translate(-1977.26 -389.23)" fill="#2f318e"/>
        <path id="パス_795" data-name="パス 795" d="M2011.551,390.309a.8.8,0,0,0-.472-.147.935.935,0,0,0-.48.13,1.185,1.185,0,0,0-.3.257v-.325h-.393v2.506h.393V391.8a3.411,3.411,0,0,1,.039-.64.83.83,0,0,1,.253-.431.616.616,0,0,1,.428-.171.5.5,0,0,1,.332.107.572.572,0,0,1,.173.329,3.033,3.033,0,0,1,.03.541v1.2h.393v-1.288a2.122,2.122,0,0,0-.1-.741A.86.86,0,0,0,2011.551,390.309Z" transform="translate(-1991.845 -389.236)" fill="#2f318e"/>
        <path id="パス_796" data-name="パス 796" d="M2039.957,390.556a1.137,1.137,0,0,0-.308-.261,1.039,1.039,0,0,0-.521-.133,1.115,1.115,0,0,0-.849.386,1.327,1.327,0,0,0-.35.923,1.351,1.351,0,0,0,.347.934,1.1,1.1,0,0,0,.844.387,1.079,1.079,0,0,0,.513-.125,1.234,1.234,0,0,0,.323-.254v.318h.389v-2.506h-.389Zm-.221.273a.949.949,0,0,1,.239.659,1.006,1.006,0,0,1-.107.466.815.815,0,0,1-.3.324.765.765,0,0,1-.822,0,.867.867,0,0,1-.3-.339.988.988,0,0,1,0-.919.853.853,0,0,1,.3-.335.761.761,0,0,1,.411-.118A.751.751,0,0,1,2039.736,390.83Z" transform="translate(-2017.337 -389.236)" fill="#2f318e"/>
        <path id="パス_797" data-name="パス 797" d="M2070.776,380.993h-.393v.891h-.389v.375h.389v2.132h.393v-2.132h.453v-.375h-.453Z" transform="translate(-2046.508 -380.896)" fill="#2f318e"/>
        <rect id="長方形_1312" data-name="長方形 1312" width="0.393" height="2.506" transform="translate(25.081 0.987)" fill="#2f318e"/>
        <path id="パス_798" data-name="パス 798" d="M2086.743,380.016a.323.323,0,0,0,0,.433.274.274,0,0,0,.41,0,.323.323,0,0,0,0-.433A.275.275,0,0,0,2086.743,380.016Z" transform="translate(-2061.67 -379.924)" fill="#2f318e"/>
        <path id="パス_799" data-name="パス 799" d="M2098.348,390.162a1.118,1.118,0,0,0-.893.423,1.417,1.417,0,0,0,.018,1.812,1.164,1.164,0,0,0,1.747,0,1.419,1.419,0,0,0,.018-1.815A1.118,1.118,0,0,0,2098.348,390.162Zm.812,1.328a.991.991,0,0,1-.111.46.813.813,0,0,1-.3.326.786.786,0,0,1-.815,0,.812.812,0,0,1-.295-.326.985.985,0,0,1-.111-.46.945.945,0,0,1,.241-.652.745.745,0,0,1,1.142,0A.943.943,0,0,1,2099.16,391.49Z" transform="translate(-2071.202 -389.236)" fill="#2f318e"/>
        <path id="パス_800" data-name="パス 800" d="M2131.179,390.309a.8.8,0,0,0-.473-.147.934.934,0,0,0-.479.13,1.184,1.184,0,0,0-.3.257v-.325h-.393v2.506h.393V391.8a3.468,3.468,0,0,1,.039-.64.834.834,0,0,1,.254-.431.616.616,0,0,1,.428-.171.5.5,0,0,1,.332.107.573.573,0,0,1,.173.329,3.058,3.058,0,0,1,.03.541v1.2h.393v-1.288a2.122,2.122,0,0,0-.1-.741A.863.863,0,0,0,2131.179,390.309Z" transform="translate(-2100.677 -389.236)" fill="#2f318e"/>
        <path id="パス_801" data-name="パス 801" d="M2159.584,390.556a1.133,1.133,0,0,0-.308-.261,1.038,1.038,0,0,0-.521-.133,1.113,1.113,0,0,0-.848.386,1.324,1.324,0,0,0-.351.923,1.352,1.352,0,0,0,.347.934,1.1,1.1,0,0,0,.844.387,1.079,1.079,0,0,0,.514-.125,1.223,1.223,0,0,0,.323-.254v.318h.389v-2.506h-.389Zm-.221.273a.948.948,0,0,1,.24.659,1,1,0,0,1-.107.466.813.813,0,0,1-.3.324.765.765,0,0,1-.821,0,.866.866,0,0,1-.3-.339.987.987,0,0,1,0-.919.851.851,0,0,1,.3-.335.761.761,0,0,1,.411-.118A.75.75,0,0,1,2159.363,390.83Z" transform="translate(-2126.169 -389.236)" fill="#2f318e"/>
        <rect id="長方形_1313" data-name="長方形 1313" width="0.393" height="3.432" transform="translate(34.38 0.061)" fill="#2f318e"/>
        <path id="パス_802" data-name="パス 802" d="M2212.315,381.93h.669v2.925h.413V381.93h.668v-.425h-1.75Z" transform="translate(-2175.986 -381.362)" fill="#2f318e"/>
        <path id="パス_803" data-name="パス 803" d="M2236.911,391.5a1.427,1.427,0,0,0-.255-.851,1.121,1.121,0,0,0-.949-.487,1.087,1.087,0,0,0-.922.476,1.451,1.451,0,0,0,.048,1.748,1.081,1.081,0,0,0,.891.4,1.194,1.194,0,0,0,.459-.085,1.139,1.139,0,0,0,.366-.246,1.48,1.48,0,0,0,.284-.421l.021-.045-.331-.188-.026.048a1.378,1.378,0,0,1-.233.327.8.8,0,0,1-.255.158.838.838,0,0,1-.31.06.7.7,0,0,1-.549-.249.951.951,0,0,1-.231-.595h1.994Zm-1.949-.32a.938.938,0,0,1,.225-.4.721.721,0,0,1,.524-.212.778.778,0,0,1,.353.085.739.739,0,0,1,.269.222.933.933,0,0,1,.141.308Z" transform="translate(-2196.181 -389.236)" fill="#2f318e"/>
        <path id="パス_804" data-name="パス 804" d="M2267.58,392a.89.89,0,0,1-.754.4.873.873,0,0,1-.454-.12.846.846,0,0,1-.318-.338.978.978,0,0,1-.117-.468.91.91,0,0,1,.253-.648.831.831,0,0,1,.634-.265.866.866,0,0,1,.755.4l.03.044.312-.209-.024-.043a1.077,1.077,0,0,0-.255-.313,1.217,1.217,0,0,0-.364-.2,1.318,1.318,0,0,0-.443-.076,1.281,1.281,0,0,0-.661.175,1.247,1.247,0,0,0-.465.487,1.4,1.4,0,0,0-.168.673,1.282,1.282,0,0,0,.361.917,1.214,1.214,0,0,0,.911.378,1.335,1.335,0,0,0,.636-.149,1.16,1.16,0,0,0,.448-.421l.026-.043-.311-.221Z" transform="translate(-2224.407 -389.236)" fill="#2f318e"/>
        <path id="パス_805" data-name="パス 805" d="M2299.178,381.613a.8.8,0,0,0-.473-.147.93.93,0,0,0-.478.13,1.207,1.207,0,0,0-.3.258V380.6h-.393v3.432h.393V383.1a3.414,3.414,0,0,1,.039-.64.834.834,0,0,1,.254-.431.616.616,0,0,1,.428-.171.491.491,0,0,1,.331.107.588.588,0,0,1,.175.329,3.124,3.124,0,0,1,.03.542v1.2h.393v-1.288a2.115,2.115,0,0,0-.1-.742A.862.862,0,0,0,2299.178,381.613Z" transform="translate(-2253.514 -380.541)" fill="#2f318e"/>
        <path id="パス_806" data-name="パス 806" d="M2328.305,390.309a.8.8,0,0,0-.473-.147.935.935,0,0,0-.48.13,1.2,1.2,0,0,0-.3.257v-.325h-.393v2.506h.393V391.8a3.468,3.468,0,0,1,.039-.64.835.835,0,0,1,.254-.431.616.616,0,0,1,.428-.171.5.5,0,0,1,.332.107.57.57,0,0,1,.173.329,3.083,3.083,0,0,1,.03.541v1.2h.393v-1.288a2.121,2.121,0,0,0-.1-.741A.858.858,0,0,0,2328.305,390.309Z" transform="translate(-2280.013 -389.236)" fill="#2f318e"/>
        <path id="パス_807" data-name="パス 807" d="M2354.385,380.016a.323.323,0,0,0,0,.433.274.274,0,0,0,.41,0,.323.323,0,0,0,0-.433A.275.275,0,0,0,2354.385,380.016Z" transform="translate(-2305.159 -379.924)" fill="#2f318e"/>
        <rect id="長方形_1314" data-name="長方形 1314" width="0.393" height="2.506" transform="translate(49.235 0.987)" fill="#2f318e"/>
        <path id="パス_808" data-name="パス 808" d="M2366.863,392a.89.89,0,0,1-.754.4.874.874,0,0,1-.454-.12.85.85,0,0,1-.318-.338.989.989,0,0,1-.116-.468.909.909,0,0,1,.252-.648.832.832,0,0,1,.634-.265.867.867,0,0,1,.756.4l.03.044.312-.209-.024-.043a1.075,1.075,0,0,0-.256-.313,1.213,1.213,0,0,0-.363-.2,1.324,1.324,0,0,0-.443-.076,1.28,1.28,0,0,0-.661.175,1.251,1.251,0,0,0-.466.487,1.4,1.4,0,0,0-.169.673,1.282,1.282,0,0,0,.362.917,1.215,1.215,0,0,0,.911.378,1.334,1.334,0,0,0,.635-.149,1.157,1.157,0,0,0,.448-.421l.027-.043-.311-.221Z" transform="translate(-2314.729 -389.236)" fill="#2f318e"/>
        <path id="パス_809" data-name="パス 809" d="M2397.741,390.556a1.144,1.144,0,0,0-.308-.261,1.04,1.04,0,0,0-.521-.133,1.114,1.114,0,0,0-.849.386,1.326,1.326,0,0,0-.35.923,1.35,1.35,0,0,0,.347.934,1.1,1.1,0,0,0,.844.387,1.079,1.079,0,0,0,.513-.125,1.236,1.236,0,0,0,.323-.254v.318h.389v-2.506h-.389Zm-.222.273a.947.947,0,0,1,.24.659,1.011,1.011,0,0,1-.107.466.818.818,0,0,1-.3.324.766.766,0,0,1-.822,0,.871.871,0,0,1-.3-.339.986.986,0,0,1,0-.919.848.848,0,0,1,.3-.335.761.761,0,0,1,.411-.118A.75.75,0,0,1,2397.519,390.83Z" transform="translate(-2342.832 -389.236)" fill="#2f318e"/>
        <rect id="長方形_1315" data-name="長方形 1315" width="0.393" height="3.432" transform="translate(55.872 0.061)" fill="#2f318e"/>
        <path id="パス_810" data-name="パス 810" d="M2453.792,384.855h1.813v-.425H2454.2v-1.166h1.406v-.425H2454.2v-.908h1.418v-.425h-1.826Z" transform="translate(-2395.67 -381.362)" fill="#2f318e"/>
        <path id="パス_811" data-name="パス 811" d="M2476.908,390.845h-.473l-.555.834-.561-.834h-.472l.8,1.189-.876,1.317h.47l.643-.964.646.964H2477l-.887-1.319Z" transform="translate(-2414.753 -389.858)" fill="#2f318e"/>
        <path id="パス_812" data-name="パス 812" d="M2503.732,381.613a.8.8,0,0,0-.473-.147.931.931,0,0,0-.478.13,1.2,1.2,0,0,0-.3.258V380.6h-.393v3.432h.393V383.1a3.392,3.392,0,0,1,.039-.64.832.832,0,0,1,.253-.431.617.617,0,0,1,.428-.171.492.492,0,0,1,.331.107.583.583,0,0,1,.175.329,3.09,3.09,0,0,1,.03.542v1.2h.393v-1.288a2.109,2.109,0,0,0-.1-.742A.858.858,0,0,0,2503.732,381.613Z" transform="translate(-2439.609 -380.541)" fill="#2f318e"/>
        <path id="パス_813" data-name="パス 813" d="M2529.81,380.016a.323.323,0,0,0,0,.433.274.274,0,0,0,.41,0,.321.321,0,0,0,0-.433A.275.275,0,0,0,2529.81,380.016Z" transform="translate(-2464.752 -379.924)" fill="#2f318e"/>
        <rect id="長方形_1316" data-name="長方形 1316" width="0.393" height="2.506" transform="translate(65.067 0.987)" fill="#2f318e"/>
        <path id="パス_814" data-name="パス 814" d="M2542.829,381.466a1.078,1.078,0,0,0-.511.124,1.207,1.207,0,0,0-.322.254V380.6h-.393v3.432H2542V383.7a1.152,1.152,0,0,0,.308.263,1.028,1.028,0,0,0,.517.133,1.113,1.113,0,0,0,.848-.386,1.329,1.329,0,0,0,.35-.925,1.351,1.351,0,0,0-.346-.932A1.1,1.1,0,0,0,2542.829,381.466Zm.793,1.31a.989.989,0,0,1-.113.46.85.85,0,0,1-.3.335.759.759,0,0,1-.411.119.748.748,0,0,1-.583-.262.95.95,0,0,1-.24-.66,1,1,0,0,1,.107-.467.817.817,0,0,1,.3-.326.788.788,0,0,1,.416-.121.741.741,0,0,1,.4.12.873.873,0,0,1,.3.34A.988.988,0,0,1,2543.622,382.777Z" transform="translate(-2475.556 -380.541)" fill="#2f318e"/>
        <rect id="長方形_1317" data-name="長方形 1317" width="0.393" height="2.506" transform="translate(68.916 0.987)" fill="#2f318e"/>
        <path id="パス_815" data-name="パス 815" d="M2572.466,380.016a.323.323,0,0,0,0,.433.273.273,0,0,0,.41,0,.323.323,0,0,0,0-.433A.274.274,0,0,0,2572.466,380.016Z" transform="translate(-2503.558 -379.924)" fill="#2f318e"/>
        <path id="パス_816" data-name="パス 816" d="M2583.279,380.993h-.393v.891h-.389v.375h.389v2.132h.393v-2.132h.452v-.375h-.452Z" transform="translate(-2512.759 -380.896)" fill="#2f318e"/>
        <path id="パス_817" data-name="パス 817" d="M2599.244,380.016a.323.323,0,0,0,0,.433.273.273,0,0,0,.41,0,.323.323,0,0,0,0-.433A.274.274,0,0,0,2599.244,380.016Z" transform="translate(-2527.92 -379.924)" fill="#2f318e"/>
        <rect id="長方形_1318" data-name="長方形 1318" width="0.393" height="2.506" transform="translate(71.333 0.987)" fill="#2f318e"/>
        <path id="パス_818" data-name="パス 818" d="M2610.851,390.162a1.116,1.116,0,0,0-.892.423,1.417,1.417,0,0,0,.017,1.812,1.165,1.165,0,0,0,1.748,0,1.421,1.421,0,0,0,.018-1.815A1.118,1.118,0,0,0,2610.851,390.162Zm.813,1.328a.989.989,0,0,1-.111.46.813.813,0,0,1-.3.326.786.786,0,0,1-.814,0,.817.817,0,0,1-.3-.326.991.991,0,0,1-.11-.46.943.943,0,0,1,.242-.652.745.745,0,0,1,1.142,0A.943.943,0,0,1,2611.664,391.49Z" transform="translate(-2537.453 -389.236)" fill="#2f318e"/>
        <path id="パス_819" data-name="パス 819" d="M2643.682,390.309a.8.8,0,0,0-.472-.147.934.934,0,0,0-.48.13,1.189,1.189,0,0,0-.3.257v-.325h-.393v2.506h.393V391.8a3.433,3.433,0,0,1,.039-.64.827.827,0,0,1,.254-.431.616.616,0,0,1,.427-.171.5.5,0,0,1,.332.107.572.572,0,0,1,.172.329,2.963,2.963,0,0,1,.031.541v1.2h.393v-1.288a2.117,2.117,0,0,0-.1-.741A.864.864,0,0,0,2643.682,390.309Z" transform="translate(-2566.928 -389.236)" fill="#2f318e"/>
        <path id="パス_820" data-name="パス 820" d="M2684.91,390.162a1.118,1.118,0,0,0-.893.423,1.416,1.416,0,0,0,.018,1.812,1.165,1.165,0,0,0,1.748,0,1.42,1.42,0,0,0,.017-1.815A1.117,1.117,0,0,0,2684.91,390.162Zm.812,1.328a.988.988,0,0,1-.111.46.815.815,0,0,1-.3.326.786.786,0,0,1-.815,0,.819.819,0,0,1-.3-.326.993.993,0,0,1-.11-.46.944.944,0,0,1,.242-.652.745.745,0,0,1,1.142,0A.943.943,0,0,1,2685.723,391.49Z" transform="translate(-2604.829 -389.236)" fill="#2f318e"/>
        <path id="パス_821" data-name="パス 821" d="M2714.871,380a.428.428,0,0,0-.17.2,1.139,1.139,0,0,0-.047.388v.321h-.292v.375h.292v2.132h.393v-2.132h.463v-.375h-.463v-.27a1.141,1.141,0,0,1,.012-.237.105.105,0,0,1,.047-.054c.069-.045.193-.035.355.04l.077.035V380l-.037-.012A.727.727,0,0,0,2714.871,380Z" transform="translate(-2632.724 -379.922)" fill="#2f318e"/>
        <path id="パス_822" data-name="パス 822" d="M2747.126,381.505l-1.173,2.585-1.183-2.585h-.131l-.443,3.35h.4l.277-2.2,1.008,2.2h.145l1-2.178.278,2.178h.4l-.446-3.35Z" transform="translate(-2659.866 -381.362)" fill="#2f318e"/>
        <path id="パス_823" data-name="パス 823" d="M2789.9,391.5a1.427,1.427,0,0,0-.255-.851,1.121,1.121,0,0,0-.949-.487,1.088,1.088,0,0,0-.923.476,1.452,1.452,0,0,0,.048,1.748,1.08,1.08,0,0,0,.891.4,1.193,1.193,0,0,0,.459-.085,1.133,1.133,0,0,0,.366-.246,1.47,1.47,0,0,0,.284-.421l.021-.045-.331-.188-.027.048a1.378,1.378,0,0,1-.232.327.8.8,0,0,1-.255.158.841.841,0,0,1-.31.06.7.7,0,0,1-.549-.249.951.951,0,0,1-.231-.595h1.993Zm-1.949-.32a.933.933,0,0,1,.225-.4.72.72,0,0,1,.523-.212.783.783,0,0,1,.354.085.742.742,0,0,1,.269.222.933.933,0,0,1,.141.308Z" transform="translate(-2699.263 -389.236)" fill="#2f318e"/>
        <path id="パス_824" data-name="パス 824" d="M2820.645,381.86a1.144,1.144,0,0,0-.308-.262,1.04,1.04,0,0,0-.521-.133,1.114,1.114,0,0,0-.849.386,1.327,1.327,0,0,0-.35.923,1.351,1.351,0,0,0,.347.934,1.1,1.1,0,0,0,.844.387,1.082,1.082,0,0,0,.514-.125,1.25,1.25,0,0,0,.323-.254v.318h.389V380.6h-.389Zm-.222.273a.947.947,0,0,1,.24.659,1,1,0,0,1-.107.466.811.811,0,0,1-.3.324.766.766,0,0,1-.822,0,.862.862,0,0,1-.3-.339.986.986,0,0,1,0-.919.854.854,0,0,1,.3-.335.763.763,0,0,1,.411-.118A.75.75,0,0,1,2820.423,382.134Z" transform="translate(-2727.571 -380.541)" fill="#2f318e"/>
        <path id="パス_825" data-name="パス 825" d="M2850.875,380.016a.323.323,0,0,0,0,.433.274.274,0,0,0,.41,0,.323.323,0,0,0,0-.433A.275.275,0,0,0,2850.875,380.016Z" transform="translate(-2756.842 -379.924)" fill="#2f318e"/>
        <rect id="長方形_1319" data-name="長方形 1319" width="0.393" height="2.506" transform="translate(94.042 0.987)" fill="#2f318e"/>
        <path id="パス_826" data-name="パス 826" d="M2863.356,392a.891.891,0,0,1-.755.4.874.874,0,0,1-.454-.12.85.85,0,0,1-.318-.338.986.986,0,0,1-.116-.468.908.908,0,0,1,.252-.648.831.831,0,0,1,.634-.265.867.867,0,0,1,.756.4l.03.044.312-.209-.024-.043a1.078,1.078,0,0,0-.256-.313,1.21,1.21,0,0,0-.364-.2,1.321,1.321,0,0,0-.443-.076,1.281,1.281,0,0,0-.661.175,1.247,1.247,0,0,0-.466.487,1.4,1.4,0,0,0-.168.673,1.282,1.282,0,0,0,.361.917,1.214,1.214,0,0,0,.911.378,1.333,1.333,0,0,0,.635-.149,1.153,1.153,0,0,0,.448-.421l.027-.043-.311-.221Z" transform="translate(-2766.417 -389.236)" fill="#2f318e"/>
        <path id="パス_827" data-name="パス 827" d="M2894.233,390.556a1.149,1.149,0,0,0-.308-.261,1.04,1.04,0,0,0-.521-.133,1.112,1.112,0,0,0-.848.386,1.323,1.323,0,0,0-.351.923,1.356,1.356,0,0,0,.347.934,1.1,1.1,0,0,0,.844.387,1.078,1.078,0,0,0,.513-.125,1.241,1.241,0,0,0,.324-.254v.318h.388v-2.506h-.388Zm-.221.273a.948.948,0,0,1,.24.659,1.011,1.011,0,0,1-.107.466.813.813,0,0,1-.3.324.765.765,0,0,1-.821,0,.869.869,0,0,1-.3-.339.984.984,0,0,1,0-.919.849.849,0,0,1,.3-.335.758.758,0,0,1,.41-.118A.75.75,0,0,1,2894.011,390.83Z" transform="translate(-2794.517 -389.236)" fill="#2f318e"/>
        <rect id="長方形_1320" data-name="長方形 1320" width="0.393" height="3.432" transform="translate(100.679 0.061)" fill="#2f318e"/>
        <rect id="長方形_1321" data-name="長方形 1321" width="0.407" height="3.35" transform="translate(102.884 0.143)" fill="#2f318e"/>
        <path id="パス_828" data-name="パス 828" d="M2964.153,390.3a.735.735,0,0,0-.437-.136.851.851,0,0,0-.49.156,1.094,1.094,0,0,0-.314.343.934.934,0,0,0-.128-.229.723.723,0,0,0-.256-.2.83.83,0,0,0-.814.077,1.025,1.025,0,0,0-.222.212v-.3h-.393v2.506h.393v-1.07a1.983,1.983,0,0,1,.079-.649.708.708,0,0,1,.237-.323.506.506,0,0,1,.6-.035.433.433,0,0,1,.155.222,2.228,2.228,0,0,1,.048.573v1.282H2963v-.993a2.36,2.36,0,0,1,.076-.718.7.7,0,0,1,.233-.328.556.556,0,0,1,.346-.121.434.434,0,0,1,.262.078.414.414,0,0,1,.154.207,1.833,1.833,0,0,1,.048.512v1.363h.4v-1.363a2.049,2.049,0,0,0-.089-.694A.8.8,0,0,0,2964.153,390.3Z" transform="translate(-2857.195 -389.236)" fill="#2f318e"/>
        <path id="パス_829" data-name="パス 829" d="M3006.344,390.556a1.137,1.137,0,0,0-.308-.261,1.036,1.036,0,0,0-.52-.133,1.114,1.114,0,0,0-.849.386,1.328,1.328,0,0,0-.351.923,1.351,1.351,0,0,0,.347.934,1.1,1.1,0,0,0,.844.387,1.079,1.079,0,0,0,.513-.125,1.235,1.235,0,0,0,.323-.254v.318h.389v-2.506h-.389Zm-.221.273a.948.948,0,0,1,.239.659,1.007,1.007,0,0,1-.106.466.815.815,0,0,1-.3.324.765.765,0,0,1-.821,0,.866.866,0,0,1-.3-.339.988.988,0,0,1,0-.919.857.857,0,0,1,.3-.335.761.761,0,0,1,.411-.118A.75.75,0,0,1,3006.122,390.83Z" transform="translate(-2896.511 -389.236)" fill="#2f318e"/>
        <path id="パス_830" data-name="パス 830" d="M3038.7,390.554a1.237,1.237,0,0,0-.337-.268,1.1,1.1,0,0,0-1.087.058,1.232,1.232,0,0,0-.442.476,1.395,1.395,0,0,0-.006,1.282,1.185,1.185,0,0,0,.436.463,1.142,1.142,0,0,0,1.437-.189,1.327,1.327,0,0,1-.081.525.645.645,0,0,1-.265.272.915.915,0,0,1-.466.11.939.939,0,0,1-.469-.108.807.807,0,0,1-.305-.331l-.015-.029h-.424l.032.075a1.47,1.47,0,0,0,.274.447,1.07,1.07,0,0,0,.389.247,1.484,1.484,0,0,0,.532.091,1.263,1.263,0,0,0,.7-.187,1,1,0,0,0,.411-.537,2.462,2.462,0,0,0,.084-.756v-1.965h-.393Zm-.09.451a1,1,0,0,1,.1.459.9.9,0,0,1-.225.635.856.856,0,0,1-1.188,0,.862.862,0,0,1-.23-.615.972.972,0,0,1,.112-.459.837.837,0,0,1,.306-.33.8.8,0,0,1,.422-.119.766.766,0,0,1,.406.115A.789.789,0,0,1,3038.614,391.005Z" transform="translate(-2925.952 -389.244)" fill="#2f318e"/>
        <path id="パス_831" data-name="パス 831" d="M3068.574,380.016a.323.323,0,0,0,0,.433.274.274,0,0,0,.41,0,.323.323,0,0,0,0-.433A.275.275,0,0,0,3068.574,380.016Z" transform="translate(-2954.895 -379.924)" fill="#2f318e"/>
        <rect id="長方形_1322" data-name="長方形 1322" width="0.393" height="2.506" transform="translate(113.688 0.987)" fill="#2f318e"/>
        <path id="パス_832" data-name="パス 832" d="M3081.806,390.309a.8.8,0,0,0-.473-.147.933.933,0,0,0-.48.13,1.182,1.182,0,0,0-.3.257v-.325h-.393v2.506h.393V391.8a3.433,3.433,0,0,1,.039-.64.83.83,0,0,1,.254-.431.615.615,0,0,1,.427-.171.5.5,0,0,1,.332.107.573.573,0,0,1,.172.329,2.994,2.994,0,0,1,.031.541v1.2h.393v-1.288a2.111,2.111,0,0,0-.1-.741A.857.857,0,0,0,3081.806,390.309Z" transform="translate(-2965.513 -389.236)" fill="#2f318e"/>
        <path id="パス_833" data-name="パス 833" d="M3110.054,390.554a1.231,1.231,0,0,0-.336-.268,1.1,1.1,0,0,0-1.087.058,1.237,1.237,0,0,0-.443.476,1.367,1.367,0,0,0-.159.646,1.34,1.34,0,0,0,.153.636,1.183,1.183,0,0,0,.436.463,1.15,1.15,0,0,0,1.121.048,1.138,1.138,0,0,0,.315-.237,1.321,1.321,0,0,1-.08.525.645.645,0,0,1-.265.272.913.913,0,0,1-.465.11.937.937,0,0,1-.469-.108.8.8,0,0,1-.305-.331l-.016-.029h-.424l.032.075a1.461,1.461,0,0,0,.274.447,1.07,1.07,0,0,0,.389.247,1.483,1.483,0,0,0,.532.091,1.264,1.264,0,0,0,.7-.187,1,1,0,0,0,.411-.537,2.445,2.445,0,0,0,.084-.756v-1.965h-.393Zm-.089.451a.992.992,0,0,1,.1.459.9.9,0,0,1-.225.635.857.857,0,0,1-1.189,0,.864.864,0,0,1-.229-.615.964.964,0,0,1,.113-.459.833.833,0,0,1,.306-.33.8.8,0,0,1,.422-.119.769.769,0,0,1,.406.115A.792.792,0,0,1,3109.965,391.005Z" transform="translate(-2990.864 -389.244)" fill="#2f318e"/>
        <path id="パス_834" data-name="パス 834" d="M3153.773,382.832a3.754,3.754,0,0,0,.481-.665,1.193,1.193,0,0,0,.128-.542,1.052,1.052,0,0,0-.269-.717.907.907,0,0,0-.709-.307.975.975,0,0,0-.742.325,1.223,1.223,0,0,0-.311.823v.055h.393l0-.05a.885.885,0,0,1,.2-.549.567.567,0,0,1,.438-.19.558.558,0,0,1,.423.181.6.6,0,0,1,.173.434.81.81,0,0,1-.1.386,3.959,3.959,0,0,1-.447.59l-1.221,1.428h2.207v-.421h-1.32Z" transform="translate(-3031.063 -380.541)" fill="#2f318e"/>
        <path id="パス_835" data-name="パス 835" d="M3183.955,380.795a.9.9,0,0,0-.561-.193.883.883,0,0,0-.553.192,1.2,1.2,0,0,0-.377.555,3.945,3.945,0,0,0,0,2.02,1.211,1.211,0,0,0,.378.556.879.879,0,0,0,.55.19.9.9,0,0,0,.563-.2,1.257,1.257,0,0,0,.391-.569,3.576,3.576,0,0,0,0-1.987A1.258,1.258,0,0,0,3183.955,380.795Zm-.891,2.786a.839.839,0,0,1-.251-.4,2.852,2.852,0,0,1-.087-.814,2.8,2.8,0,0,1,.089-.816.847.847,0,0,1,.25-.4.5.5,0,0,1,.678,0,.9.9,0,0,1,.259.431,2.646,2.646,0,0,1,.1.785,2.675,2.675,0,0,1-.109.818.824.824,0,0,1-.246.4A.5.5,0,0,1,3183.064,383.581Z" transform="translate(-3058.464 -380.541)" fill="#2f318e"/>
        <path id="パス_836" data-name="パス 836" d="M3209.656,382.832a3.745,3.745,0,0,0,.48-.665,1.187,1.187,0,0,0,.128-.542,1.051,1.051,0,0,0-.269-.717.907.907,0,0,0-.71-.307.973.973,0,0,0-.741.325,1.22,1.22,0,0,0-.311.823l0,.055h.393l0-.05a.887.887,0,0,1,.2-.549.566.566,0,0,1,.438-.19.558.558,0,0,1,.423.181.6.6,0,0,1,.173.434.8.8,0,0,1-.1.386,3.929,3.929,0,0,1-.447.59l-1.222,1.428h2.207v-.421h-1.32Z" transform="translate(-3081.902 -380.541)" fill="#2f318e"/>
        <path id="パス_837" data-name="パス 837" d="M3240.357,381.505l-.24.425h.509v2.925h.405v-3.35Z" transform="translate(-3111.031 -381.362)" fill="#2f318e"/>
      </g>
      <g id="グループ_1551" data-name="グループ 1551" transform="translate(284 35.172)">
        <rect id="長方形_1324" data-name="長方形 1324" width="3.772" height="20.633" transform="translate(0 0)" fill="#2f318e"/>
        <path id="パス_856" data-name="パス 856" d="M1902.363,109.328h4.823V126.21h3.853V109.328h4.918v-3.751h-13.595Z" transform="translate(-1894.005 -105.577)" fill="#2f318e"/>
        <path id="パス_857" data-name="パス 857" d="M2103.817,126.21h10.9v-3.737h-7.124v-5.259h7.124v-3.656h-7.124V109.3h7.124v-3.724h-10.9Z" transform="translate(-2077.279 -105.577)" fill="#2f318e"/>
        <path id="パス_860" data-name="パス 860" d="M2292.089,126.23l-.038-20.653h-3.7l-4.626,13.939-4.626-13.939h-3.7l-.038,20.653h3.7l-.1-9.56,3.071,9.54h3.369l3.071-9.54-.1,9.56Z" transform="translate(-2233.34 -105.577)" fill="#2f318e"/>
      </g>
      <g id="グループ_1550" data-name="グループ 1550" transform="translate(356.583 35)">
        <path id="パス_858" data-name="パス 858" d="M2808.979,104.752a6.54,6.54,0,0,0-3.765-1.074,6.038,6.038,0,0,0-5.252,2.718q-1.7,2.474-1.7,7.977a16.714,16.714,0,0,0,.868,6.075,6.822,6.822,0,0,0,2.4,3.18,6.561,6.561,0,0,0,3.786,1.047,6.335,6.335,0,0,0,3.731-1.04,6.956,6.956,0,0,0,2.354-3.255,17.43,17.43,0,0,0,.875-6.2,17.478,17.478,0,0,0-.862-6.149A6.806,6.806,0,0,0,2808.979,104.752Zm-1.483,15.017a2.465,2.465,0,0,1-2.194,1.373,2.678,2.678,0,0,1-2.335-1.447q-.9-1.447-.9-5.239a18.681,18.681,0,0,1,.393-4.417,4.009,4.009,0,0,1,1.137-2.127,2.6,2.6,0,0,1,1.706-.618,2.623,2.623,0,0,1,2.295,1.495q.887,1.5.887,5.436Q2808.484,118.11,2807.5,119.768Z" transform="translate(-2781.64 -103.678)" fill="#df4c44"/>
        <path id="パス_859" data-name="パス 859" d="M3165.1,109.24l-2.2,3.574h4.111V129.23h3.772V109.24Z" transform="translate(-3113.364 -108.737)" fill="#df4c44"/>
        <path id="パス_861" data-name="パス 861" d="M2627.347,120.652h-7.113l2.239-2.365a20.861,20.861,0,0,0,3.7-4.852,8.719,8.719,0,0,0,1.012-3.832,5.829,5.829,0,0,0-.834-2.942,5.753,5.753,0,0,0-2.225-2.215,7.158,7.158,0,0,0-8.033,1.087,7.326,7.326,0,0,0-2.028,5.089h3.7a3.78,3.78,0,0,1,.868-2.473,2.618,2.618,0,0,1,2.036-.911,2.7,2.7,0,0,1,1.974.754,2.567,2.567,0,0,1,.767,1.909,5.374,5.374,0,0,1-.74,2.494,18.066,18.066,0,0,1-2.978,3.649l-5.666,5.787v2.34h13.318Z" transform="translate(-2614.029 -103.678)" fill="#df4c44"/>
        <path id="パス_862" data-name="パス 862" d="M3003.561,120.652h-7.113l2.24-2.365a20.884,20.884,0,0,0,3.7-4.852,8.721,8.721,0,0,0,1.011-3.832,5.832,5.832,0,0,0-.834-2.942,5.745,5.745,0,0,0-2.225-2.215,7.157,7.157,0,0,0-8.032,1.087,7.327,7.327,0,0,0-2.029,5.089h3.7a3.781,3.781,0,0,1,.868-2.473,2.618,2.618,0,0,1,2.035-.911,2.7,2.7,0,0,1,1.974.754,2.567,2.567,0,0,1,.767,1.909,5.377,5.377,0,0,1-.74,2.494,18.052,18.052,0,0,1-2.978,3.649l-5.665,5.787v2.34h13.318Z" transform="translate(-2956.291 -103.678)" fill="#df4c44"/>
      </g>
    </g>
    <g id="グループ_1844" data-name="グループ 1844" transform="translate(-1440.5 -937.671)">
      <path id="パス_838" data-name="パス 838" d="M1878.859,584.37h1.264l-.929-1.868h-1.263Z" transform="translate(-1587.778 -479.067)" fill="#2f318e"/>
      <path id="パス_839" data-name="パス 839" d="M1835.676,542.012h-3.3V539.78h2.752v-1.235h-2.752V537h3.2v-1.293h-7.484V537h3.048v1.541h-2.6v1.235h2.6v2.232h-3.143V543.3h7.686Z" transform="translate(-1542.344 -436.506)" fill="#2f318e"/>
      <path id="パス_840" data-name="パス 840" d="M1809.755,523.081h10.991V511.042h-10.991Zm9.712-10.717v9.4h-8.46v-9.4Z" transform="translate(-1525.755 -414.067)" fill="#2f318e"/>
      <path id="パス_841" data-name="パス 841" d="M2063.935,605.261l1.856,3.422h1.349l-1.856-3.422Z" transform="translate(-1756.996 -499.77)" fill="#2f318e"/>
      <path id="パス_842" data-name="パス 842" d="M1985.245,509.1h-3v.465l-.463-.882h-1.349l.27.5h-1.017l.378-.69h-1.241l-2.4,4.24-.026-.212,1.173-3.755h-3.705v12.24h1.185v-1.367h2.24l-.826-6.589h1.037l.126-.225.391.763-1.181,2.094h.656v1.151h3.1v4.172h1.211v-4.172h2.927v-1.151h.773l-1.665-3.12Zm-5.8,4.344,1.812-3.21,1.711,3.21Zm-.235.415v.806h3.869v-1.012l1.038,1.948h-5.891Zm4.239-3.51-.33.835-.452-.835Zm-8.4-.345h.881l-.719,2.329.77,6.117h-.932Zm4,.288h.833l-.486.85-.391-.749-.639,1.129.4.747-.115.2-.392-.749-.629,1.1Z" transform="translate(-1675.055 -411.752)" fill="#2f318e"/>
      <path id="パス_843" data-name="パス 843" d="M2010.425,608.683h1.349l1.856-3.422h-1.35Z" transform="translate(-1708.316 -499.77)" fill="#2f318e"/>
      <path id="パス_844" data-name="パス 844" d="M2150.627,522.726l-3.656-2.043v-.406h3.656v-1.235h-3.656v-1.656h2.671V516.15h-4.814l.526-1.021h-1.414l-1.769,3.45h1.414l.607-1.194h1.527v1.656h-3.655v1.235h3.655v.435l-3.655,2.043v1.337h-.407v-9.165h9.537V513.59h-10.829v11.837h11.019v-1.336h-.755Zm-4.262-.937,4.1,2.3h-8.2Z" transform="translate(-1826.527 -416.384)" fill="#2f318e"/>
      <path id="パス_845" data-name="パス 845" d="M2303.34,523.79l-.01.116h1.253l.351-4.244h3.275v4.071h1.239v-4.071h3.172v4.244h1.267V511.68h-9.553Zm6.107-8.744v-2.03h3.172v2.03Zm3.172,1.278v2.059h-3.172v-2.059Zm-7.3-1.278.159-2.03h2.735v2.03Zm2.894,1.278v2.059h-3.163l.159-2.059Z" transform="translate(-1974.786 -414.647)" fill="#2f318e"/>
      <path id="パス_846" data-name="パス 846" d="M2477.767,545.791h-8.419V537.3h-1.212v9.766h10.856V537.3h-1.225Z" transform="translate(-2124.719 -437.955)" fill="#2f318e"/>
      <path id="パス_847" data-name="パス 847" d="M2465.448,513.277h5.112v1.541h-2.846v7h6.8v-7h-2.725v-1.541h5V512h-11.342Zm3.451,4.13v-1.354h1.661v1.354Zm0,3.179v-1.958h1.661v1.958Zm2.886-3.179v-1.354h1.54v1.354Zm0,3.179v-1.958h1.54v1.958Z" transform="translate(-2122.274 -414.937)" fill="#2f318e"/>
      <path id="パス_848" data-name="パス 848" d="M2638.855,516.306V514.9l-2.2,1.2-.781-1.63h2.472v-3.508h-3.023l1.322-2.287h-4.577l-2,3.475V511.8l1.023-3.3h-1.249l-2.2,7.09h1.239v5.423h1.184v-8.617h1.122v2.071h1.275l-1.922,1.038V516.9l2.743-1.5.219.467-3.1,1.68v1.366l3.608-1.96.242.5-4.066,2.211v1.365l4.577-2.492.58,1.213H2633.1v1.221h4.134l-2.915-6.131.323-.173,2.962,6.232h1.329l-1.742-3.672Zm-4.853-4.2v1.21h-1.635v-1.21Zm-1.84-1.149.646-1.124h1.764l-.646,1.124Zm4.983,1.149v1.21h-1.958v-1.21Z" transform="translate(-2269.827 -411.752)" fill="#2f318e"/>
      <path id="パス_849" data-name="パス 849" d="M2848.679,536.666l-1.336,2.935h-1.063v1.235h5.016l.188.417h1.342l-1.326-2.875h-1.341l.566,1.223h-2.054l1.322-2.935Z" transform="translate(-2468.737 -437.374)" fill="#2f318e"/>
      <path id="パス_850" data-name="パス 850" d="M2842.605,513.8l2.138-3.551h-1.423l-2.139,3.551Z" transform="translate(-2464.099 -413.344)" fill="#2f318e"/>
      <path id="パス_851" data-name="パス 851" d="M2801.52,517.7l-.906-2.043h-1.3l.214.475h-1.167v1.525h-1.089l-.421,1.263-.86-2.126h-.68v-1.282h.57l.162.518h1.207l-.5-1.633-.014-.12h-.028l-.364-1.165h-1.208l.364,1.165h-.973l2.5-4.776h-1.333l-1.167,2.223-.672-.6,1.364-2.629h-1.333l-1.539,2.951,1.591,1.424-.74,1.408h-.905v1.235h1.807v.836h-.716l-1.138,4.084h1.22l.635-2.276v2.851h1.212v-2.964l.509,1.267h.9l-.383,1.151h1.264l.76-2.282v2.685h4.072V519.75l.256.57h1.326l-1.16-2.616Zm-1.947,1.913v-3.381l.782,1.739h1.28l.738,1.642Z" transform="translate(-2419.578 -411.752)" fill="#2f318e"/>
      <path id="パス_852" data-name="パス 852" d="M2885.554,513.8l-2.139-3.551h-1.422l2.125,3.551Z" transform="translate(-2501.227 -413.344)" fill="#2f318e"/>
      <rect id="長方形_1323" data-name="長方形 1323" width="6.243" height="1.293" transform="translate(390.235 101.118)" fill="#2f318e"/>
      <path id="パス_853" data-name="パス 853" d="M2977.507,588.472h7.929V582.82h-7.929Zm6.69-4.373v3.095h-5.452V584.1Z" transform="translate(-2588.121 -479.357)" fill="#2f318e"/>
      <path id="パス_854" data-name="パス 854" d="M2957.176,512.437v1.658l5.786-4.763,5.825,4.747v-1.657l-5.826-4.748Z" transform="translate(-2569.625 -411.003)" fill="#2f318e"/>
      <path id="パス_855" data-name="パス 855" d="M3134.458,518.517h.27V517.3h-2.509v-1.311H3134v-1.221h-1.781v-.951h1.645v-3.566h-9.723v9.484l-.874,2.87h1.275l.82-2.708,0-1.377h1.23v4.1l3.369-1.136v-1.29l-2.185.734v-2.406h1.063l4.087,4.085h1.76l-1.931-1.924,1.7-.94Zm-1.819-7.02v1.066h-7.272V511.5Zm-3.591,3.267v-.951h1.958v.951Zm1.958,1.221V517.3h-1.958v-1.311Zm.841,3.774-1.244-1.242h3.489Zm-6.481-5.946h2.457v.951h-1.739v1.221h1.739V517.3h-2.457Z" transform="translate(-2720.727 -413.344)" fill="#2f318e"/>
    </g>
  </g>
</svg>