<svg width="329" height="237" xmlns="http://www.w3.org/2000/svg" xmlns:xlink="http://www.w3.org/1999/xlink" overflow="hidden"><defs><clipPath id="clip0"><rect x="420" y="224" width="329" height="237"/></clipPath></defs><g clip-path="url(#clip0)" transform="translate(-420 -224)"><path d="M425 267.001C425 246.013 442.013 229 463.001 229L706.999 229C727.986 229 745 246.013 745 267.001L745 418.999C745 439.987 727.986 457 706.999 457L463.001 457C442.013 457 425 439.987 425 418.999Z" stroke="#FFFFFF" stroke-width="8" stroke-miterlimit="8" fill-rule="evenodd"/><path d="M431 269.501C431 249.342 447.342 233 467.501 233L701.499 233C721.658 233 738 249.342 738 269.501L738 415.501C738 435.66 721.658 452.002 701.499 452.002L467.501 452.002C447.342 452.002 431 435.66 431 415.501Z" stroke="#FFFFFF" stroke-width="8" stroke-miterlimit="8" fill-rule="evenodd"/><path d="M552 286 650 342.5 552 399Z" fill="#FFFFFF" fill-rule="evenodd"/></g></svg>