<?xml version="1.0" encoding="utf-8"?>
<!-- Generator: Adobe Illustrator 24.2.0, SVG Export Plug-In . SVG Version: 6.00 Build 0)  -->
<svg version="1.1" id="Layer_1" xmlns="http://www.w3.org/2000/svg" xmlns:xlink="http://www.w3.org/1999/xlink" x="0px" y="0px"
	 viewBox="0 0 100 100" style="enable-background:new 0 0 100 100;" xml:space="preserve">
<style type="text/css">
	.st0{fill:#FFFFFF;}
</style>
<g>
	<path class="st0" d="M83.5,66.5l-5.3-5.3V37.5c0-14.3-10.8-26.3-25-27.9V6.3c0-1.7-1.4-3.1-3.1-3.1c-1.7,0-3.1,1.4-3.1,3.1v3.3
		c-14.2,1.6-25,13.6-25,27.9v23.7l-5.3,5.3c-0.6,0.6-0.9,1.4-0.9,2.2v12.5c0,1.7,1.4,3.1,3.1,3.1h15.9c1.7,8.5,10,13.9,18.4,12.2
		c6.1-1.2,11-6.1,12.2-12.2h15.9c1.7,0,3.1-1.4,3.1-3.1V68.8C84.4,67.9,84.1,67.1,83.5,66.5z M50,90.6c-4,0-7.5-2.5-8.8-6.3h17.6
		C57.5,88.1,54,90.6,50,90.6z M78.1,78.1H21.9V70l4.4-4.4h33.1c1.7,0,3.1-1.4,3.1-3.1c0-1.7-1.4-3.1-3.1-3.1H28.1V37.5
		c0-12.1,9.8-21.9,21.9-21.9s21.9,9.8,21.9,21.9v25c0,0.8,0.3,1.6,0.9,2.2l5.3,5.3V78.1z"/>
</g>
</svg>
