<?xml version="1.0" encoding="utf-8"?>
<!-- Generator: Adobe Illustrator 24.2.0, SVG Export Plug-In . SVG Version: 6.00 Build 0)  -->
<svg version="1.1" id="Layer_1" xmlns="http://www.w3.org/2000/svg" xmlns:xlink="http://www.w3.org/1999/xlink" x="0px" y="0px"
	 viewBox="0 0 100 100" style="enable-background:new 0 0 100 100;" xml:space="preserve">
<style type="text/css">
	.st0{fill:#FFFFFF;}
</style>
<path class="st0" d="z"/>
<g>
	<path class="st0" d="M62.1,27.5c1.9-1.8,2.9-4,2.9-6.6c0-2.6-1-4.8-2.9-6.6c-1.9-1.8-4.3-2.8-7-2.8c-2.7,0-5.1,0.9-7.1,2.8
		c-1.9,1.8-2.9,4-2.9,6.6c0,2.6,1,4.8,2.9,6.6c2,1.8,4.3,2.7,7.1,2.7C57.8,30.2,60.1,29.3,62.1,27.5z M57.6,88.1
		c3.5-1.6,5.4-4.7,3.6-6.2c-1.1-0.8-2.4,0.5-3.4,0.5c-2.2,0-3.7-0.4-4.6-1.1c-0.9-0.7-1.3-2-1.3-4c0-0.8,0.1-1.9,0.4-3.5
		c0.3-1.5,0.6-2.9,0.9-4.1L57.3,55c0.4-1.4,0.7-2.9,0.8-4.5c0.1-1.6,0.2-2.8,0.2-3.4c0-3.1-1.1-5.7-3.3-7.6
		c-2.2-1.9-5.3-2.9-9.3-2.9c-2.2,0-4.6,0.3-7.1,1.2c-4.9,1.7-3.8,6-2.7,6c2.2,0,3.7,0.4,4.5,1.1c0.8,0.7,1.2,2.1,1.2,4
		c0,1-0.1,2.2-0.4,3.5c-0.3,1.3-0.6,2.6-0.9,4l-4.2,14.9c-0.4,1.6-0.6,3-0.8,4.2c-0.2,1.2-0.2,2.5-0.2,3.6c0,3,1.1,5.6,3.4,7.6
		c2.3,2,5.7,3.8,9.8,3.8C50.8,90.5,54.5,89.5,57.6,88.1z"/>
</g>
<path class="st0" d="z"/>
</svg>
