<?xml version="1.0" encoding="utf-8"?>
<!-- Generator: Adobe Illustrator 24.2.0, SVG Export Plug-In . SVG Version: 6.00 Build 0)  -->
<svg version="1.1"
	 id="Layer_1" xmlns:cc="http://creativecommons.org/ns#" xmlns:dc="http://purl.org/dc/elements/1.1/" xmlns:inkscape="http://www.inkscape.org/namespaces/inkscape" xmlns:rdf="http://www.w3.org/1999/02/22-rdf-syntax-ns#" xmlns:sodipodi="http://sodipodi.sourceforge.net/DTD/sodipodi-0.dtd" xmlns:svg="http://www.w3.org/2000/svg"
	 xmlns="http://www.w3.org/2000/svg" xmlns:xlink="http://www.w3.org/1999/xlink" x="0px" y="0px" viewBox="0 0 100 100"
	 style="enable-background:new 0 0 100 100;" xml:space="preserve">
<style type="text/css">
	.st0{fill:#FFFFFF;}
</style>
<g transform="translate(0,-952.36218)">
	<path class="st0" d="M49.8,981.3c-0.7,0-1.3,0.3-1.8,0.8l-40,36c-1.3,1.1-1.4,3-0.4,4.2c1.1,1.3,3,1.4,4.2,0.4c0,0,0.1-0.1,0.1-0.1
		l38-34.2l38,34.2c1.2,1.1,3.1,1.1,4.2-0.1c1.1-1.2,1.1-3.1-0.1-4.2c0,0-0.1-0.1-0.1-0.1l-40-36C51.4,981.6,50.6,981.3,49.8,981.3z"
		/>
</g>
</svg>
