<?xml version="1.0" encoding="utf-8"?>
<!-- Generator: Adobe Illustrator 24.2.0, SVG Export Plug-In . SVG Version: 6.00 Build 0)  -->
<svg version="1.1" id="Layer_1" xmlns="http://www.w3.org/2000/svg" xmlns:xlink="http://www.w3.org/1999/xlink" x="0px" y="0px"
	 viewBox="0 0 100 100" style="enable-background:new 0 0 100 100;" xml:space="preserve">
<path d="M87.8,49.2c-1.1,0.1-2.2,0.2-3.3,0.3c-4.3,0.4-8.5,0.7-12.8,1.2c-5.8,0.8-11.7,1.1-17.5,1.1c-8.8-0.1-17.5-1-26.1-2.7
	c-6.9-1.3-13.8-2.9-20.2-6c-0.2-0.1-0.3-0.2-0.5-0.3c-0.8-0.3-1.6-0.3-2.1,0.5c0,0,0,0.1-0.1,0.1c-0.3,0.8,0.1,1.7,0.8,2
	c0.5,0.3,1,0.5,1.6,0.7c4.6,2,9.5,3.3,14.4,4c19.6,4.6,39.2,3.5,42.6,3.6c5.9,0,11.9-0.4,17.8-1.1c1.7-0.2,3.5-0.3,5.2-0.4
	c-0.3,0.4-0.7,0.8-1.2,1.1c-0.8,0.5-1.5,1.1-2.2,1.7c-0.4,0.4-0.6,1-0.5,1.5c0.2,0.8,1,0.7,1.7,0.5c0.2,0,0.4-0.1,0.6-0.2
	c2.5-1.4,5-2.6,7.4-4.2s2.2-3.5-0.2-4.8c-0.2-0.1-0.3-0.2-0.5-0.3c-2.4-1.1-4.8-2.2-7.2-3.3c-0.7-0.3-1.5-0.6-2.1,0.2
	c-0.5,0.6-0.2,1.5,0.7,2.2c0.6,0.4,1.2,0.8,1.9,1.1c0.6,0.3,1.3,0.6,1.9,0.9L87.8,49.2z"/>
</svg>
