<svg width="53.5" height="50.51" viewBox="0 0 53.5 50.51" xmlns="http://www.w3.org/2000/svg" xmlns:xlink="http://www.w3.org/1999/xlink" overflow="hidden"><g id="Laag_2"><g id="Laag_3"><path d="M39.98 6.07 52.75 6.07 52.75 49.55 48.03 49.55 48.03 45.96 5.88 45.96 5.88 49.76 0.75 49.76 0.75 6.07 34.9 6.07" stroke="#0767B1" stroke-width="1.5" stroke-linecap="round" stroke-linejoin="round" fill="none" fill-rule="evenodd"/><path d="M39.98 10.27 44.85 10.27 48.75 13.25 48.75 42.17 47.52 42.17 5.26 42.17 5.26 14.38 9.06 10.38 34.9 10.38" stroke="#0767B1" stroke-width="1.5" stroke-linecap="round" stroke-linejoin="round" fill="none" fill-rule="evenodd"/><line x1="5.43" y1="21.45" x2="21.13" y2="21.45" stroke="#0767B1" stroke-width="1.5" stroke-linecap="round" stroke-linejoin="round" fill="none"/><line x1="31.57" y1="21.35" x2="47.62" y2="21.35" stroke="#0767B1" stroke-width="1.5" stroke-linecap="round" stroke-linejoin="round" fill="none"/><path d="M29.06 3.7 29.06 2.38C29.162 1.45195 29.9464 0.749509 30.88 0.75L35.8 0.75C35.8 0.75 37.35 0.69 37.36 2.68 37.36 4.43 37.36 11.01 37.36 11.01 37.36 11.01 37.64 14.27 34.86 14.27 31.79 14.27 27.5 14.36 27.5 14.36 27.5 14.36 27.45 15.99 27.45 18.13" stroke="#0767B1" stroke-width="1.5" stroke-linecap="round" stroke-linejoin="round" fill="none" fill-rule="evenodd"/><path d="M22.77 27.09 24.57 27.09C24.6173 27.0896 24.6603 27.117 24.68 27.16L25.92 30.16 28.15 30.16 29.69 27.1C29.7412 27.0234 29.8279 26.9781 29.92 26.98L31.11 26.98 31.11 18.27 22.77 18.27Z" stroke="#0767B1" stroke-width="1.5" stroke-linecap="round" stroke-linejoin="round" fill="none" fill-rule="evenodd"/><path d="M43.81 39.77 43.81 39.77 43.81 33.72C43.81 33.604 43.716 33.51 43.6 33.51L10.39 33.51C10.274 33.51 10.18 33.604 10.18 33.72L10.18 39.56C10.18 39.676 10.274 39.77 10.39 39.77L12.72 39.77 12.72 40.65 14.25 40.65 14.25 39.77 33.66 39.77C33.776 39.77 33.87 39.676 33.87 39.56L33.87 38.51C33.87 38.394 33.776 38.3 33.66 38.3L12.25 38.3C11.9501 38.3 11.7055 38.0598 11.7 37.76L11.7 35.52C11.7055 35.2202 11.9501 34.9799 12.25 34.98L41.76 34.98C42.0599 34.9799 42.3045 35.2202 42.31 35.52L42.31 37.76C42.3046 38.0598 42.0599 38.3 41.76 38.3L37.16 38.3C37.044 38.3 36.95 38.394 36.95 38.51L36.95 39.56C36.95 39.676 37.044 39.77 37.16 39.77L39.76 39.77 39.76 40.65 41.29 40.65 41.29 39.77 43.81 39.77" fill="#0767B1"/></g></g></svg>