<svg width="47.89" height="55.96" viewBox="0 0 47.89 55.96" xmlns="http://www.w3.org/2000/svg" xmlns:xlink="http://www.w3.org/1999/xlink" overflow="hidden"><g id="Laag_2"><g id="Laag_2-2"><g id="Laag_1-2"><path d="M46.94 32.87C47.14 32.87 47.14 33.01 47.14 33.01 47.14 33.01 47.14 33.71 47.14 33.85 47.1322 33.9257 47.075 33.987 47 34L45.68 34.09 45.68 34.09C45.28 35.27 44.79 35.09 44.79 35.09L43.37 35.16 43.37 35.16C43.7173 35.2217 44.0727 35.2217 44.42 35.16 45.12 35.05 44.65 35.86 44.65 35.86L45.93 41.28C46.3198 43.1327 46.6069 45.0056 46.79 46.89 46.8699 47.6674 46.9099 48.4485 46.91 49.23L46.91 53.18C46.68 53.51 44.62 53.43 44.62 53.43L44.62 54.11C44.62 54.11 44.92 54.7 41.62 55 41.62 55 33.87 55.83 30.87 54.31 30.64 54.2 31.06 54.31 30.87 54.31 30.757 54.3461 30.6386 54.363 30.52 54.36 27.426 54.3597 24.3345 54.1861 21.26 53.84 17.46 53.34 17.26 52.66 17.26 52.66L17.26 35.3C17.14 34.96 17.58 34.48 17.58 34.48L17.91 12.42C17.91 12.09 18.1 12.09 18.1 12.09L18.58 12.09 19.33 12.09C19.53 12.09 19.51 12.3 19.51 12.3L24.11 12.46 24.11 0.93 24.85 0.75 28.72 1 28.72 12.63 32.35 12.74C32.4064 12.7327 32.4636 12.7327 32.52 12.74L33.52 12.68C33.6791 12.6619 33.8243 12.772 33.85 12.93 33.85 12.93 39.12 28.83 39.15 28.93L39.15 28.93 39.15 28.93C39.15 28.93 44.66 30.87 44.85 30.93 44.9437 30.9427 45.0173 31.0163 45.03 31.11 45.03 31.11 45.03 32.11 45.03 32.18 45.0146 32.2288 45.0146 32.2812 45.03 32.33L46.85 32.91" stroke="#0167B0" stroke-width="1.2" stroke-linejoin="round" fill="none"/><line x1="24.1" y1="26.75" x2="24.1" y2="12.43" stroke="#0167B0" stroke-width="1.2" stroke-miterlimit="10" fill="none"/><path d="M28.72 12.63 29.28 26.94 29.77 27.16 34 27.16 44.44 30.76 44.44 30.76 30.92 30.76 24.92 28.43" stroke="#0167B0" stroke-width="1.2" stroke-linejoin="round" fill="none"/><path d="M30.44 45.79 19.26 12.43" stroke="#0167B0" stroke-width="1.2" stroke-miterlimit="10" fill="none"/><path d="M26.89 35.05 30.43 35.34 30.43 35.34C30.83 35.25 31.6 35.46 31.67 33.51 31.67 33.51 31.67 32.51 31.01 32.37L31.01 31.27C31.01 31.27 31.01 30.91 30.92 30.8" stroke="#0167B0" stroke-width="1.2" stroke-miterlimit="10" fill="none"/><line x1="43.37" y1="35.19" x2="30.84" y2="35.28" stroke="#0167B0" stroke-width="1.2" stroke-miterlimit="10" fill="none"/><path d="M30.44 45.79C30.44 45.79 34.28 50.4 39.53 50 42.17 49.81 43.43 49 43.65 48 43.65 48 43.65 48 43.65 48 43.8046 47.0925 43.729 46.1607 43.43 45.29L30.43 45.76" stroke="#0167B0" stroke-width="1.2" stroke-linejoin="round" fill="none"/><line x1="43.43" y1="45.32" x2="41" y2="35.19" stroke="#0167B0" stroke-width="1.2" stroke-miterlimit="10" fill="none"/><line x1="13.61" y1="47.28" x2="0.75" y2="47.28" stroke="#0167B0" stroke-width="1.2" stroke-miterlimit="10" fill="none"/><line x1="13.61" y1="50.16" x2="4.08" y2="50.16" stroke="#0167B0" stroke-width="1.2" stroke-miterlimit="10" fill="none"/><g><path d="M35.47 7.2C35.47 7.47062 35.6894 7.69 35.96 7.69 36.2251 7.69006 36.44 7.4752 36.4401 7.2101 36.4401 7.20674 36.4401 7.20337 36.44 7.2 36.44 5.17149 34.7985 3.52551 32.77 3.52 32.4994 3.52 32.28 3.73938 32.28 4.01 32.2799 4.2751 32.4948 4.49005 32.7599 4.4901 32.7633 4.4901 32.7666 4.49007 32.77 4.49 34.2628 4.49551 35.47 5.7072 35.47 7.2Z" stroke-width="1.2" fill="#0167B0"/><path d="M37.81 7.2C37.81 7.47614 38.0339 7.7 38.31 7.7 38.5861 7.7 38.81 7.47614 38.81 7.2 38.81 3.88629 36.1237 1.2 32.81 1.2 32.5394 1.2 32.32 1.41938 32.32 1.69 32.3199 1.9551 32.5348 2.17005 32.7999 2.1701 32.8033 2.1701 32.8066 2.17007 32.81 2.17 35.5717 2.19732 37.7992 4.43817 37.81 7.2Z" stroke-width="1.2" fill="#0167B0"/><circle cx="33.08" cy="6.64" r="0.9" stroke-width="1.2" fill="#0167B0"/></g></g></g></g></svg>