<svg width="53.82" height="47.93" viewBox="0 0 53.82 47.93" xmlns="http://www.w3.org/2000/svg" xmlns:xlink="http://www.w3.org/1999/xlink" overflow="hidden"><g id="Laag_2"><g id="Laag_3"><circle cx="15.81" cy="28.88" r="4.21" stroke="#0767B1" stroke-width="1.41573" stroke-linejoin="round" fill="none"/><circle cx="38.07" cy="29.03" r="4.21" stroke="#0767B1" stroke-width="1.41573" stroke-linejoin="round" fill="none"/><path d="M29.08 29.72C29.08 34.86 33.18 38.41 38.32 38.41 43.4562 38.41 47.62 34.2463 47.62 29.11 47.62 29.1067 47.62 29.1033 47.62 29.1L53.06 29.1 53.06 47.18 0.77 47.18 0.77 29 6.24 29.09C6.24 34.2318 10.4082 38.4 15.55 38.4 20.69 38.4 24.79 34.68 24.85 29.79" stroke="#0767B1" stroke-width="1.41573" stroke-linejoin="round" fill="none"/><path d="M0.77 29 0.77 10.66C0.77 10.66 0.44 7.51 2.67 6.19" stroke="#0767B1" stroke-width="1.41573" stroke-linejoin="round" fill="none"/><path d="M53.06 29.1 53.06 10.22C53.06 10.22 53.15 7.22 51.38 6.32" stroke="#0767B1" stroke-width="1.41573" stroke-linejoin="round" fill="none"/><line x1="8" y1="5" x2="45.83" y2="5.13" stroke="#0767B1" stroke-width="1.41573" stroke-linejoin="round" fill="none"/><line x1="6.47" y1="29.1" x2="11.57" y2="29.1" stroke="#0767B1" stroke-width="1.41573" stroke-linejoin="round" fill="none"/><line x1="52.88" y1="29.08" x2="42.33" y2="29.03" stroke="#0767B1" stroke-width="1.41573" stroke-linejoin="round" fill="none"/><path d="M5.2 47.18 5.2 43.1 27.98 43.1 27.98 47.18" stroke="#0767B1" stroke-width="1.41573" stroke-linejoin="round" fill="none"/><path d="M32.24 21.5 47.7 3.17C48.26 2.52 48.56 1.91 49.79 1.87 51.0334 1.77006 52.1461 2.63934 52.35 3.87 52.4294 4.3399 52.3018 4.82119 52 5.19L35.84 25.13C34.34 26.87 30.74 29.8 27.09 29.8 23.6898 29.7865 20.5024 28.1426 18.52 25.38L1.71 5C0.94506 4.09137 0.788214 2.817 1.31 1.75 1.82777 0.831326 2.96987 0.472505 3.92 0.93 4.40539 1.12042 4.83277 1.43406 5.16 1.84L21.25 20.45" stroke="#0767B1" stroke-width="1.41573" stroke-linejoin="round" fill="none" fill-rule="evenodd"/><circle cx="27.13" cy="16.96" r="6.84" stroke="#0767B1" stroke-width="1.41573" stroke-linejoin="round" fill="none"/></g></g></svg>