<svg width="56.12" height="57.21" viewBox="0 0 56.12 57.21" xmlns="http://www.w3.org/2000/svg" xmlns:xlink="http://www.w3.org/1999/xlink" overflow="hidden"><g id="Laag_2"><g id="Laag_2-2"><g><line x1="23.17" y1="21.24" x2="23.17" y2="0.75" stroke="#0767B1" stroke-width="1.5" stroke-linecap="round" stroke-miterlimit="10" fill="none"/><line x1="32.75" y1="21.24" x2="32.75" y2="0.75" stroke="#0767B1" stroke-width="1.5" stroke-linecap="round" stroke-miterlimit="10" fill="none"/></g><g><path d="M34.06 21.44 21.86 21.44C21.015 21.4398 20.3299 22.1247 20.3297 22.9697 20.3297 22.9798 20.3298 22.9899 20.33 23L20.33 35.2C20.3245 36.045 21.005 36.7344 21.85 36.74 21.8533 36.74 21.8567 36.74 21.86 36.74L34.06 36.74C34.9105 36.74 35.6 36.0505 35.6 35.2L35.6 23C35.611 22.1496 34.9306 21.4512 34.0801 21.4401 34.0734 21.44 34.0667 21.44 34.06 21.44ZM28 33.84C25.3711 33.84 23.24 31.7089 23.24 29.08 23.24 26.4511 25.3711 24.32 28 24.32 30.6289 24.32 32.76 26.4511 32.76 29.08 32.76 31.7089 30.6289 33.84 28 33.84Z" stroke="#0767B1" stroke-width="1.5" stroke-miterlimit="10" fill="none"/><circle cx="27.96" cy="29.08" r="1.09" stroke="#0767B1" stroke-width="1.5" stroke-miterlimit="10" fill="none"/></g><path d="M52.13 28.25 44.35 28.25C44.1256 28.2494 43.9089 28.1678 43.74 28.02L42.26 26.78C42.1755 26.7101 42.0696 26.6713 41.96 26.67L35.8 26.67M52.13 29.91 44.35 29.91C44.1256 29.9106 43.9089 29.9922 43.74 30.14L42.26 31.38C42.1755 31.4499 42.0696 31.4887 41.96 31.49L35.8 31.49M53.8 27.49C52.9053 27.49 52.18 28.2153 52.18 29.11 52.18 30.0047 52.9053 30.73 53.8 30.73 54.6947 30.73 55.42 30.0047 55.42 29.11 55.4427 28.2211 54.7406 27.4821 53.8517 27.4594 53.8178 27.4585 53.7839 27.4587 53.75 27.46Z" stroke="#0767B1" stroke-width="1.5" stroke-linejoin="round" fill="none"/><path d="M20.33 26.67 14.16 26.67C14.0504 26.6713 13.9445 26.7101 13.86 26.78L12.38 28C12.2111 28.1478 11.9944 28.2294 11.77 28.23L4 28.23M20.34 31.47 14.16 31.47C14.0504 31.4687 13.9445 31.4299 13.86 31.36L12.38 30.12C12.2111 29.9722 11.9944 29.8906 11.77 29.89L4 29.89M0.75 29.08C0.75 29.9747 1.4753 30.7 2.37 30.7 3.2647 30.7 3.99 29.9747 3.99 29.08 3.99 28.1853 3.2647 27.46 2.37 27.46 1.4753 27.46 0.75 28.1853 0.75 29.08Z" stroke="#0767B1" stroke-width="1.5" stroke-linejoin="round" fill="none"/><path d="M28.8 53.22 28.8 45.45C28.795 45.2264 28.8734 45.0089 29.02 44.84L30.26 43.35C30.3313 43.2664 30.3704 43.1599 30.37 43.05L30.37 36.89M27.13 53.22 27.13 45.45C27.1265 45.2279 27.0491 45.0133 26.91 44.84L25.66 43.35C25.5887 43.2664 25.5496 43.1599 25.55 43.05L25.55 36.89M29.55 54.89C29.5768 53.9957 28.8735 53.249 27.9792 53.2222 27.0849 53.1954 26.3382 53.8987 26.3115 54.793 26.2847 55.6873 26.9879 56.434 27.8822 56.4608 27.9215 56.4619 27.9608 56.4617 28 56.46 28.879 56.4383 29.5803 55.7193 29.58 54.84Z" stroke="#0767B1" stroke-width="1.5" stroke-linejoin="round" fill="none"/></g></g></svg>