<svg width="55.5" height="52.95" viewBox="0 0 55.5 52.95" xmlns="http://www.w3.org/2000/svg" xmlns:xlink="http://www.w3.org/1999/xlink" overflow="hidden"><g id="Laag_2"><g id="Laag_6"><g><rect x="0.75" y="40.03" width="54" height="2.77" stroke="#0767B1" stroke-width="1.5" stroke-linejoin="round" fill="none"/><circle cx="19.22" cy="49.2" r="3" stroke="#0767B1" stroke-width="1.5" stroke-linejoin="round" fill="none"/><circle cx="5.25" cy="49.2" r="3" stroke="#0767B1" stroke-width="1.5" stroke-linejoin="round" fill="none"/><circle cx="34.4" cy="49.2" r="3" stroke="#0767B1" stroke-width="1.5" stroke-linejoin="round" fill="none"/><circle cx="49.76" cy="49.2" r="3" stroke="#0767B1" stroke-width="1.5" stroke-linejoin="round" fill="none"/><path d="M35.39 0 35.39 6.98 34.41 6.98 34.41 13.1 32.26 13.1 32.26 15.57 30.7 15.57 30.7 13.1 28.55 13.1 28.55 6.98 27.57 6.98 27.57 0" stroke="#0767B1" stroke-width="1.5" stroke-linejoin="round" fill="none"/><circle cx="33.93" cy="21.91" r="0.74" fill="#0867B1"/><circle cx="31.44" cy="31.98" r="0.74" fill="#0867B1"/><circle cx="18.32" cy="28.52" r="0.74" fill="#0867B1"/><circle cx="15.9" cy="30.73" r="0.74" fill="#0867B1"/><circle cx="34.78" cy="18.59" r="0.74" fill="#0867B1"/><circle cx="31.47" cy="18.59" r="0.74" fill="#0867B1"/><circle cx="31.47" cy="21.92" r="0.74" fill="#0867B1"/><circle cx="28.99" cy="21.9" r="0.74" fill="#0867B1"/><circle cx="28.15" cy="18.59" r="0.74" fill="#0867B1"/><circle cx="37.22" cy="21.06" r="0.74" fill="#0867B1"/><circle cx="25.71" cy="21.06" r="0.74" fill="#0867B1"/><circle cx="31.48" cy="25.23" r="0.74" fill="#0867B1"/><circle cx="27.37" cy="25.19" r="0.74" fill="#0867B1"/><circle cx="35.6" cy="25.19" r="0.74" fill="#0867B1"/><circle cx="31.48" cy="28.47" r="0.74" fill="#0867B1"/><circle cx="24.86" cy="28.45" r="0.74" fill="#0867B1"/><circle cx="23.29" cy="23.55" r="0.74" fill="#0867B1"/><circle cx="20.76" cy="25.98" r="0.74" fill="#0867B1"/><circle cx="22.47" cy="31.7" r="0.74" fill="#0867B1"/><circle cx="39.76" cy="23.54" r="0.74" fill="#0867B1"/><circle cx="42.08" cy="25.96" r="0.74" fill="#0867B1"/><circle cx="44.64" cy="28.42" r="0.74" fill="#0867B1"/><circle cx="40.5" cy="31.77" r="0.74" fill="#0867B1"/><circle cx="38.04" cy="28.47" r="0.74" fill="#0867B1"/><circle cx="20.65" cy="34.77" r="0.74" fill="#0867B1"/><circle cx="31.44" cy="35.33" r="0.74" fill="#0867B1"/><circle cx="42.55" cy="34.63" r="0.74" fill="#0867B1"/><circle cx="47.44" cy="31.15" r="0.74" fill="#0867B1"/><circle cx="13.37" cy="33.48" r="0.74" fill="#0867B1"/><circle cx="49.79" cy="33.76" r="0.74" fill="#0867B1"/></g></g></g></svg>