<svg viewBox="0 0 60 60" xmlns="http://www.w3.org/2000/svg" xmlns:xlink="http://www.w3.org/1999/xlink" id="Laag_1" overflow="hidden"><defs></defs><path d="M50.53 41.09C53.34 41 57.22 41 57.22 41" stroke="#0167B1" stroke-width="2.00004" stroke-miterlimit="10" fill="none"/><path d="M41.41 11.45 41.41 13.94 38.77 13.94 38.77 11.55 20.94 11.55 20.94 12.9C19.3667 12.8327 17.7908 12.9366 16.24 13.21 14.64 13.6 10.85 16.11 8.67 16.21L2.35 16.52 2.35 45.52 6.28 45.52C7.22148 45.4115 8.1753 45.5175 9.07 45.83 10.53 46.35 15.81 48.42 16.12 48.42L20.94 48.42 20.94 50.08 38.77 50.08 38.77 47.18 41.41 47.18 41.41 50 57.47 50 57.47 11.45Z" stroke="#0167B1" stroke-width="2.00004" stroke-linejoin="round" fill="none"/><path d="M40.14 17.48 40.14 20.67 32.26 20.67 32.26 26.89 11.33 26.89 11.33 33.94 32.06 33.94 32.06 41.09 39.93 41.09 39.91 43.75" stroke="#0167B1" stroke-width="2.00004" stroke-linejoin="round" fill="none"/><path d="M50.53 20.78C53.34 20.73 57.22 20.73 57.22 20.73" stroke="#0167B1" stroke-width="2.00004" stroke-miterlimit="10" fill="none"/><path d="M50.63 26.17C53.45 26.11 57.32 26.11 57.32 26.11" stroke="#0167B1" stroke-width="2.00004" stroke-miterlimit="10" fill="none"/><path d="M50.53 31.09C53.34 31 57.22 31 57.22 31" stroke="#0167B1" stroke-width="2.00004" stroke-miterlimit="10" fill="none"/><path d="M50.63 36.22C53.45 36.22 57.32 36.22 57.32 36.22" stroke="#0167B1" stroke-width="2.00004" stroke-miterlimit="10" fill="none"/><circle cx="21.04" cy="17.24" r="1.5" stroke="#0167B1" stroke-width="2.00004" fill="none"/><circle cx="21.04" cy="22.08" r="1.5" stroke="#0167B1" stroke-width="2.00004" fill="none"/><circle cx="21.04" cy="38.92" r="1.5" stroke="#0167B1" stroke-width="2.00004" fill="none"/><circle cx="21.04" cy="43.76" r="1.5" stroke="#0167B1" stroke-width="2.00004" fill="none"/><circle cx="46.53" cy="20.59" r="1.5" stroke="#0167B1" stroke-width="2.00004" fill="none"/><circle cx="46.53" cy="26.17" r="1.5" stroke="#0167B1" stroke-width="2.00004" fill="none"/><circle cx="46.53" cy="31.1" r="1.5" stroke="#0167B1" stroke-width="2.00004" fill="none"/><circle cx="46.53" cy="36.13" r="1.5" stroke="#0167B1" stroke-width="2.00004" fill="none"/><circle cx="46.53" cy="40.97" r="1.5" stroke="#0167B1" stroke-width="2.00004" fill="none"/></svg>