<svg width="55.16" height="57.26" viewBox="0 0 55.16 57.26" xmlns="http://www.w3.org/2000/svg" xmlns:xlink="http://www.w3.org/1999/xlink" overflow="hidden"><g id="Laag_2"><g id="Laag_3"><path d="M27.64 9.66C17.6989 9.66 9.64 17.7189 9.64 27.66 9.64 37.6011 17.6989 45.66 27.64 45.66 37.5811 45.66 45.64 37.6011 45.64 27.66 45.64 17.7189 37.5811 9.66 27.64 9.66ZM27.64 34.32C23.9342 34.3255 20.9255 31.3258 20.92 27.62 20.9145 23.9142 23.9142 20.9055 27.62 20.9 31.3258 20.8945 34.3345 23.8942 34.34 27.6 34.34 27.6067 34.34 27.6133 34.34 27.62 34.34 31.3203 31.3403 34.32 27.64 34.32Z" stroke="#0767B1" stroke-width="1.5" stroke-linejoin="round" fill="none" fill-rule="evenodd"/><circle cx="27.68" cy="27.62" r="4.56" stroke="#0767B1" stroke-linejoin="round" fill="none"/><circle cx="27.68" cy="27.62" r="1.71" stroke="#0767B1" stroke-linejoin="round" fill="none"/><rect x="16.54" y="48.42" width="23.75" height="6.04" stroke="#0767B1" stroke-width="1.5" stroke-linejoin="round" fill="none"/><path d="M0 39.08 1.66 37.52 15.28 44.73 0 39.08Z" fill="#0767B1" fill-rule="evenodd"/><path d="M0.68 42.1 8.37 43.66 0.2 44.24 0.68 42.1Z" fill="#0767B1" fill-rule="evenodd"/><path d="M5.65 44.92 14.31 45.41 4.58 46.48 5.65 44.92Z" fill="#0767B1" fill-rule="evenodd"/><path d="M10.12 47.94 10.9 49.59 16.36 46.19 10.12 47.94Z" fill="#0767B1" fill-rule="evenodd"/><path d="M54.41 27.54C54.41 12.7443 42.4157 0.750001 27.62 0.750001 12.8243 0.750001 0.829999 12.7443 0.829999 27.54 0.83 27.54 5.98 27.79 5.98 27.64 5.72251 15.6361 15.2449 5.69626 27.2488 5.43876 39.2527 5.18127 49.1925 14.7036 49.45 26.7075 49.4567 27.0183 49.4567 27.3292 49.45 27.64Z" stroke="#0767B1" stroke-width="1.5" stroke-linejoin="round" fill="none" fill-rule="evenodd"/><line x1="11.65" y1="56.51" x2="45.18" y2="56.51" stroke="#0767B1" stroke-width="1.5" stroke-linecap="round" stroke-miterlimit="10" fill="none"/></g></g></svg>