<svg width="58.75" height="58.75" viewBox="0 0 58.75 58.75" xmlns="http://www.w3.org/2000/svg" xmlns:xlink="http://www.w3.org/1999/xlink" overflow="hidden"><g id="Laag_2"><g id="Laag_2-2"><g id="Laag_1-2"><rect x="17.86" y="18.23" width="5" height="5" stroke="#0767B1" stroke-width="0.75" stroke-miterlimit="10" fill="none"/><rect x="11.82" y="18.23" width="5" height="5" stroke="#0767B1" stroke-width="0.75" stroke-miterlimit="10" fill="none"/><rect x="5.79" y="18.23" width="5" height="5" stroke="#0767B1" stroke-width="0.75" stroke-miterlimit="10" fill="none"/><rect x="42" y="18.23" width="5" height="5" stroke="#0767B1" stroke-width="0.75" stroke-miterlimit="10" fill="none"/><rect x="48.04" y="18.23" width="5" height="5" stroke="#0767B1" stroke-width="0.75" stroke-miterlimit="10" fill="none"/><rect x="23.9" y="18.23" width="5" height="5" stroke="#0767B1" stroke-width="0.75" stroke-miterlimit="10" fill="none"/><rect x="29.93" y="18.23" width="5" height="5" stroke="#0767B1" stroke-width="0.75" stroke-miterlimit="10" fill="none"/><rect x="35.97" y="18.23" width="5" height="5" stroke="#0767B1" stroke-width="0.75" stroke-miterlimit="10" fill="none"/><rect x="17.86" y="24.1" width="5" height="5" stroke="#0767B1" stroke-width="0.75" stroke-miterlimit="10" fill="none"/><rect x="11.82" y="24.1" width="5" height="5" stroke="#0767B1" stroke-width="0.75" stroke-miterlimit="10" fill="none"/><rect x="5.79" y="24.1" width="5" height="5" stroke="#0767B1" stroke-width="0.75" stroke-miterlimit="10" fill="none"/><rect x="42" y="24.1" width="5" height="5" stroke="#0767B1" stroke-width="0.75" stroke-miterlimit="10" fill="none"/><rect x="48.04" y="24.1" width="5" height="5" stroke="#0767B1" stroke-width="0.75" stroke-miterlimit="10" fill="none"/><rect x="23.9" y="24.1" width="5" height="5" stroke="#0767B1" stroke-width="0.75" stroke-miterlimit="10" fill="none"/><rect x="29.93" y="24.1" width="5" height="5" stroke="#0767B1" stroke-width="0.75" stroke-miterlimit="10" fill="none"/><rect x="35.97" y="24.1" width="5" height="5" stroke="#0767B1" stroke-width="0.75" stroke-miterlimit="10" fill="none"/><rect x="17.86" y="29.89" width="5" height="5" stroke="#0767B1" stroke-width="0.75" stroke-miterlimit="10" fill="none"/><rect x="11.82" y="29.89" width="5" height="5" stroke="#0767B1" stroke-width="0.75" stroke-miterlimit="10" fill="none"/><rect x="5.79" y="29.89" width="5" height="5" stroke="#0767B1" stroke-width="0.75" stroke-miterlimit="10" fill="none"/><rect x="42" y="29.89" width="5" height="5" stroke="#0767B1" stroke-width="0.75" stroke-miterlimit="10" fill="none"/><rect x="48.04" y="29.89" width="5" height="5" stroke="#0767B1" stroke-width="0.75" stroke-miterlimit="10" fill="none"/><rect x="23.9" y="29.89" width="5" height="5" stroke="#0767B1" stroke-width="0.75" stroke-miterlimit="10" fill="none"/><rect x="29.93" y="29.89" width="5" height="5" stroke="#0767B1" stroke-width="0.75" stroke-miterlimit="10" fill="none"/><rect x="35.97" y="29.89" width="5" height="5" stroke="#0767B1" stroke-width="0.75" stroke-miterlimit="10" fill="none"/><rect x="17.86" y="18.23" width="5" height="5" stroke="#0767B1" stroke-width="0.75" stroke-miterlimit="10" fill="none"/><rect x="11.82" y="18.23" width="5" height="5" stroke="#0767B1" stroke-width="0.75" stroke-miterlimit="10" fill="none"/><rect x="5.79" y="18.23" width="5" height="5" stroke="#0767B1" stroke-width="0.75" stroke-miterlimit="10" fill="none"/><rect x="42" y="18.23" width="5" height="5" stroke="#0767B1" stroke-width="0.75" stroke-miterlimit="10" fill="none"/><rect x="48.04" y="18.23" width="5" height="5" stroke="#0767B1" stroke-width="0.75" stroke-miterlimit="10" fill="none"/><rect x="23.9" y="18.23" width="5" height="5" stroke="#0767B1" stroke-width="0.75" stroke-miterlimit="10" fill="none"/><rect x="29.93" y="18.23" width="5" height="5" stroke="#0767B1" stroke-width="0.75" stroke-miterlimit="10" fill="none"/><rect x="35.97" y="18.23" width="5" height="5" stroke="#0767B1" stroke-width="0.75" stroke-miterlimit="10" fill="none"/><rect x="17.86" y="35.59" width="5" height="5" stroke="#0767B1" stroke-width="0.75" stroke-miterlimit="10" fill="none"/><rect x="11.82" y="35.59" width="5" height="5" stroke="#0767B1" stroke-width="0.75" stroke-miterlimit="10" fill="none"/><rect x="5.79" y="35.59" width="5" height="5" stroke="#0767B1" stroke-width="0.75" stroke-miterlimit="10" fill="none"/><rect x="42" y="35.59" width="5" height="5" stroke="#0767B1" stroke-width="0.75" stroke-miterlimit="10" fill="none"/><rect x="48.04" y="35.59" width="5" height="5" stroke="#0767B1" stroke-width="0.75" stroke-miterlimit="10" fill="none"/><rect x="23.9" y="35.59" width="5" height="5" stroke="#0767B1" stroke-width="0.75" stroke-miterlimit="10" fill="none"/><rect x="29.93" y="35.59" width="5" height="5" stroke="#0767B1" stroke-width="0.75" stroke-miterlimit="10" fill="none"/><rect x="35.97" y="35.59" width="5" height="5" stroke="#0767B1" stroke-width="0.75" stroke-miterlimit="10" fill="none"/><rect x="17.86" y="41.51" width="5" height="5" stroke="#0767B1" stroke-width="0.75" stroke-miterlimit="10" fill="none"/><rect x="11.82" y="41.51" width="5" height="5" stroke="#0767B1" stroke-width="0.75" stroke-miterlimit="10" fill="none"/><rect x="42" y="41.51" width="5" height="5" stroke="#0767B1" stroke-width="0.75" stroke-miterlimit="10" fill="none"/><rect x="23.9" y="41.51" width="5" height="5" stroke="#0767B1" stroke-width="0.75" stroke-miterlimit="10" fill="none"/><rect x="29.93" y="41.51" width="5" height="5" stroke="#0767B1" stroke-width="0.75" stroke-miterlimit="10" fill="none"/><rect x="35.97" y="41.51" width="5" height="5" stroke="#0767B1" stroke-width="0.75" stroke-miterlimit="10" fill="none"/><rect x="17.86" y="47.34" width="5" height="5" stroke="#0767B1" stroke-width="0.75" stroke-miterlimit="10" fill="none"/><rect x="23.9" y="47.34" width="5" height="5" stroke="#0767B1" stroke-width="0.75" stroke-miterlimit="10" fill="none"/><rect x="29.93" y="47.34" width="5" height="5" stroke="#0767B1" stroke-width="0.75" stroke-miterlimit="10" fill="none"/><rect x="35.97" y="47.34" width="5" height="5" stroke="#0767B1" stroke-width="0.75" stroke-miterlimit="10" fill="none"/><rect x="17.86" y="12.39" width="5" height="5" stroke="#0767B1" stroke-width="0.75" stroke-miterlimit="10" fill="none"/><rect x="11.82" y="12.39" width="5" height="5" stroke="#0767B1" stroke-width="0.75" stroke-miterlimit="10" fill="none"/><rect x="42" y="12.39" width="5" height="5" stroke="#0767B1" stroke-width="0.75" stroke-miterlimit="10" fill="none"/><rect x="23.9" y="12.39" width="5" height="5" stroke="#0767B1" stroke-width="0.75" stroke-miterlimit="10" fill="none"/><rect x="29.93" y="12.39" width="5" height="5" stroke="#0767B1" stroke-width="0.75" stroke-miterlimit="10" fill="none"/><rect x="35.97" y="12.39" width="5" height="5" stroke="#0767B1" stroke-width="0.75" stroke-miterlimit="10" fill="none"/><rect x="17.86" y="6.69" width="5" height="5" stroke="#0767B1" stroke-width="0.75" stroke-miterlimit="10" fill="none"/><rect x="23.9" y="6.69" width="5" height="5" stroke="#0767B1" stroke-width="0.75" stroke-miterlimit="10" fill="none"/><rect x="29.93" y="6.69" width="5" height="5" stroke="#0767B1" stroke-width="0.75" stroke-miterlimit="10" fill="none"/><rect x="35.97" y="6.69" width="5" height="5" stroke="#0767B1" stroke-width="0.75" stroke-miterlimit="10" fill="none"/><circle cx="29.38" cy="29.38" r="28.63" stroke="#0767B1" stroke-width="1.5" stroke-linejoin="round" fill="none"/></g></g></g></svg>