<svg viewBox="0 0 58.98 39.8" xmlns="http://www.w3.org/2000/svg" xmlns:xlink="http://www.w3.org/1999/xlink" overflow="hidden"><defs></defs><g id="Laag_2"><g id="Laag_1-2"><path d="M9.66 15.53C12.6423 15.53 15.06 13.1123 15.06 10.13 15.06 7.14766 12.6423 4.73 9.66 4.73 6.67766 4.73 4.26 7.14766 4.26 10.13 4.2655 13.1101 6.67994 15.5245 9.66 15.53ZM50.34 15.53C53.3223 15.53 55.74 13.1123 55.74 10.13 55.74 7.14766 53.3223 4.73 50.34 4.73 47.3577 4.73 44.94 7.14766 44.94 10.13 44.9455 13.1101 47.3599 15.5245 50.34 15.53ZM52.58 19.16 47.18 19.16C45.7513 19.1536 44.3794 19.7189 43.37 20.73 46.8473 22.6248 49.2051 26.0722 49.71 30L55.28 30C56.7712 30 57.98 28.7912 57.98 27.3L57.98 24.6C58.0021 21.6177 55.6024 19.1822 52.6201 19.1601 52.6068 19.16 52.5934 19.16 52.58 19.16ZM29.58 19.9C34.7991 19.9 39.03 15.6691 39.03 10.45 39.03 5.23091 34.7991 1 29.58 1 24.3609 1 20.13 5.23091 20.13 10.45 20.13 15.6691 24.3609 19.9 29.58 19.9ZM36.06 22.6 35.36 22.6C31.7186 24.4075 27.4414 24.4075 23.8 22.6L23.1 22.6C17.7318 22.6 13.38 26.9518 13.38 32.32L13.38 34.75C13.407 36.9479 15.1821 38.723 17.38 38.75L41.68 38.75C43.889 38.7776 45.7021 37.0093 45.7297 34.8003 45.7299 34.7835 45.73 34.7668 45.73 34.75L45.73 32.32C45.7301 26.9713 41.4087 22.6275 36.06 22.6ZM15.61 20.73C14.6006 19.7189 13.2287 19.1536 11.8 19.16L6.4 19.16C3.41766 19.16 1 21.5777 1 24.56L1 27.26C0.977909 28.751 2.1687 29.9776 3.6597 29.9997 3.67313 29.9999 3.68657 30 3.7 30L9.26 30C9.78226 26.0862 12.1415 22.6569 15.61 20.77Z" stroke="#0167B1" stroke-width="2.18521" stroke-miterlimit="10" fill="none"/></g></g></svg>