<svg viewBox="0 0 260.6 136.14" xmlns="http://www.w3.org/2000/svg" xmlns:xlink="http://www.w3.org/1999/xlink" overflow="hidden"><defs></defs><g id="Laag_2"><g id="Laag_1-2"><path d="M252.1 37.41 132.5 3.16C132.123 3.05224 131.732 2.99837 131.34 3 130.927 3.00022 130.516 3.06086 130.12 3.18L8.41 40.06C6.18419 40.7511 4.94009 43.1158 5.63123 45.3416 6.02352 46.605 6.98555 47.6113 8.23 48.06L62 67 62 108.2C61.9901 108.353 61.9901 108.507 62 108.66 62 108.86 62 109.06 62 109.25 62 123.33 98.47 133.14 131.2 133.14 163.93 133.14 200.39 123.33 200.39 109.25 200.39 109.06 200.39 108.86 200.39 108.66 200.39 108.46 200.39 108.35 200.39 108.2L200.39 64.56 214.62 59.33 214.62 75.81C213.34 76.3633 212.494 77.6061 212.45 79 212.461 79.9004 212.84 80.757 213.5 81.37 213.28 81.99 213.05 82.66 212.81 83.37 211.426 87.4164 210.622 91.6382 210.42 95.91 210.42 102.43 214.15 103.4 216.42 103.4 216.91 103.4 217.42 103.4 217.79 103.32 217.98 103.32 218.15 103.32 218.28 103.32 218.41 103.32 218.59 103.32 218.78 103.32 219.18 103.32 219.65 103.4 220.14 103.4 222.36 103.4 226.14 102.4 226.14 95.91 225.934 91.6379 225.126 87.4162 223.74 83.37 223.5 82.62 223.27 81.95 223.05 81.37 223.677 80.7427 224.02 79.8865 224 79 223.963 77.6749 223.192 76.4804 222 75.9L222 56.62 252.44 45.42C254.621 44.5996 255.725 42.1661 254.904 39.9846 254.437 38.7427 253.413 37.7927 252.14 37.42ZM196.15 108.2 196 108.2C196.101 108.524 196.158 108.861 196.17 109.2 196.17 117.74 167.07 128.87 131.17 128.87 95.27 128.87 66.17 117.74 66.17 109.2 66.1787 108.861 66.2325 108.525 66.33 108.2L66.17 108.2 66.17 68.49 127.81 90.22C128.734 90.5529 129.746 90.5529 130.67 90.22L196.13 66.14ZM218.23 77.1C220.23 77.1 221.9 77.93 221.9 78.96 221.9 79.99 220.26 80.83 218.23 80.83 216.2 80.83 214.56 80 214.56 79 214.56 78 216.2 77.1 218.23 77.1ZM223.94 95.91C223.94 100.6 221.85 101.29 220.09 101.29 219.35 101.29 218.67 101.17 218.23 101.17 217.79 101.17 217.11 101.29 216.37 101.29 214.62 101.29 212.52 100.6 212.52 95.91 212.52 92.13 213.89 86.55 215.34 82.45 217.214 83.09 219.246 83.09 221.12 82.45 222.57 86.55 223.94 92.13 223.94 95.91ZM218.59 75 217.88 75C217.484 75.0082 217.089 75.0484 216.7 75.12L216.7 55.32 131.7 44.61C130.833 44.5129 130.209 43.7312 130.306 42.864 130.396 42.0552 131.086 41.4476 131.9 41.46L132.1 41.46 218.5 52.35C219.292 52.4504 219.886 53.122 219.89 53.92L219.89 75.12C219.46 75.0526 219.025 75.0125 218.59 75ZM221.59 52.27C221.04 51.177 219.983 50.4278 218.77 50.27L139.71 40.27 137 40C135.393 39.0417 133.55 38.5532 131.68 38.59 127.58 38.59 124.26 40.66 124.26 43.2 124.26 45.74 127.58 47.82 131.68 47.82 132.915 47.8267 134.143 47.6239 135.31 47.22L138.1 47.57 209.84 56.57 129.23 86.25 9.64 44.1 131.34 7.21 250.94 41.46Z" stroke="#0167B1" stroke-width="4.11499" stroke-miterlimit="10" fill="none"/></g></g></svg>