<svg width="57.1" height="31.78" viewBox="0 0 57.1 31.78" xmlns="http://www.w3.org/2000/svg" xmlns:xlink="http://www.w3.org/1999/xlink" overflow="hidden"><g id="Laag_2"><g id="Laag_6"><path d="M27.05 15.89 23.21 21.62 16.61 21.62 16.61 24.78 6.51 24.78 6.51 29.63M23.21 21.63 16.61 21.63 16.61 24.79 6.51 24.79 6.51 29.64 0.75 29.64 0.75 2.17 6.51 2.17 6.51 7 16.61 7 16.61 10.16 23.21 10.16 27.05 15.89 23.21 10.16 16.61 10.16 16.61 7 6.51 7 6.51 2.17" stroke="#0767B1" stroke-width="1.20909" stroke-linejoin="round" fill="none"/><path d="M56.35 31.03 28.97 31.03 28.93 0.75 56.35 0.75 56.35 31.03Z" stroke="#0767B1" stroke-width="1.20909" stroke-linejoin="round" fill="none"/><path d="M35.51 15.89 35.51 18C35.51 18.07 35.51 18.12 35.61 18.12L54 18.67C54 18.67 56.39 18.67 56.39 19.83L56.39 23.31 55.29 23.31C54.6423 23.2058 54.0941 22.7749 53.84 22.17 53.7896 22.0184 53.6497 21.9145 53.49 21.91L34.33 21.51C33.2275 21.4424 32.3886 20.4938 32.4562 19.3913 32.4572 19.3742 32.4585 19.3571 32.46 19.34L32.46 17.71 29 17.71 29 14.09 32.45 14.09 32.45 12.47C32.354 11.3696 33.1683 10.3998 34.2687 10.3038 34.2858 10.3023 34.3029 10.3011 34.32 10.3L53.48 9.89C53.6397 9.88554 53.7796 9.78163 53.83 9.63 54.0797 9.03586 54.615 8.60992 55.25 8.5L56.35 8.5 56.35 12.13C56.35 13.28 53.96 13.29 53.96 13.29L35.61 13.85C35.5495 13.8553 35.5047 13.9086 35.5099 13.9691 35.5099 13.9694 35.51 13.9697 35.51 13.97L35.51 16.07" stroke="#0767B1" stroke-width="1.20909" stroke-linejoin="round" fill="none"/><circle cx="46.58" cy="11.22" r="0.38" stroke-width="1.20909" fill="#0867B1"/><circle cx="43.81" cy="11.4" r="0.38" stroke-width="1.20909" fill="#0867B1"/><circle cx="45.22" cy="11.38" r="0.38" stroke-width="1.20909" fill="#0867B1"/><circle cx="50.92" cy="10.91" r="0.38" stroke-width="1.20909" fill="#0867B1"/><circle cx="47.5" cy="11.93" r="0.38" stroke-width="1.20909" fill="#0867B1"/><circle cx="49.75" cy="11.56" r="0.38" stroke-width="1.20909" fill="#0867B1"/><circle cx="48.42" cy="11.23" r="0.38" stroke-width="1.20909" fill="#0867B1"/><circle cx="46.14" cy="12.15" r="0.38" stroke-width="1.20909" fill="#0867B1"/><circle cx="44.56" cy="12.3" r="0.38" stroke-width="1.20909" fill="#0867B1"/><circle cx="48.87" cy="12.22" r="0.38" stroke-width="1.20909" fill="#0867B1"/><circle cx="50.74" cy="12.19" r="0.38" stroke-width="1.20909" fill="#0867B1"/><circle cx="54.62" cy="10.94" r="0.38" stroke-width="1.20909" fill="#0867B1"/><circle cx="51.89" cy="11.43" r="0.38" stroke-width="1.20909" fill="#0867B1"/><circle cx="53.17" cy="11.13" r="0.38" stroke-width="1.20909" fill="#0867B1"/><circle cx="55.25" cy="9.89" r="0.38" stroke-width="1.20909" fill="#0867B1"/><circle cx="55.31" cy="11.73" r="0.38" stroke-width="1.20909" fill="#0867B1"/><circle cx="54.15" cy="11.9" r="0.38" stroke-width="1.20909" fill="#0867B1"/><circle cx="52.69" cy="12.25" r="0.38" stroke-width="1.20909" fill="#0867B1"/><circle cx="38.98" cy="12.5" r="0.38" stroke-width="1.20909" fill="#0867B1"/><circle cx="37.15" cy="11.66" r="0.38" stroke-width="1.20909" fill="#0867B1"/><circle cx="42.5" cy="11.31" r="0.38" stroke-width="1.20909" fill="#0867B1"/><circle cx="39.72" cy="11.63" r="0.38" stroke-width="1.20909" fill="#0867B1"/><circle cx="41.77" cy="12.07" r="0.38" stroke-width="1.20909" fill="#0867B1"/><circle cx="40.84" cy="11.33" r="0.38" stroke-width="1.20909" fill="#0867B1"/><circle cx="38.39" cy="11.63" r="0.38" stroke-width="1.20909" fill="#0867B1"/><circle cx="37.92" cy="12.75" r="0.38" stroke-width="1.20909" fill="#0867B1"/><circle cx="40.64" cy="12.51" r="0.38" stroke-width="1.20909" fill="#0867B1"/><circle cx="42.93" cy="12.35" r="0.38" stroke-width="1.20909" fill="#0867B1"/><circle cx="46.39" cy="20.72" r="0.38" stroke-width="1.20909" fill="#0867B1"/><circle cx="43.62" cy="20.55" r="0.38" stroke-width="1.20909" fill="#0867B1"/><circle cx="45.03" cy="20.57" r="0.38" stroke-width="1.20909" fill="#0867B1"/><circle cx="50.73" cy="21.04" r="0.38" stroke-width="1.20909" fill="#0867B1"/><circle cx="47.31" cy="20.02" r="0.38" stroke-width="1.20909" fill="#0867B1"/><circle cx="49.57" cy="20.38" r="0.38" stroke-width="1.20909" fill="#0867B1"/><circle cx="48.23" cy="20.71" r="0.38" stroke-width="1.20909" fill="#0867B1"/><circle cx="45.95" cy="19.8" r="0.38" stroke-width="1.20909" fill="#0867B1"/><circle cx="44.37" cy="19.65" r="0.38" stroke-width="1.20909" fill="#0867B1"/><circle cx="48.69" cy="19.72" r="0.38" stroke-width="1.20909" fill="#0867B1"/><circle cx="50.55" cy="19.75" r="0.38" stroke-width="1.20909" fill="#0867B1"/><circle cx="54.44" cy="21.01" r="0.38" stroke-width="1.20909" fill="#0867B1"/><circle cx="51.71" cy="20.51" r="0.38" stroke-width="1.20909" fill="#0867B1"/><circle cx="52.98" cy="20.81" r="0.38" stroke-width="1.20909" fill="#0867B1"/><circle cx="55.06" cy="22.05" r="0.38" stroke-width="1.20909" fill="#0867B1"/><circle cx="55.12" cy="20.22" r="0.38" stroke-width="1.20909" fill="#0867B1"/><circle cx="53.96" cy="20.05" r="0.38" stroke-width="1.20909" fill="#0867B1"/><circle cx="52.51" cy="19.69" r="0.38" stroke-width="1.20909" fill="#0867B1"/><circle cx="38.79" cy="19.45" r="0.38" stroke-width="1.20909" fill="#0867B1"/><circle cx="36.97" cy="20.28" r="0.38" stroke-width="1.20909" fill="#0867B1"/><circle cx="42.32" cy="20.64" r="0.38" stroke-width="1.20909" fill="#0867B1"/><circle cx="39.53" cy="20.32" r="0.38" stroke-width="1.20909" fill="#0867B1"/><circle cx="41.58" cy="19.87" r="0.38" stroke-width="1.20909" fill="#0867B1"/><circle cx="40.65" cy="20.62" r="0.38" stroke-width="1.20909" fill="#0867B1"/><circle cx="38.2" cy="20.31" r="0.38" stroke-width="1.20909" fill="#0867B1"/><circle cx="37.62" cy="19.46" r="0.38" stroke-width="1.20909" fill="#0867B1"/><circle cx="40.46" cy="19.44" r="0.38" stroke-width="1.20909" fill="#0867B1"/><circle cx="42.75" cy="19.6" r="0.38" stroke-width="1.20909" fill="#0867B1"/><circle cx="33.69" cy="12.74" r="0.38" stroke-width="1.20909" fill="#0867B1"/><circle cx="34.35" cy="13.38" r="0.38" stroke-width="1.20909" fill="#0867B1"/><circle cx="34.3" cy="11.85" r="0.38" stroke-width="1.20909" fill="#0867B1"/><circle cx="36.34" cy="12.3" r="0.38" stroke-width="1.20909" fill="#0867B1"/><circle cx="35.41" cy="11.56" r="0.38" stroke-width="1.20909" fill="#0867B1"/><circle cx="32.5" cy="12.97" r="0.38" stroke-width="1.20909" fill="#0867B1"/><circle cx="35.1" cy="12.59" r="0.38" stroke-width="1.20909" fill="#0867B1"/><circle cx="33.78" cy="19.54" r="0.38" stroke-width="1.20909" fill="#0867B1"/><circle cx="34.63" cy="20.26" r="0.38" stroke-width="1.20909" fill="#0867B1"/><circle cx="34.39" cy="18.66" r="0.38" stroke-width="1.20909" fill="#0867B1"/><circle cx="35.19" cy="19.4" r="0.38" stroke-width="1.20909" fill="#0867B1"/><circle cx="36.33" cy="19.35" r="0.38" stroke-width="1.20909" fill="#0867B1"/><circle cx="35.75" cy="20.34" r="0.38" stroke-width="1.20909" fill="#0867B1"/><circle cx="32.87" cy="15.75" r="0.38" stroke-width="1.20909" fill="#0867B1"/><circle cx="33.53" cy="16.44" r="0.38" stroke-width="1.20909" fill="#0867B1"/><circle cx="33.48" cy="14.86" r="0.38" stroke-width="1.20909" fill="#0867B1"/><circle cx="34.14" cy="15.66" r="0.38" stroke-width="1.20909" fill="#0867B1"/><circle cx="34.21" cy="17.15" r="0.38" stroke-width="1.20909" fill="#0867B1"/><circle cx="33.67" cy="18.02" r="0.38" stroke-width="1.20909" fill="#0867B1"/><circle cx="34.14" cy="14.32" r="0.38" stroke-width="1.20909" fill="#0867B1"/><circle cx="30.29" cy="15.86" r="0.38" stroke-width="1.20909" fill="#0867B1"/><circle cx="31.15" cy="16.42" r="0.38" stroke-width="1.20909" fill="#0867B1"/><circle cx="31.44" cy="15.47" r="0.38" stroke-width="1.20909" fill="#0867B1"/><circle cx="32.12" cy="16.35" r="0.38" stroke-width="1.20909" fill="#0867B1"/></g></g></svg>