<svg viewBox="0 0 60 60" xmlns="http://www.w3.org/2000/svg" xmlns:xlink="http://www.w3.org/1999/xlink" id="Laag_1" overflow="hidden"><defs></defs><path d="M34 45.73 30 52 26 45.71C14.19 46.19 5.17 48.71 5.17 51.81 5.09 55.25 16.24 58 30 58 43.76 58 54.88 55.23 54.88 51.82 54.86 48.76 45.82 46.21 34 45.73Z" stroke="#0167B1" stroke-width="2.58069" stroke-linejoin="round" fill="none"/><path d="M34 45.73 44 30.07C45.73 26.83 47.51 23.51 47.51 19.57 47.5211 9.87741 39.6726 2.01105 29.98 1.99999 29.9634 1.99997 29.9467 1.99997 29.93 2 20.24 2 11.75 9.9 12.38 19.57 12.6319 23.1776 13.7539 26.6705 15.65 29.75L25.92 45.75" stroke="#0167B1" stroke-width="2.58069" stroke-miterlimit="10" fill="none"/><circle cx="30.31" cy="19.09" r="7.48" stroke="#0167B1" stroke-width="2.58069" stroke-miterlimit="10" fill="none"/></svg>