<svg width="47" height="68" xmlns="http://www.w3.org/2000/svg" xmlns:xlink="http://www.w3.org/1999/xlink" overflow="hidden"><defs><clipPath id="clip0"><rect x="390" y="297" width="47" height="68"/></clipPath></defs><g clip-path="url(#clip0)" transform="translate(-390 -297)"><path d="M431.288 346.811C431.288 355.808 423.726 363.104 414.394 363.104 405.063 363.104 397.5 355.789 397.5 346.811 397.516 341.855 399.827 337.184 403.761 334.157 406.795 331.785 410.539 330.497 414.394 330.5 423.726 330.527 431.288 337.814 431.288 346.811Z" stroke="#0167B1" stroke-width="2.69995" stroke-miterlimit="8" fill="none" fill-rule="evenodd"/><path d="M392.5 310.5 403.592 333.62" stroke="#0167B1" stroke-width="2.69995" stroke-miterlimit="8" fill="none" fill-rule="evenodd"/><path d="M435.004 310.5 423.5 333.62" stroke="#0167B1" stroke-width="2.69995" stroke-miterlimit="8" fill="none" fill-rule="evenodd"/><path d="M423.004 307.5 411.5 330.62" stroke="#0167B1" stroke-width="2.69995" stroke-miterlimit="8" fill="none" fill-rule="evenodd"/><path d="M415.9 354.947 413.4 354.947C413.063 354.951 412.786 354.716 412.78 354.422 412.78 354.419 412.78 354.416 412.78 354.413L412.78 344.788C412.775 344.483 412.488 344.24 412.14 344.245 412.011 344.247 411.885 344.284 411.78 344.35L409.5 345.724C409.219 345.903 408.825 345.848 408.62 345.602 408.544 345.51 408.502 345.4 408.5 345.286L408.5 343.353C408.5 343.181 408.597 343.02 408.76 342.924L412.61 340.596C412.716 340.533 412.842 340.5 412.97 340.5L415.97 340.5C416.307 340.495 416.585 340.73 416.59 341.025 416.59 341.025 416.59 341.025 416.59 341.025L416.59 354.413C416.593 354.707 416.322 354.949 415.985 354.951 415.957 354.951 415.929 354.95 415.9 354.947Z" stroke="#0167B1" stroke-width="0.899947" stroke-miterlimit="8" fill="#0167B1" fill-rule="evenodd"/><path d="M400.5 298.5 411.592 321.62" stroke="#0167B1" stroke-width="2.69995" stroke-miterlimit="8" fill="none" fill-rule="evenodd"/></g></svg>