<svg width="58" height="53" xmlns="http://www.w3.org/2000/svg" xmlns:xlink="http://www.w3.org/1999/xlink" overflow="hidden"><defs><clipPath id="clip0"><rect x="582" y="192" width="58" height="53"/></clipPath><clipPath id="clip1"><rect x="583" y="193" width="57" height="51"/></clipPath><clipPath id="clip2"><rect x="587" y="193" width="49" height="51"/></clipPath><clipPath id="clip3"><rect x="587" y="175" width="49" height="69"/></clipPath><clipPath id="clip4"><rect x="587" y="175" width="49" height="69"/></clipPath></defs><g clip-path="url(#clip0)" transform="translate(-582 -192)"><g clip-path="url(#clip1)"><g clip-path="url(#clip2)"><g clip-path="url(#clip3)"><g clip-path="url(#clip4)"><path d="M431.386 346.89C431.386 355.889 423.822 363.186 414.488 363.186 405.155 363.186 397.59 355.87 397.59 346.89 397.606 341.933 399.918 337.26 403.853 334.233 406.887 331.86 410.632 330.572 414.488 330.575 423.822 330.602 431.386 337.891 431.386 346.89Z" stroke="#0167B1" stroke-width="2.70056" stroke-miterlimit="8" fill="none" fill-rule="evenodd" transform="matrix(1.0035 0 0 1 196.398 -121.083)"/><path d="M392.589 310.57 403.684 333.696" stroke="#0167B1" stroke-width="2.70056" stroke-miterlimit="8" fill="none" fill-rule="evenodd" transform="matrix(1.0035 0 0 1 196.398 -121.083)"/><path d="M435.103 310.57 423.596 333.696" stroke="#0167B1" stroke-width="2.70056" stroke-miterlimit="8" fill="none" fill-rule="evenodd" transform="matrix(1.0035 0 0 1 196.398 -121.083)"/><path d="M423.1 307.57 411.593 330.695" stroke="#0167B1" stroke-width="2.70056" stroke-miterlimit="8" fill="none" fill-rule="evenodd" transform="matrix(1.0035 0 0 1 196.398 -121.083)"/><path d="M415.994 355.027 413.494 355.027C413.157 355.031 412.88 354.796 412.874 354.502 412.874 354.499 412.874 354.496 412.874 354.493L412.874 344.866C412.869 344.561 412.582 344.318 412.233 344.323 412.104 344.325 411.978 344.362 411.873 344.428L409.593 345.802C409.312 345.981 408.918 345.926 408.713 345.68 408.637 345.588 408.595 345.478 408.593 345.364L408.593 343.431C408.593 343.259 408.69 343.098 408.853 343.002L412.704 340.673C412.81 340.61 412.936 340.577 413.064 340.577L416.064 340.577C416.401 340.572 416.679 340.807 416.684 341.102 416.684 341.102 416.684 341.102 416.684 341.102L416.684 354.493C416.687 354.787 416.416 355.029 416.079 355.031 416.051 355.031 416.023 355.03 415.994 355.027Z" stroke="#0167B1" stroke-width="0.900151" stroke-miterlimit="8" fill="#0167B1" fill-rule="evenodd" transform="matrix(1.0035 0 0 1 196.398 -121.083)"/><path d="M400.591 298.568 411.685 321.693" stroke="#0167B1" stroke-width="2.70056" stroke-miterlimit="8" fill="none" fill-rule="evenodd" transform="matrix(1.0035 0 0 1 196.398 -121.083)"/></g></g></g></g></g></svg>