<svg width="52.22" height="48.32" viewBox="0 0 52.22 48.32" xmlns="http://www.w3.org/2000/svg" xmlns:xlink="http://www.w3.org/1999/xlink" overflow="hidden"><g id="Laag_2"><g id="Laag_2-2"><path d="M21 0.75 21 41.64C21.0053 41.9526 21.2574 42.2047 21.57 42.21L29.87 42.21C30.3615 42.21 30.76 41.8115 30.76 41.32L30.76 0.75" stroke="#0767B1" stroke-width="1.82456" stroke-miterlimit="10" fill="none"/><path d="M0.75 47.57 36.44 47.57C36.9315 47.57 37.33 47.1715 37.33 46.68L37.33 28.36C37.33 28.1943 37.4643 28.06 37.63 28.06L51.47 28.06" stroke="#0767B1" stroke-width="1.82456" stroke-miterlimit="10" fill="none"/><line x1="6.85" y1="37.82" x2="15.38" y2="42.21" stroke="#0767B1" stroke-width="1.82456" stroke-miterlimit="10" fill="none"/><line x1="12.7" y1="32.45" x2="15.38" y2="36.6" stroke="#0767B1" stroke-width="1.82456" stroke-miterlimit="10" fill="none"/><line x1="20.99" y1="18.67" x2="30.75" y2="23.92" stroke="#0767B1" stroke-width="1.82456" stroke-miterlimit="10" fill="none"/><line x1="20.99" y1="24.83" x2="30.75" y2="30.14" stroke="#0767B1" stroke-width="1.82456" stroke-miterlimit="10" fill="none"/><line x1="20.99" y1="32.45" x2="30.75" y2="37.82" stroke="#0767B1" stroke-width="1.82456" stroke-miterlimit="10" fill="none"/></g></g></svg>