<?xml version="1.0" encoding="utf-8"?>
<!-- Generator: Adobe Illustrator 16.0.0, SVG Export Plug-In . SVG Version: 6.00 Build 0)  -->
<!DOCTYPE svg PUBLIC "-//W3C//DTD SVG 1.1//EN" "http://www.w3.org/Graphics/SVG/1.1/DTD/svg11.dtd">
<svg version="1.1" id="Layer_1" xmlns="http://www.w3.org/2000/svg" xmlns:xlink="http://www.w3.org/1999/xlink" x="0px" y="0px"
	 width="100px" height="100px" viewBox="0 0 100 100" enable-background="new 0 0 100 100" xml:space="preserve">
<path fill="#FFFFFF" d="M1.45,49.7c0,20.6,16.8,37.399,37.4,37.399c17.1,0,24.999-9.899,27.6-13.199c1.601-2.101,1.2-5-0.8-6.601
	c-2.1-1.6-5-1.2-6.6,0.8l0,0c-3.5,4.5-9,9.7-20.2,9.7c-15.5,0-28.101-12.6-28.101-28.1s12.601-28.1,28.101-28.1
	c11.1,0,16.6,5.2,20.2,9.7c0.899,1.2,2.299,1.8,3.699,1.8c1.1,0,2.1-0.3,2.9-1c2.1-1.5,2.4-4.5,0.8-6.5
	c-2.601-3.3-10.5-13.2-27.6-13.2C18.25,12.4,1.45,29.1,1.45,49.7z"/>
<path fill="#FFFFFF" d="M75.95,61.3c-0.8,0.9-1.3,2.101-1.3,3.3c0,1.301,0.5,2.4,1.4,3.301c0.899,0.8,2.1,1.3,3.299,1.3
	c1.201,0,2.4-0.5,3.301-1.4l14.5-14.7c1.8-1.8,1.8-4.8,0-6.6l-14.5-14.7c-1.801-1.8-4.801-1.8-6.6,0c-0.9,0.9-1.4,2.1-1.4,3.3
	c0,1.2,0.5,2.4,1.4,3.3l6.6,6.6h-46.2c-2.6,0-4.7,2.1-4.7,4.7c0,2.6,2.101,4.7,4.7,4.7h46.3L75.95,61.3z"/>
</svg>
