<svg viewBox="0 0 57 56.95" xmlns="http://www.w3.org/2000/svg" xmlns:xlink="http://www.w3.org/1999/xlink" overflow="hidden"><defs></defs><g id="Laag_2"><g id="Laag_2-2"><rect x="8.49" y="8.44" rx="1.94" width="40" height="40" stroke="#0767B1" stroke-width="2" stroke-linecap="round" stroke-linejoin="round" fill="none"/><g><path d="M0 42.94 0 44.21C0.0212492 44.4603 0.239384 44.6473 0.49 44.63L4.93 44.63 4.93 42.52 0.49 42.52C0.239384 42.5027 0.0212492 42.6897 9.53674e-09 42.94Z" fill="#0767B1"/><path d="M0 33.08 0 34.36C0.0210265 34.6076 0.238821 34.7913 0.486458 34.7703 0.487639 34.7702 0.48882 34.7701 0.49 34.77L4.93 34.77 4.93 32.66 0.49 32.66C0.239384 32.6427 0.0212492 32.8297 9.53674e-09 33.08Z" fill="#0767B1"/><path d="M0 23.22 0 24.5C0.0210265 24.7476 0.238821 24.9313 0.486458 24.9103 0.487639 24.9102 0.48882 24.9101 0.49 24.91L4.93 24.91 4.93 22.8 0.49 22.8C0.239384 22.7827 0.0212492 22.9697 9.53674e-09 23.22Z" fill="#0767B1"/><path d="M0 13.36 0 14.64C0.0212492 14.8903 0.239384 15.0773 0.49 15.06L4.93 15.06 4.93 12.94 0.49 12.94C0.239384 12.9227 0.0212492 13.1097 9.53674e-09 13.36Z" fill="#0767B1"/></g><g><path d="M57 42.94 57 44.21C56.9788 44.4603 56.7606 44.6473 56.51 44.63L52.07 44.63 52.07 42.52 56.51 42.52C56.7606 42.5027 56.9787 42.6897 57 42.94Z" fill="#0767B1"/><path d="M57 33.08 57 34.36C56.979 34.6076 56.7612 34.7913 56.5135 34.7703 56.5124 34.7702 56.5112 34.7701 56.51 34.77L52.07 34.77 52.07 32.66 56.51 32.66C56.7606 32.6427 56.9787 32.8297 57 33.08Z" fill="#0767B1"/><path d="M57 23.22 57 24.5C56.979 24.7476 56.7612 24.9313 56.5135 24.9103 56.5124 24.9102 56.5112 24.9101 56.51 24.91L52.07 24.91 52.07 22.8 56.51 22.8C56.7606 22.7827 56.9787 22.9697 57 23.22Z" fill="#0767B1"/><path d="M57 13.36 57 14.64C56.9788 14.8903 56.7606 15.0773 56.51 15.06L52.07 15.06 52.07 12.94 56.51 12.94C56.7606 12.9227 56.9787 13.1097 57 13.36Z" fill="#0767B1"/></g><circle cx="14.43" cy="14.35" r="2.14" stroke="#0767B1" stroke-width="1.5" stroke-miterlimit="10" fill="none"/><g><path d="M42.64 57 43.92 57C44.1703 56.9788 44.3573 56.7606 44.34 56.51L44.34 52 42.23 52 42.23 56.44C42.1688 56.6809 42.3145 56.9257 42.5554 56.9869 42.5831 56.994 42.6114 56.9983 42.64 57Z" fill="#0767B1"/><path d="M32.78 57 34.06 57C34.3103 56.9788 34.4973 56.7606 34.48 56.51L34.48 52 32.37 52 32.37 56.44C32.3088 56.6809 32.4545 56.9257 32.6954 56.9869 32.7231 56.994 32.7514 56.9983 32.78 57Z" fill="#0767B1"/><path d="M22.93 57 24.2 57C24.4503 56.9788 24.6373 56.7606 24.62 56.51L24.62 52 22.51 52 22.51 56.44C22.4491 56.6809 22.595 56.9257 22.836 56.9866 22.8668 56.9944 22.8983 56.9989 22.93 57Z" fill="#0767B1"/><path d="M13.07 57 14.35 57C14.5976 56.979 14.7813 56.7612 14.7603 56.5135 14.7602 56.5124 14.7601 56.5112 14.76 56.51L14.76 52 12.65 52 12.65 56.44C12.5943 56.6879 12.75 56.934 12.9979 56.9897 13.0216 56.995 13.0457 56.9985 13.07 57Z" fill="#0767B1"/></g><g><path d="M42.64 0 43.92 0C44.1703 0.0212492 44.3573 0.239384 44.34 0.49L44.34 4.93 42.23 4.93 42.23 0.49C42.207 0.242537 42.389 0.0232973 42.6365 0.00031482 42.6376 0.00020522 42.6388 0.000100282 42.64 9.55042e-09Z" fill="#0767B1"/><path d="M32.78 0 34.06 0C34.3103 0.0212492 34.4973 0.239384 34.48 0.49L34.48 4.93 32.37 4.93 32.37 0.49C32.347 0.242537 32.529 0.0232973 32.7765 0.00031482 32.7776 0.00020522 32.7788 0.000100282 32.78 9.55042e-09Z" fill="#0767B1"/><path d="M22.93 0 24.2 0C24.4503 0.0212492 24.6373 0.239384 24.62 0.49L24.62 4.93 22.51 4.93 22.51 0.49C22.4874 0.2425 22.6698 0.0235579 22.9173 0.000980119 22.9215 0.000593124 22.9257 0.000266388 22.93 9.48022e-09Z" fill="#0767B1"/><path d="M13.07 0 14.35 0C14.5976 0.0210265 14.7813 0.238821 14.7603 0.486458 14.7602 0.487639 14.7601 0.48882 14.76 0.49L14.76 4.93 12.65 4.93 12.65 0.49C12.6327 0.239384 12.8197 0.0212492 13.07 9.53674e-09Z" fill="#0767B1"/></g></g></g></svg>