<svg width="51.92" height="53.5" viewBox="0 0 51.92 53.5" xmlns="http://www.w3.org/2000/svg" xmlns:xlink="http://www.w3.org/1999/xlink" overflow="hidden"><g id="Laag_2"><g id="Laag_3"><path d="M32.38 39.33 32.38 52.52 51.13 52.52 51.13 39.04" stroke="#0767B1" stroke-width="1.26829" stroke-linejoin="round" fill="none"/><rect x="40.27" y="35.14" width="3.25" height="3.26" stroke-width="1.26829" fill="#0767B1"/><rect x="34.76" y="48.03" width="3.25" height="3.26" stroke-width="1.26829" fill="#0767B1"/><rect x="44.02" y="48.18" width="3.26" height="3.26" stroke-width="1.26829" fill="#0767B1"/><rect x="42.94" y="44.64" width="3.25" height="3.25" stroke-width="1.26829" fill="#0767B1"/></g><g id="Laag_2-2"><g id="Laag_1-2"><circle cx="14.51" cy="38.5" r="1.99" stroke="#0F67B0" stroke-width="1.26829" stroke-miterlimit="10" fill="none"/><line x1="15.94" y1="12.13" x2="19.23" y2="38.13" stroke="#0F67B0" stroke-width="1.26829" stroke-miterlimit="10" fill="none"/><g><path d="M19 38.13C18.6679 35.6447 16.3839 33.8992 13.8987 34.2313 11.8684 34.5026 10.2713 36.0998 10 38.13" stroke="#0F67B0" stroke-width="1.26829" stroke-miterlimit="10" fill="none"/><path d="M22 38.13 19 38.13C19 38.25 19 38.37 19 38.5 19.1176 41.0046 17.1826 43.1304 14.678 43.248 12.1734 43.3657 10.0476 41.4306 9.93 38.926 9.92333 38.7841 9.92333 38.6419 9.93 38.5 9.93 38.37 9.93 38.25 9.93 38.13L6.9 38.13C6.68683 38.1353 6.51527 38.3068 6.51 38.52L6.51 45.21C6.51 45.4254 6.68461 45.6 6.9 45.6L22 45.6C22.2099 45.6001 22.3801 45.43 22.3801 45.2201 22.3801 45.2168 22.3801 45.2134 22.38 45.21L22.38 38.52C22.3801 38.3085 22.2115 38.1354 22 38.13Z" stroke="#0F67B0" stroke-width="1.26829" stroke-miterlimit="10" fill="none"/></g><rect x="0.79" y="45.63" width="27.31" height="3.44" stroke="#0F67B0" stroke-width="1.26829" stroke-miterlimit="10" fill="none"/><line x1="43.53" y1="22.59" x2="43.53" y2="28.29" stroke="#0F67B0" stroke-width="1.26829" stroke-miterlimit="10" fill="none"/><line x1="40.6" y1="22.75" x2="40.6" y2="27.94" stroke="#0F67B0" stroke-width="1.26829" stroke-miterlimit="10" fill="none"/><line x1="17.57" y1="4.08" x2="41.9" y2="14.02" stroke="#0F67B0" stroke-width="1.26829" stroke-miterlimit="10" fill="none"/><line x1="37.59" y1="17.89" x2="17.59" y2="11.58" stroke="#0F67B0" stroke-width="1.26829" stroke-miterlimit="10" fill="none"/><line x1="9.89" y1="37.89" x2="11.34" y2="9.33" stroke="#0F67B0" stroke-width="1.26829" stroke-miterlimit="10" fill="none"/><circle cx="15.41" cy="7.83" r="1.99" stroke="#0F67B0" stroke-width="1.26829" stroke-miterlimit="10" fill="none"/><circle cx="15.41" cy="7.83" r="4.33" stroke="#0F67B0" stroke-width="1.26829" stroke-miterlimit="10" fill="none"/><circle cx="41.9" cy="18.35" r="1.99" stroke="#0F67B0" stroke-width="1.26829" stroke-miterlimit="10" fill="none"/><circle cx="41.9" cy="18.35" r="4.33" stroke="#0F67B0" stroke-width="1.26829" stroke-miterlimit="10" fill="none"/><line x1="18.82" y1="7.16" x2="12.41" y2="7.13" stroke-width="1.26829" fill="none"/><g><path d="M42 4.56C42.2105 4.76844 42.5495 4.76844 42.76 4.56 42.9696 4.34614 42.9696 4.00386 42.76 3.79 41.1575 2.19983 38.5725 2.19983 36.97 3.79 36.7604 4.00386 36.7604 4.34614 36.97 4.56 37.1805 4.76844 37.5195 4.76844 37.73 4.56 38.894 3.38087 40.7934 3.36858 41.9725 4.53255 41.9818 4.54164 41.9909 4.55079 42 4.56Z" stroke-width="1.26829" fill="#0167B0"/><path d="M43.88 2.72C44.0256 2.98026 44.3547 3.07318 44.6149 2.92755 44.8752 2.78192 44.9681 2.45288 44.8225 2.19262 44.7786 2.11423 44.7159 2.04803 44.64 2 42.0218-0.607529 37.7882-0.607529 35.17 2 34.9395 2.1892 34.906 2.52947 35.0952 2.76 35.2844 2.99053 35.6246 3.02404 35.8552 2.83483 35.8825 2.8124 35.9076 2.78733 35.93 2.76 38.1162 0.558257 41.6717 0.540367 43.88 2.72Z" stroke-width="1.26829" fill="#0167B0"/><circle cx="39.72" cy="6" r="1" stroke-width="1.26829" fill="#0167B0"/></g><path d="M2.63 52.65 2.63 49.08 25.97 49.08 25.97 52.71" stroke="#0167B0" stroke-width="1.26829" stroke-miterlimit="10" fill="none"/><path d="M38.46 27.94 45.75 27.94C47.029 27.9455 48.0645 28.981 48.07 30.26L48.07 36.77 45.14 36.77 45.14 32.7C45.14 32.12 44.97 31.65 44.39 31.65L39.29 31.65C38.8924 31.65 38.57 31.9724 38.57 32.37L38.57 36.77 35.72 36.77 35.72 30.68C35.7255 29.169 36.949 27.9455 38.46 27.94Z" stroke="#0F67B0" stroke-width="1.26829" stroke-linejoin="round" fill="none"/></g></g></g></svg>