<?xml version="1.0" encoding="utf-8"?>
<!-- Generator: Adobe Illustrator 24.0.0, SVG Export Plug-In . SVG Version: 6.00 Build 0)  -->
<svg version="1.1" id="Layer_1" xmlns="http://www.w3.org/2000/svg" xmlns:xlink="http://www.w3.org/1999/xlink" x="0px" y="0px"
	 viewBox="0 0 737 184.3" style="enable-background:new 0 0 737 184.3;" xml:space="preserve">
<style type="text/css">
	.st0{fill:#FFFFFF;}
	.st1{fill-rule:evenodd;clip-rule:evenodd;fill:#FFFFFF;}
</style>
<g>
	<g>
		<path class="st0" d="M351,28c-7-7.2-16.3-10.8-27.3-10.8c-13,0-24.3,4.9-33.4,14.5c-9.2,9.6-13.7,22.3-13.7,37.7
			c0,6.8,1.5,13.2,4.5,19.2c3,6,7.6,10.8,13.5,14.2c5.9,3.4,12.5,5.1,19.6,5c0,0,0,0,0,0c6.8,0,13.2-1.4,19.3-4.3
			c4.6-2.2,8.9-5.2,12.9-9.2c4-4,7.3-8.7,9.9-14.1c3.5-7.2,5.3-15.1,5.3-23.6C361.6,44.9,358.1,35.2,351,28z M315.1,95.5
			c-4.3,0-8.4-1.1-12.4-3.3c-3.9-2.2-6.8-5.2-8.8-9.1c-2-3.9-3-8.3-3-13c0-12.5,3.4-22.2,10-29.5c6.7-7.3,14.2-10.9,22.8-10.9
			c6.7,0,12.2,2.3,16.7,7.1c4.5,4.7,6.8,11,6.8,19.1c0,5-0.9,10.1-2.7,15.4c-1.8,5.2-4.2,9.6-7.2,13.1c-3,3.5-6.5,6.3-10.3,8.3
			C323.2,94.5,319.3,95.5,315.1,95.5z"/>
	</g>
	<g>
		<path class="st0" d="M394.3,106.4c5.7,0,10.5-0.4,14.5-1.4c5.2-1.2,9.7-3,13.6-5.5c3.9-2.5,7.5-6,11-10.3
			c3.5-4.4,6.3-9.5,8.5-15.2c2.2-5.8,3.2-12.2,3.2-19.2c0-5.8-0.9-11.2-2.6-15.9c-1.8-4.8-4.4-8.8-7.9-12c-3.5-3.2-7.8-5.5-12.7-6.7
			c-3.5-0.9-8.3-1.4-14.7-1.4h-27.2l-18.6,87.6H394.3z M406,31.3c5.8,0,10,0.5,12.6,1.3c3.4,1.1,6.2,3.3,8.5,6.7
			c2.2,3.3,3.4,8.3,3.4,15c0,6-0.9,11.3-2.6,16c-1.7,4.7-4,8.9-6.9,12.5c-2.2,2.7-4.6,4.9-7.2,6.5c-2,1.2-4.4,2.2-7.2,2.9
			c-4.7,1.1-10,1.6-16.1,1.6h-11.8L392,31.3L406,31.3z"/>
		<path class="st0" d="M460.4,106.4l8-37.6h12.2c4.5,0,7.7,0.5,9.3,1.2c1.7,0.7,3.5,2.4,5.4,5.2c2.8,4.1,5.3,8.9,7.5,14.5l6.5,16.7
			h16.1l-7.4-18c-2.2-5.4-5.2-10.7-8.9-15.7c-1.2-1.7-2.8-3.3-4.7-4.9c8.7-1.5,15.3-4.4,19.7-8.7c4.9-4.8,7.3-11,7.3-18.2
			c0-5.1-1.1-9.5-3.4-13c-2.3-3.5-5.5-6-9.5-7.2c-3.9-1.2-9.5-1.8-16.7-1.8h-37.4l-18.7,87.6H460.4z M515.4,48.1
			c-1.4,2.3-3.3,4.1-5.9,5.5c-2.6,1.4-5.9,2.3-10.2,2.7c-2.1,0.2-6.9,0.3-14.3,0.3l-14.1,0l5.5-25.7h26.9c4.3,0,7.4,0.3,8.9,0.9
			c1.5,0.5,2.7,1.5,3.7,3.1c1,1.6,1.5,3.4,1.5,5.7C517.5,43.3,516.8,45.8,515.4,48.1z"/>
	</g>
	<g>
		<polygon class="st0" points="545.8,106.4 564.4,18.7 549.9,18.7 531.2,106.4 		"/>
		<path class="st0" d="M601.5,106.4l49-87.6h-15.3L604,75c-1.8,3.4-4.1,7.7-6.7,12.9c-0.7-4.9-1.7-10.7-3-17.4L584,18.7h-14.1
			l17.2,87.6H601.5z"/>
		<polygon class="st0" points="706.7,106.4 709.3,93.8 655,93.8 660.2,69.2 701.6,69.2 704.3,56.6 662.9,56.6 668.3,31.3 
			718.1,31.3 720.8,18.7 656.5,18.7 637.8,106.4 		"/>
	</g>
	<polygon class="st1" points="35.5,93.1 43.1,56.8 94.5,56.8 79.8,125.6 313.8,125.6 311,138.8 64.2,138.8 79,70 53.3,70 
		45.6,106.2 7.5,106.2 10.3,93.1 	"/>
	<g>
		<path class="st0" d="M201.3,106.4l8-37.6h12.2c4.5,0,7.7,0.5,9.3,1.2c1.7,0.7,3.5,2.4,5.4,5.2c2.8,4.1,5.3,8.9,7.5,14.5l6.5,16.7
			h16.1l-7.4-18c-2.2-5.4-5.2-10.7-8.9-15.7c-1.2-1.7-2.8-3.3-4.7-4.9c8.7-1.5,15.3-4.4,19.7-8.7c4.9-4.8,7.3-11,7.3-18.2
			c0-5.1-1.1-9.5-3.4-13c-2.3-3.5-5.5-6-9.5-7.2c-3.9-1.2-9.5-1.8-16.7-1.8h-37.4l-18.7,87.6H201.3z M256.3,48.1
			c-1.4,2.3-3.3,4.1-5.9,5.5c-2.6,1.4-5.9,2.3-10.2,2.7c-2.1,0.2-6.9,0.3-14.3,0.3h-14.1l5.5-25.7h26.9c4.4,0,7.4,0.3,8.9,0.9
			c1.5,0.5,2.7,1.5,3.7,3.1c1,1.6,1.5,3.4,1.5,5.7C258.4,43.3,257.7,45.8,256.3,48.1z"/>
	</g>
	<g>
		<path class="st0" d="M338.1,131.3l-6.6,31.2h-6.4l6.6-31.2h-10.4l1.2-5.7h27.2l-1.2,5.7H338.1z"/>
		<path class="st0" d="M348,162.5l7.8-36.9h18.4l-1.3,6.1h-12.1l-2,9.3h10.5l-1.3,6h-10.5l-2,9.5h13.5l-1.3,6H348z"/>
		<path class="st0" d="M400.9,160.7c-3.7,1.9-7.4,2.6-11.1,2.6c-10.2,0-14.5-7.8-12.2-18.6c2.5-11.8,11-19.7,21.9-19.7
			c3,0,6,0.4,8.2,2.1l-1.4,6.9c-2.1-2.1-4.5-3.1-7.8-3.1c-7.4,0-12.1,5.8-13.7,13.4c-1.5,7.3,0.9,12.9,7.9,12.9
			c3.7,0,7.2-0.9,10.6-3.2C402.4,156.1,401.8,158.4,400.9,160.7z"/>
		<path class="st0" d="M431.9,162.5l3.4-15.8h-15.8l-3.4,15.8h-6.4l7.8-36.9h6.4l-3.2,15h15.7l3.2-15h6.4l-7.8,36.9H431.9z"/>
		<path class="st0" d="M472.8,162.5l-12.4-25.2l-5.4,25.2h-5.8l7.8-36.9h6.1l11.8,23.8l5.1-23.8h5.9l-7.8,36.9H472.8z"/>
		<path class="st0" d="M503.5,163.2c-10.7,0-15.3-7.4-12.9-18.8c2.5-11.6,10.8-19.4,21.6-19.4c10.7,0,15.3,7.4,12.9,18.8
			C522.6,155.3,514.4,163.2,503.5,163.2z M510.7,130.9c-7.1,0-11.2,6.4-12.6,13.2c-1.4,6.7,0.2,13.1,7,13.1c7,0,11.1-6.3,12.5-13.1
			C519.1,137.4,517.7,130.9,510.7,130.9z"/>
		<path class="st0" d="M528.8,162.5l7.8-36.9h6.4l-6.6,30.9h13.6l-1.3,6H528.8z"/>
		<path class="st0" d="M568.5,163.2c-10.7,0-15.3-7.4-12.9-18.8c2.5-11.6,10.8-19.4,21.6-19.4c10.7,0,15.3,7.4,12.9,18.8
			C587.6,155.3,579.3,163.2,568.5,163.2z M575.7,130.9c-7.1,0-11.2,6.4-12.6,13.2c-1.4,6.7,0.2,13.1,7,13.1c7,0,11.1-6.3,12.5-13.1
			C584.1,137.4,582.7,130.9,575.7,130.9z"/>
		<path class="st0" d="M609.5,163.2c-10.7,0-16.1-6.8-13.6-18.7c2.5-11.9,12-19.5,22.7-19.5c2.5,0,5.8,0.4,7.8,1.7l-0.9,6.8
			c-2-1.8-4.9-2.7-7.8-2.7c-7.6,0-13,5.5-14.7,13.6c-1.7,8.1,1,12.9,8.6,12.9c1.5,0,2.8-0.1,4.4-0.5l1.5-7.1h-5.6l1.3-6.1h12
			l-3.7,17.4C617.5,162.8,613.5,163.2,609.5,163.2z"/>
		<path class="st0" d="M631.1,162.5l7.8-36.9h6.4l-7.8,36.9H631.1z"/>
		<path class="st0" d="M648.6,162.5l7.8-36.9h18.4l-1.3,6.1h-12.1l-2,9.3H670l-1.3,6h-10.5l-2,9.5h13.5l-1.3,6H648.6z"/>
		<path class="st0" d="M683.5,163c-2.9,0-6.5-0.6-8.4-2.6l1.9-6.8c2,2.4,4.3,3.9,7.7,3.9c2.9,0,5.5-1.3,6.3-4.8
			c1.7-8.1-14.1-3.7-11.3-16.8c1.6-7.6,7.6-10.9,14-10.9c2.8,0,5.5,0.5,7.6,2.1l-2.1,6.4c-1.6-2-4.1-3.1-6.8-3.1
			c-2.5,0-5,1.3-5.7,4.3c-1.7,7.9,14.3,3.5,11.5,16.8C696.6,159.5,690.2,163,683.5,163z"/>
	</g>
	<g>
		<path class="st0" d="M122,106.3l7.3-34.4l20.4,0c5.8,0,11.5-0.7,17.1-1.9c2.7-0.6,5.3-1.5,7.7-2.8c2.5-1.3,4.8-3.2,7.1-5.6
			c2.4-2.5,4.3-5.7,5.8-9.4c1.5-3.8,2.3-7.5,2.3-11.2c0-4.5-1.1-8.6-3.3-12.2c-2.2-3.6-5-6.3-8.4-7.8c-3.5-1.5-8.3-2.2-14.6-2.2
			h-37.2l-18.7,87.6H122z M175.4,41.2c0,3.3-0.9,6.4-2.9,9.4c-1.9,3-4.5,5.1-7.7,6.6c-3.1,1.4-8.4,2.2-15.6,2.2H132l6.1-28.6H159
			c5.6,0,9.4,0.5,11,1.1c1.7,0.7,3,1.8,4,3.3C174.9,36.7,175.4,38.6,175.4,41.2z"/>
	</g>
</g>
</svg>
