<svg width="47.97" height="51.66" viewBox="0 0 47.97 51.66" xmlns="http://www.w3.org/2000/svg" xmlns:xlink="http://www.w3.org/1999/xlink" overflow="hidden"><defs><clipPath id="clip-path"><rect x="0" y="0" width="47.97" height="51.66" fill="none"/></clipPath></defs><g id="Laag_2"><g id="Laag_1-2"><g><g clip-path="url(#clip-path)"><path d="M35 44C32.92 44 31.22 44.34 31.22 44.76L31.22 46.86C31.22 47.28 32.92 47.62 35 47.62 37.08 47.62 38.79 47.28 38.79 46.86L38.79 44.8C38.79 44.38 37.09 44.04 35 44.04" stroke="#0167B1" stroke-width="1.00002" fill="#0167B1"/></g><path d="M13.28 7.09 41.69 14.83 43.7 15.05 33.9 33.21 33.48 45.3 33.87 45.32 34.29 33.33 44.34 14.7 41.76 14.42 13.38 6.69 13.28 7.09Z" stroke="#0167B1" stroke-width="1.00002" fill="#0167B1"/><g clip-path="url(#clip-path)"><path d="M44.92 14.14C44.56 13.05 43.74 12.33 43.08 12.54 43.0265 12.555 42.9759 12.5787 42.93 12.61L39 14.42C38.34 14.63 38.15 15.09 38.51 16.18 38.87 17.27 39.24 17.4 39.89 17.18L44.09 16.54C44.1693 16.5544 44.2507 16.5544 44.33 16.54 44.98 16.33 45.23 15.27 44.88 14.17" stroke="#0167B1" stroke-width="1.00002" fill="#0167B1"/><path d="M37.41 34C37.48 32.84 36.99 31.85 36.3 31.78 36.2438 31.7701 36.1862 31.7701 36.13 31.78L31.88 31.88C31.2 31.81 30.88 32.17 30.79 33.32 30.7 34.47 31.02 34.73 31.71 34.8L35.82 35.9C35.8935 35.9305 35.9709 35.9507 36.05 35.96 36.73 36.03 37.34 35.15 37.41 33.96" stroke="#0167B1" stroke-width="1.00002" fill="#0167B1"/><path d="M47.38 12.94 47.59 12.85C47.4835 12.619 47.3563 12.3981 47.21 12.19 47.086 12.0173 46.9789 11.8331 46.89 11.64L46.68 11.74 46.91 11.74 46.91 11.41 46.91 11.33C46.8861 11.2329 46.838 11.1434 46.77 11.07 46.6757 10.9575 46.5683 10.8568 46.45 10.77L46.28 10.66C46.2274 10.6255 46.1701 10.5985 46.11 10.58L46 10.58 45.59 10.64 45.59 10.88 45.67 10.66C45.2812 10.5056 44.8682 10.421 44.45 10.41 44.1305 10.4168 43.8138 10.4707 43.51 10.57 43.2 10.65 42.88 10.76 42.44 10.85L42.38 10.85C42.2808 10.8456 42.1828 10.8254 42.09 10.79 41.9453 10.736 41.7939 10.7024 41.64 10.69L41.45 10.69 41.29 10.69 41.29 10.85 41.23 11.25 41.45 11.25 41.45 11.01 41.31 11.01C41.0737 11.0327 40.8356 11.0293 40.6 11L40.42 11 40.34 11.17C40.29 11.28 40.24 11.39 40.18 11.5L40.39 11.61 40.32 11.38C40.1562 11.438 39.9838 11.4684 39.81 11.47 39.2896 11.3995 38.7772 11.2789 38.28 11.11L38.14 11.11C38.0057 11.1114 37.8757 11.1571 37.77 11.24L37.69 11.29 37.63 11.29 37.63 11.53 37.71 11.31 36.71 10.87 36.54 10.8 36.43 10.96C36.3857 11.024 36.3229 11.0729 36.25 11.1 36.1436 11.135 36.032 11.1519 35.92 11.15 35.5513 11.129 35.1875 11.0549 34.84 10.93L34.78 11.17 34.85 10.93C33.45 10.49 31.93 10.04 30.36 9.59L30.3 9.83 30.53 9.83 30.53 9.33 30.39 9.27C30.0662 9.11122 29.7321 8.97425 29.39 8.86L29.31 9 29.49 8.85 29.43 8.91 29.5 8.91 29.5 8.91 29.44 8.97 29.51 8.97 29.45 8.97 29.51 8.97 29.45 8.97 29.52 8.97 29.52 8.84C29.5174 8.74769 29.4897 8.65783 29.44 8.58L29.44 8.58 29.44 8.58C29.2666 8.46971 29.0779 8.38548 28.88 8.33 28.7247 8.28004 28.5741 8.21646 28.43 8.14L28.37 8.14 28.24 8.14C28.0396 8.12988 27.8429 8.0824 27.66 8 27.483 7.93286 27.3177 7.83838 27.17 7.72L27.12 7.72 27 7.72C26.4606 7.63737 25.9264 7.52385 25.4 7.38 25.1 7.29 24.8 7.2 24.54 7.1 24.3198 7.01895 24.1086 6.91505 23.91 6.79L23.91 6.79 23.91 6.79 21.91 6.25 21.91 6.49 21.98 6.26C21.2632 5.9372 20.5162 5.68598 19.75 5.51L19.51 5.51C19.1072 5.51675 18.7189 5.66147 18.41 5.92 18.1696 6.12425 17.8801 6.26214 17.57 6.32L17.57 6.56 17.72 6.37C17.607 6.26792 17.5093 6.15003 17.43 6.02 17.3272 5.85105 17.1911 5.70476 17.03 5.59L17.03 5.59 16.55 5.47 15.98 4.83 15.81 4.99 16.04 4.99 15.88 4.99 16.03 5.05C16.0329 5.0301 16.0329 5.0099 16.03 4.99L15.87 4.99 16.02 5.05 15.82 4.97 15.96 5.14 16.02 5.05 15.82 4.97 15.96 5.14 15.81 4.97 15.81 5C15.8648 4.99517 15.917 4.9743 15.96 4.94L15.81 4.77 15.81 4.77 15.7 4.94C15.7359 4.95028 15.7741 4.95028 15.81 4.94L15.81 4.75 15.7 4.92 15.7 4.92C15.7516 4.96659 15.821 4.98848 15.89 4.98 15.9425 4.99355 15.9975 4.99355 16.05 4.98L16.15 4.93 16.21 4.58 16.21 4.48C16.2173 4.44369 16.2173 4.40631 16.21 4.37 16.1821 4.30277 16.1413 4.24163 16.09 4.19 16.0267 4.14246 15.9491 4.11778 15.87 4.12 15.8143 4.10515 15.7557 4.10515 15.7 4.12L15.7 4.12 15.64 4.18 15.59 4.13 15.59 4.13 14.65 3.84 14.59 4.07 14.8 4.17 14.8 4.08 14.8 3.99 14.8 3.9C14.7653 3.82033 14.7101 3.7513 14.64 3.7 14.5715 3.6467 14.4868 3.61847 14.4 3.62L14.25 3.62 14.25 3.62 12.46 3.04 12.39 3.28 12.56 3.11 12.56 3.11C12.1873 2.76214 11.8366 2.39142 11.51 2 11.1926 1.49912 10.7777 1.06721 10.29 0.73L10.29 0.73 8.08 0 8 0.16 7.92 0.16 1.48 0.32 1.36 1.12 1.36 1.26 1.36 1.4 7.18 3.65 8.4 4 8.4 3.92 9.52 4.21 9.71 4.5 9.29 5.31 9.24 6.03 7.84 6.36 6.31 6 5.47 5.78 0.2 5.32 0 6.32 4.83 8.84 5.09 8.84 5.23 9.41 5.38 9.41 6.18 9.54C6.61 9.61 7.12 9.7 7.41 9.77 7.48631 9.78042 7.56369 9.78042 7.64 9.77 7.93645 9.75711 8.2207 9.64833 8.45 9.46 8.56734 9.37204 8.67465 9.27143 8.77 9.16L8.6 9.07 8.65 9.31 10.36 8.87 10.36 8.63 10.14 8.72C10.1775 8.81488 10.2355 8.90026 10.31 8.97 10.4006 9.05402 10.4976 9.13091 10.6 9.2L10.76 9.29 10.76 9.29 14.4 10.03 14.49 9.9 15 9.14 14.8 9 14.75 9.23 16.05 9.57 16.1 9.33 15.97 9.53C16.1575 9.69778 16.3223 9.88941 16.46 10.1 16.6346 10.3636 16.8716 10.58 17.15 10.73 17.6059 10.921 18.0824 11.0585 18.57 11.14 19.0553 11.2228 19.5334 11.3431 20 11.5 22.86 12.55 25.76 13 28.49 13.81 28.6887 13.8647 28.8939 13.8916 29.1 13.89L29.7 13.89C29.8396 13.8742 29.9804 13.8742 30.12 13.89L30.18 13.66 30.11 13.89 33.56 15 33.56 15 34.99 15.37 35.05 15.14 34.9 15.32C34.9611 15.3925 35.0116 15.4733 35.05 15.56 35.0848 15.6297 35.1249 15.6965 35.17 15.76 35.2252 15.838 35.2969 15.9029 35.38 15.95 35.583 16.0532 35.8034 16.1177 36.03 16.14 36.1874 16.1427 36.3391 16.1992 36.46 16.3L36.6 16.1 36.37 16.1C36.3606 16.2865 36.3606 16.4735 36.37 16.66 36.3649 17.4 36.64 18.1145 37.14 18.66 37.5793 19.0947 38.0506 19.4958 38.55 19.86L38.7 19.67 38.51 19.53 36.89 21.83 36.89 21.83 36.89 21.83 34.54 26.6 34.74 26.71 34.54 26.59C34.21 27.18 33.88 27.77 33.54 28.36L33.74 28.48 33.74 28.24 33.55 28.24C33.2538 28.2386 32.9584 28.2722 32.67 28.34 32.5282 28.37 32.3905 28.417 32.26 28.48 32.1318 28.5461 32.0245 28.6465 31.95 28.77L32.15 28.89 32 28.73C31.9302 28.8163 31.8852 28.92 31.87 29.03 31.87 29.17 31.87 29.31 31.81 29.43L31.81 29.57C31.81 29.57 31.81 29.62 31.81 29.62L31.98 29.79 31.82 29.61 31.77 29.61C31.68 29.69 31.47 29.85 31.29 29.98L31.05 30.15 30.97 30.21 30.97 30.21 30.97 30.3 30.97 30.21 30.97 30.21 30.97 30.3 30.97 30.21C30.8844 30.229 30.7956 30.229 30.71 30.21L30.55 30.21C30.3731 30.2059 30.199 30.2547 30.05 30.35L29.93 30.43 29.93 30.65C29.944 30.7058 29.944 30.7642 29.93 30.82 29.8765 30.8905 29.8082 30.9485 29.73 30.99 29.62 31.05 29.48 31.12 29.33 31.22 29.18 31.32 29.26 31.29 29.25 31.32 29.2258 31.3648 29.2057 31.4116 29.19 31.46 29.1139 31.6693 29.0505 31.8831 29 32.1 28.94 32.32 28.9 32.5 28.9 32.5L29.12 32.56 28.96 32.39C28.8992 32.4539 28.8576 32.5336 28.84 32.62 28.8259 32.696 28.8259 32.774 28.84 32.85 28.8284 32.9864 28.8284 33.1236 28.84 33.26 28.84 33.32 28.84 33.37 28.84 33.41L28.84 33.46 28.84 33.46 29 33.5 28.77 33.5 28.77 33.5 29 33.5 28.77 33.5C28.7645 33.5365 28.7645 33.5735 28.77 33.61 28.7803 33.845 28.824 34.0774 28.9 34.3 28.9675 34.5078 29.0546 34.7087 29.16 34.9L29.22 34.98 29.32 34.98 29.7 34.98 29.7 34.74 29.48 34.81 30.9 39.6 31.12 39.54 30.9 39.59C30.9675 39.9189 30.9977 40.2543 30.99 40.59 30.99 41.37 30.83 42.18 30.83 43.15L30.83 43.15 31.06 43.15 31 42.9C30.631 42.9915 30.2571 43.0616 29.88 43.11 29.4657 43.1592 29.0612 43.2705 28.68 43.44L28.54 43.51 28.54 43.68C28.54 43.79 28.54 43.9 28.54 43.99 28.5459 44.0298 28.5459 44.0702 28.54 44.11L28.54 44.11 28.69 44.3 28.6 44.08C28.4855 44.1156 28.3685 44.1423 28.25 44.16 28.1709 44.1792 28.0939 44.206 28.02 44.24 27.93 44.2852 27.8514 44.3502 27.79 44.43L27.99 44.57 27.8 44.42C27.7494 44.5073 27.7123 44.6017 27.69 44.7 27.627 45.09 27.6002 45.485 27.61 45.88 27.61 46.65 27.61 47.52 27.61 47.88 27.61 48 27.61 48.23 27.61 48.44 27.61 48.65 27.61 48.64 27.61 48.74 27.6232 48.8487 27.6646 48.9521 27.73 49.04L27.73 49.04C27.9221 49.2162 28.1623 49.3311 28.42 49.37 28.6942 49.4155 28.9721 49.4356 29.25 49.43L30.03 49.43 30.03 49.2 29.8 49.2C29.7977 49.388 29.8424 49.5736 29.93 49.74 29.9915 49.848 30.0771 49.9404 30.18 50.01 30.3197 50.1055 30.4815 50.164 30.65 50.18 30.823 50.195 30.997 50.195 31.17 50.18L31.58 50.18C31.7983 50.1723 32.0168 50.1925 32.23 50.24 32.6 50.33 33.15 50.58 33.63 50.71L33.63 50.71 34.77 50.85 34.77 50.61 34.62 50.79 35.22 51.33 35.22 51.33 35.22 51.33C35.7258 51.5155 36.2613 51.607 36.8 51.6 37.0716 51.6029 37.3429 51.5794 37.61 51.53 37.8399 51.5021 38.0632 51.4344 38.27 51.33L38.34 51.33 38.34 51.25C38.41 51.09 38.48 50.92 38.56 50.75L38.35 50.65 38.35 50.89C38.61 50.89 38.96 50.89 39.29 50.82 39.615 50.8004 39.932 50.7118 40.22 50.56 40.2762 50.5244 40.3267 50.4805 40.37 50.43L40.48 50.29 40.48 50.29C41.09 50.18 41.71 50.29 42.4 50.09L42.54 50.09 42.54 49.94C42.5498 49.8503 42.5498 49.7597 42.54 49.67 42.5459 49.448 42.4713 49.2313 42.33 49.06 42.1868 48.887 41.9896 48.7672 41.77 48.72L42 48.9 42.23 48.9C42.2234 48.8075 42.2032 48.7165 42.17 48.63 42.1449 48.5809 42.111 48.5368 42.07 48.5L42 48.38 42 48.38 41.79 48.38C41.6786 48.3793 41.57 48.4143 41.48 48.48 41.4138 48.5259 41.3533 48.5796 41.3 48.64L41.46 48.81 41.54 48.59C41.4452 48.5481 41.3626 48.4827 41.3 48.4 41.1706 48.1794 41.0888 47.9341 41.06 47.68 40.99 47.21 40.98 46.63 40.94 46.08 40.9283 45.8111 40.8948 45.5435 40.84 45.28 40.7907 45.0345 40.6957 44.8004 40.56 44.59L40.49 44.49 40.23 44.49 40.23 44.59 40.23 44.49 40.23 44.49 40.23 44.59 40.23 44.49 40.23 44.65 40.32 44.52 40.26 44.52 40.26 44.68 40.35 44.55 40.28 44.65 40.36 44.56 40.36 44.56 40.29 44.66 40.37 44.57 40.37 44.57 40.24 44.44 40.08 44.61 40.31 44.61 40.31 44.25 40.08 44.25 40.08 44.5C40.4211 44.4677 40.7569 44.3938 41.08 44.28 41.2636 44.2245 41.4386 44.1437 41.6 44.04 41.6803 43.9928 41.7487 43.9278 41.8 43.85 41.8684 43.7686 41.9072 43.6663 41.91 43.56 41.91 43.56 41.91 43.5 41.91 43.47L41.68 43.52 41.91 43.52C41.9046 43.4869 41.9046 43.4531 41.91 43.42 41.91 43.26 41.91 43.05 41.91 42.87 41.9036 42.8001 41.9036 42.7299 41.91 42.66L41.91 42.61 41.91 42.61 41.91 42.61 41.91 42.61 41.91 42.61 41.91 42.61 41.91 42.61 41.74 42.44 41.82 42.67C42.1445 42.5699 42.4807 42.5128 42.82 42.5 42.9977 42.4814 43.1705 42.4306 43.33 42.35 43.5221 42.2472 43.6868 42.0997 43.81 41.92 44.0478 41.5509 44.1697 41.119 44.16 40.68 44.1603 40.2896 44.0749 39.9039 43.91 39.55 43.7631 39.2133 43.5006 38.9402 43.17 38.78L43.17 38.78 41.81 38.51 41.76 38.75 41.96 38.63 41.77 38.29 41.77 38.29 41.77 38.29C41.1747 37.8868 40.4863 37.6424 39.77 37.58L39.77 37.82 40 37.82 40 37.69C40.0003 37.5314 39.9802 37.3734 39.94 37.22 39.9218 37.1388 39.8841 37.0633 39.83 37 39.8007 36.9594 39.7632 36.9253 39.72 36.9 39.6679 36.8838 39.6121 36.8838 39.56 36.9L39.5 36.9 39.55 37.14 39.75 37.03 39.75 36.96 39.75 36.96 39.75 36.96C39.6516 36.8185 39.5741 36.6636 39.52 36.5 39.4501 36.3315 39.4095 36.1522 39.4 35.97 39.4 35.97 39.4 35.9 39.4 35.87L39.4 35.87C39.4445 35.6872 39.5082 35.5095 39.59 35.34 39.6972 35.1194 39.781 34.8881 39.84 34.65L39.84 34.65C39.84 33.82 39.94 32.98 40 32.15L39.77 32.15 39.99 32.15C40.0624 31.6668 40.0959 31.1786 40.09 30.69 40.09 30.46 40.09 30.23 40.09 30 39.9867 29.4194 39.9565 28.8281 40 28.24 40.369 26.7207 41.0166 25.283 41.91 24 42.91 22.5 44.36 21.26 45.49 19.73 45.8316 19.3077 46.199 18.907 46.59 18.53 47.0036 18.1186 47.3421 17.638 47.59 17.11 47.8385 16.4732 47.9575 15.7933 47.94 15.11 47.9528 14.3495 47.8239 13.5933 47.56 12.88L47.35 12.97 47.13 13.07C47.3665 13.7101 47.4851 14.3877 47.48 15.07 47.4959 15.6878 47.3906 16.3027 47.17 16.88 46.9349 17.356 46.6166 17.7861 46.23 18.15 45.8299 18.5449 45.4527 18.9622 45.1 19.4 44.01 20.88 42.59 22.12 41.51 23.68 40.5725 25.0225 39.8942 26.5283 39.51 28.12 39.4043 28.6634 39.3574 29.2166 39.37 29.77 39.37 30 39.37 30.23 39.37 30.46 39.3754 30.9216 39.3453 31.383 39.28 31.84L39.28 31.84C39.22 32.68 39.17 33.52 39.12 34.35L39.35 34.35 39.12 34.29C39.0729 34.4955 38.9989 34.6939 38.9 34.88 38.7981 35.0939 38.721 35.3187 38.67 35.55L38.67 35.55C38.67 35.61 38.67 35.67 38.67 35.73 38.6744 35.974 38.7253 36.215 38.82 36.44 38.89 36.6393 38.9876 36.8278 39.11 37L39.29 36.86 39.09 36.97 39.09 37.04 39.17 37.2 39.34 37.2 39.34 37.04 39.34 37.2 39.34 37.2 39.34 37.04 39.34 37.04 39.28 37.15 39.34 37.15 39.34 37.02 39.28 37.13 39.28 37.06 39.22 37.12 39.22 37.12 39.22 37.05 39.16 37.11 39.16 37.11C39.1659 37.1531 39.1659 37.1969 39.16 37.24 39.1649 37.3233 39.1649 37.4067 39.16 37.49L39.16 37.58 39.16 37.83 39.39 37.83C40.0418 37.8898 40.6695 38.1059 41.22 38.46L41.34 38.26 41.15 38.38C41.2074 38.4966 41.2708 38.6101 41.34 38.72L41.34 38.81 41.44 38.81 42.81 39.08 42.81 38.84 42.72 39.06C42.9467 39.1812 43.1262 39.3748 43.23 39.61 43.3643 39.8944 43.4327 40.2055 43.43 40.52 43.4476 40.8735 43.3531 41.2234 43.16 41.52 43.0899 41.6434 42.9857 41.7441 42.86 41.81 42.6697 41.8885 42.4659 41.9292 42.26 41.93 41.9533 41.9419 41.65 41.9992 41.36 42.1L41.36 42.1 41.36 42.1C41.2869 42.1804 41.2413 42.282 41.23 42.39 41.2247 42.4866 41.2247 42.5834 41.23 42.68 41.23 42.89 41.23 43.12 41.23 43.23L41.23 43.35 41.23 43.35 41.23 43.35 41.23 43.35 41.23 43.35 41.23 43.35 41.23 43.35C41.1719 43.4149 41.1002 43.4661 41.02 43.5 40.8134 43.6002 40.595 43.6741 40.37 43.72 40.184 43.7712 39.9928 43.8014 39.8 43.81L39.6 43.81 39.6 44.02 39.6 44.39 39.6 44.5 39.68 44.58 39.8 44.72 39.97 44.54 39.8 44.71C39.8288 44.7446 39.8625 44.7749 39.9 44.8L40.04 44.8 40.19 44.8 40.19 44.56 40 44.7C40.1553 44.9649 40.2445 45.2633 40.26 45.57 40.33 46.13 40.32 46.81 40.39 47.42 40.418 47.7132 40.4923 48.0001 40.61 48.27 40.7168 48.5328 40.921 48.7442 41.18 48.86L41.32 48.92 41.42 48.81 41.54 48.71 41.6 48.71 41.68 48.71 41.74 48.48 41.64 48.69 41.64 48.69 41.64 48.69 41.64 48.69 41.64 48.69 41.64 48.69 41.64 48.69 41.64 48.69 41.64 48.69 41.64 48.69 41.64 48.69C41.6429 48.7299 41.6429 48.7701 41.64 48.81L41.64 48.97 41.8 48.97C41.9241 48.9978 42.0362 49.0644 42.12 49.16 42.1842 49.2431 42.2193 49.345 42.22 49.45 42.2238 49.5099 42.2238 49.5701 42.22 49.63L42.44 49.63 42.44 49.4C41.86 49.55 41.25 49.48 40.55 49.6 40.4704 49.6115 40.3948 49.6424 40.33 49.69 40.2672 49.7476 40.2103 49.8112 40.16 49.88L40.11 49.94 40.11 49.94 40.11 49.94C39.8755 50.055 39.6207 50.123 39.36 50.14L38.43 50.21 38.4 50.21 38.34 50.34C38.27 50.5 38.19 50.67 38.12 50.84L38.33 50.94 38.22 51C38.0589 51.0871 37.8822 51.1414 37.7 51.16 37.4555 51.201 37.2079 51.2211 36.96 51.22 36.4838 51.2335 36.0091 51.1589 35.56 51L35.47 51.22 35.62 51.04 35.02 50.5 35 50.4 34.93 50.4 33.79 50.27 33.79 50.51 33.85 50.28C33.42 50.16 32.85 49.92 32.45 49.81 32.201 49.7521 31.9453 49.7285 31.69 49.74L31.28 49.74C31.0454 49.7588 30.8096 49.7246 30.59 49.64 30.5246 49.6132 30.4713 49.5634 30.44 49.5 30.393 49.4106 30.369 49.311 30.37 49.21L30.37 49 30.14 49 29.37 49C29.1187 49.002 28.8678 48.9819 28.62 48.94 28.4577 48.9219 28.3045 48.8557 28.18 48.75L28 48.9 28.17 48.74 28.17 48.74 28.17 48.74 28.17 48.74 28.17 48.74 28.17 48.74 28.17 48.65C28.17 48.65 28.17 48.53 28.17 48.45 28.17 48.37 28.17 48.05 28.17 47.89 28.17 47.5 28.12 46.64 28.12 45.89 28.12 45.59 28.12 45.31 28.12 45.09 28.12 44.87 28.12 44.89 28.12 44.82 28.1235 44.7934 28.1235 44.7666 28.12 44.74L28.12 44.74 28.12 44.74C28.1876 44.703 28.263 44.6824 28.34 44.68 28.4531 44.6629 28.5638 44.6327 28.67 44.59L28.67 44.59 28.67 44.59C28.7482 44.5155 28.8066 44.4227 28.84 44.32 28.9168 44.2268 28.9715 44.1174 29 44 29.0059 43.8834 29.0059 43.7666 29 43.65L28.77 43.65 28.87 43.87C29.2112 43.7233 29.5714 43.6256 29.94 43.58 30.3378 43.5283 30.7319 43.4515 31.12 43.35L31.29 43.35 31.29 43.16 31.29 43.16C31.29 42.25 31.45 41.45 31.45 40.6 31.457 40.2402 31.4201 39.8809 31.34 39.53L31.34 39.53C30.89 37.92 30.43 36.34 29.98 34.74L29.93 34.6 29.79 34.6 29.41 34.6 29.41 34.84 29.6 34.7C29.5156 34.5515 29.4485 34.3938 29.4 34.23 29.3422 34.055 29.3053 33.8737 29.29 33.69L29.29 33.53 29.29 33.53 29.19 33.59 29.3 33.54 29.3 33.54 29.2 33.6 29.31 33.55 29.31 33.55C29.2687 33.403 29.2419 33.2523 29.23 33.1 29.224 33.0669 29.224 33.0331 29.23 33L29.23 33 29.23 33 29.23 33 29.23 32.94 29.23 32.77C29.23 32.62 29.32 32.39 29.38 32.2L29.45 31.96 29.45 31.9 29.45 31.9 29.31 31.79 29.41 31.94 29.41 31.94 29.27 31.83 29.37 31.98C29.5 31.88 29.67 31.81 29.85 31.69 29.9505 31.6175 30.0355 31.5258 30.1 31.42 30.1657 31.2933 30.2 31.1527 30.2 31.01 30.2049 30.9702 30.2049 30.9298 30.2 30.89L29.97 30.89 30.09 31.1C30.1663 31.0481 30.2579 31.0234 30.35 31.03L30.51 31.03C30.6606 31.0335 30.8103 31.0062 30.95 30.95L31.05 30.9 31.55 30.54 31.8 30.34 32 30 32.07 29.94 32.07 29.94C32.1432 29.8534 32.1947 29.7505 32.22 29.64 32.22 29.49 32.22 29.35 32.28 29.23 32.2813 29.1604 32.2984 29.092 32.33 29.03L32.33 29.03 32.33 29.03C32.3583 28.9847 32.4003 28.9497 32.45 28.93 32.6041 28.8537 32.7696 28.803 32.94 28.78 33.1364 28.7651 33.3336 28.7651 33.53 28.78L33.84 28.78 34 28.6 35 26.83 35 26.83C35.78 25.25 36.5533 23.67 37.32 22.09L37.12 21.98 37.3 22.12 38.92 19.81 39.06 19.62 38.88 19.48C38.3958 19.1311 37.9409 18.7431 37.52 18.32 37.0857 17.8624 36.8518 17.2506 36.87 16.62 36.8607 16.4568 36.8607 16.2932 36.87 16.13L36.87 15.99 36.76 15.9C36.5697 15.7581 36.3456 15.6685 36.11 15.64 35.939 15.6337 35.7716 15.5892 35.62 15.51 35.5901 15.4992 35.5652 15.4779 35.55 15.45 35.5033 15.3805 35.4631 15.3069 35.43 15.23 35.3765 15.1198 35.3017 15.0212 35.21 14.94L35.21 14.94 35.21 14.94 33.78 14.57 33.78 14.81 33.84 14.57 30.2 13.45 30.2 13.45C30.0239 13.4308 29.8461 13.4308 29.67 13.45L29.07 13.45C28.9078 13.4559 28.7457 13.4357 28.59 13.39 25.82 12.58 22.92 12.13 20.13 11.09 19.6536 10.9293 19.1655 10.8056 18.67 10.72 18.217 10.6391 17.7743 10.5083 17.35 10.33 17.1376 10.2183 16.9583 10.0528 16.83 9.85 16.6679 9.60438 16.4728 9.38229 16.25 9.19L16.25 9.19 16.25 9.19 14.94 8.85 14.79 8.85 14.7 8.99 14.18 9.76 14.37 9.9 14.37 9.67 10.91 8.96 10.91 9.2 11.01 8.98 11.01 8.98C10.9361 8.94327 10.8658 8.89975 10.8 8.85 10.7503 8.82155 10.7063 8.78428 10.67 8.74L10.62 8.68 10.55 8.48 8.55 8.98 8.5 9.04 8.5 9.04 8.5 9.04 8.5 9.04 8.5 9.04C8.42829 9.13482 8.34024 9.21609 8.24 9.28 8.09024 9.39816 7.90981 9.47103 7.72 9.49L7.59 9.49C7.28 9.41 6.77 9.32 6.33 9.25L5.45 9 5.45 9.24 5.67 9.18 5.45 8.4 4.95 8.4 0.53 6 0.53 5.82 5.37 6.21 6.16 6.42 7.85 6.87 9.69 6.44 9.76 5.44 10.26 4.44 9.83 3.75 8.24 3.39 8.24 3.46 7.37 3.19 1.69 1 1.62 1.23 1.84 1.23 1.84 1.11 1.84 0.79 7.84 0.62 8 0.67 8.16 0.67 8.27 0.57 10.11 1.17 10.18 0.94 10.06 1.15 10.06 1.15C10.4863 1.44593 10.8499 1.82315 11.13 2.26 11.3973 2.68558 11.6878 3.0962 12 3.49L12.05 3.49 14.05 4.15 14.23 4.03 14.1 3.83 14.16 4.06 14.16 4.06 14.16 4.06 14.16 4.06 14.16 4.06 14.16 4.06 14.16 4.06 14.16 4.06 14.16 4.06 14.16 4.06 14.26 3.98 14.14 3.98 14.14 3.98 14.24 3.9 14.12 3.9 14.4 4 14.19 3.9 14.19 3.98 14.08 4.24 15.16 4.57 15.32 4.74 15.48 4.9 15.84 4.56 15.68 4.38 15.79 4.59 15.79 4.52 15.79 4.6 15.79 4.6 15.79 4.53 15.79 4.53 15.71 4.63C15.7357 4.64004 15.7643 4.64004 15.79 4.63L15.79 4.47 15.71 4.57 15.71 4.57 15.71 4.57 15.71 4.57 15.71 4.57 15.71 4.57 15.79 4.57 15.7 4.57 15.7 4.57 15.78 4.57 15.69 4.57 15.92 4.57 15.7 4.57 15.65 4.8 15.88 4.85 15.77 4.64 15.83 4.75 15.83 4.5 15.77 4.5 15.83 4.61 15.83 4.61 15.9 4.49 15.83 4.49 15.83 4.63 15.9 4.51 15.9 4.51C15.8569 4.46926 15.7992 4.44762 15.74 4.45 15.6228 4.46023 15.5257 4.54519 15.5 4.66L15.5 4.73C15.4975 4.76662 15.4975 4.80338 15.5 4.84L15.5 4.9 16.21 5.69 16.79 5.84 16.84 5.61 16.72 5.81C16.8292 5.89491 16.9209 6.00019 16.99 6.12 17.0953 6.28096 17.2195 6.42869 17.36 6.56L17.44 6.63 17.53 6.63C17.899 6.55847 18.2434 6.39316 18.53 6.15 18.7697 5.9502 19.0682 5.8343 19.38 5.82L19.56 5.82C20.2959 5.99117 21.0129 6.23573 21.7 6.55L21.7 6.55 23.7 7.09 23.76 6.85 23.63 7.06C23.8556 7.20421 24.0972 7.32167 24.35 7.41 25.1779 7.71661 26.0361 7.9345 26.91 8.06L26.91 7.82 26.81 8C26.9973 8.14267 27.2023 8.26032 27.42 8.35 27.6566 8.45465 27.9114 8.51238 28.17 8.52L28.27 8.52 28.27 8.28 28.15 8.49C28.3212 8.58585 28.5023 8.66296 28.69 8.72 28.8507 8.76832 29.0051 8.83545 29.15 8.92L29.27 8.71 29.08 8.86 29.15 8.81 29.07 8.81 29.07 8.81 29.14 8.76 29.06 8.76 29.12 8.76 29.06 8.76 29.12 8.76 29.06 8.76C29.0633 8.78656 29.0633 8.81344 29.06 8.84 29.0607 8.93419 29.0923 9.02553 29.15 9.1L29.15 9.16 29.22 9.16C29.5385 9.26882 29.8492 9.39912 30.15 9.55L30.24 9.32 30 9.32 30 10 30.17 10.05C31.74 10.5 33.26 10.94 34.64 11.39L34.64 11.39C35.0313 11.52 35.4383 11.5973 35.85 11.62 36.0169 11.6236 36.183 11.5965 36.34 11.54 36.5034 11.4827 36.6437 11.3739 36.74 11.23L36.58 11 36.49 11.22 37.49 11.66 37.63 11.66C37.7061 11.66 37.7813 11.6429 37.85 11.61 37.9117 11.5798 37.9718 11.5464 38.03 11.51 38.0586 11.4972 38.0914 11.4972 38.12 11.51L38.12 11.51C38.6438 11.6958 39.1875 11.82 39.74 11.88 39.9614 11.8817 40.1814 11.8445 40.39 11.77L40.49 11.77 40.49 11.68C40.49 11.57 40.59 11.46 40.65 11.35L40.44 11.24 40.44 11.48C40.7102 11.561 40.9886 11.6113 41.27 11.63L41.47 11.63 41.64 11.63 41.64 11.45 41.7 11.05 41.48 11.05 41.48 11.29 41.58 11.29C41.6864 11.2967 41.7911 11.3203 41.89 11.36 42.0272 11.414 42.1726 11.4444 42.32 11.45L42.46 11.45C42.93 11.36 43.27 11.25 43.57 11.17 43.8341 11.0785 44.1106 11.0279 44.39 11.02 44.7565 11.0326 45.1182 11.107 45.46 11.24L45.46 11.24 45.52 11.24 45.93 11.18 45.93 10.94 45.93 11.17 45.93 11.17C46.0413 11.2179 46.1429 11.2857 46.23 11.37L46.36 11.51 46.36 11.56 46.36 11.56 46.36 11.56 46.36 11.56 46.36 11.56 46.36 11.56 46.58 11.51 46.35 11.51 46.35 11.85 46.35 11.91 46.35 11.97C46.4504 12.1906 46.5709 12.4015 46.71 12.6 46.8416 12.7767 46.9523 12.9679 47.04 13.17Z" stroke="#0167B1" stroke-width="1.00002" fill="#0167B1"/><path d="M14.88 9.06 16.74 6.28 16.74 6.28C16.7417 6.26004 16.7417 6.23996 16.74 6.22 16.7171 5.91677 16.5729 5.63559 16.34 5.44L16.21 5.59C16.3972 5.75085 16.5183 5.97524 16.55 6.22L16.55 6.22 16.55 6.22 16.65 6.22 16.57 6.16 14.72 8.94Z" stroke="#0167B1" stroke-width="1.00002" fill="#0167B1"/><path d="M42.38 11C42.0003 11.1497 41.6587 11.3819 41.38 11.68 40.6947 12.4154 40.3342 13.3958 40.38 14.4 40.389 15.0087 40.4764 15.6137 40.64 16.2L40.64 16.2C40.625 16.2931 40.5981 16.3838 40.56 16.47 40.2339 17.1216 39.863 17.7498 39.45 18.35L38.87 19.19 38.62 19.54 38.77 19.66C38.77 19.66 39.28 18.96 39.77 18.17 40.03 17.79 40.28 17.38 40.48 17.03 40.57 16.85 40.65 16.69 40.71 16.55 40.7658 16.441 40.7998 16.3221 40.81 16.2L40.81 16.13C40.6579 15.5588 40.5773 14.971 40.57 14.38 40.5216 13.4313 40.8609 12.5036 41.51 11.81 41.7028 11.6144 41.9215 11.4461 42.16 11.31L42.37 11.2 42.43 11.2 42.43 11.2Z" stroke="#0167B1" stroke-width="1.00002" fill="#0167B1"/><path d="M35.92 38 35.54 38C34.9182 38.0045 34.2999 37.9065 33.71 37.71 32.925 37.4657 32.2564 36.9429 31.83 36.24 31.3444 35.4577 31.0752 34.5604 31.05 33.64 31.0642 32.646 31.417 31.6865 32.05 30.92 32.2745 30.6336 32.522 30.3661 32.79 30.12L33.07 29.87 33.23 29.71C33.3953 29.4893 33.5362 29.2512 33.65 29 33.76 28.76 33.83 28.56 33.83 28.56L33.66 28.48 33.61 28.61C33.4761 28.9624 33.3016 29.298 33.09 29.61L32.94 29.74C31.7087 30.6869 30.9467 32.1197 30.85 33.67 30.8744 34.6293 31.154 35.5647 31.66 36.38 32.1122 37.1261 32.8247 37.6782 33.66 37.93 34.2655 38.1345 34.901 38.2359 35.54 38.23L35.93 38.23Z" stroke="#0167B1" stroke-width="1.00002" fill="#0167B1"/><path d="M31 43.12C31.0097 43.222 31.0602 43.3158 31.14 43.38 31.3364 43.5565 31.5635 43.6954 31.81 43.79 33.3303 44.3764 34.951 44.6584 36.58 44.62 37.7298 44.6169 38.8761 44.4929 40 44.25L40 44.05C38.8668 44.298 37.71 44.4221 36.55 44.42 35.2247 44.4315 33.9046 44.253 32.63 43.89 32.2431 43.7857 31.8703 43.6346 31.52 43.44 31.419 43.3809 31.3251 43.3104 31.24 43.23 31.2044 43.2008 31.1768 43.1629 31.16 43.12Z" stroke="#0167B1" stroke-width="1.00002" fill="#0167B1"/><path d="M36.45 31.82 36.45 31.73C36.0394 31.8772 35.6883 32.1547 35.45 32.52 35.1316 33.0318 34.9748 33.6277 35 34.23 35.071 35.7055 35.4099 37.1558 36 38.51 36.4228 39.6747 36.9622 40.7937 37.61 41.85 37.8135 42.1741 38.0666 42.4643 38.36 42.71 38.5791 42.8945 38.8538 43.0001 39.14 43.01 39.4414 42.9979 39.7301 42.8853 39.96 42.69 40.6081 42.271 41.0197 41.5701 41.07 40.8 41.0657 40.543 41.0148 40.2889 40.92 40.05 40.6639 39.651 40.3763 39.2731 40.06 38.92 39.5571 38.1906 39.2162 37.3621 39.06 36.49 38.87 35.62 38.94 34.39 38.84 33.38 38.818 32.9221 38.6951 32.4748 38.48 32.07 38.2779 31.7107 37.8919 31.4945 37.48 31.51 37.1361 31.5221 36.7973 31.5967 36.48 31.73L36.48 31.82 36.48 31.91C36.7757 31.7886 37.0906 31.7209 37.41 31.71 37.7632 31.6882 38.0976 31.871 38.27 32.18 38.5516 32.8077 38.6818 33.4928 38.65 34.18 38.6421 34.9667 38.699 35.7527 38.82 36.53 39.0039 37.4214 39.3754 38.2634 39.91 39 40.211 39.3441 40.4883 39.7083 40.74 40.09 40.8296 40.3022 40.8771 40.5297 40.88 40.76 40.8413 41.463 40.4699 42.1056 39.88 42.49 39.684 42.658 39.4378 42.7565 39.18 42.77 38.9368 42.7609 38.704 42.6692 38.52 42.51 37.82 41.98 37.08 40.59 36.22 38.39 35.6376 37.0613 35.2989 35.6386 35.22 34.19 35.1909 33.6287 35.3302 33.0716 35.62 32.59 35.8535 32.2606 36.1812 32.0096 36.56 31.87Z" stroke="#0167B1" stroke-width="1.00002" fill="#0167B1"/><path d="M37 40.66C36.8648 40.82 36.738 40.9869 36.62 41.16 36.4013 41.4516 36.2665 41.7974 36.23 42.16 36.2281 42.2611 36.2522 42.3609 36.3 42.45 36.4256 42.6565 36.6398 42.7932 36.88 42.82 37.1562 42.8773 37.4379 42.9041 37.72 42.9 38.0198 42.9158 38.3202 42.9158 38.62 42.9L38.62 42.7 38.36 42.7C38.1535 42.712 37.9465 42.712 37.74 42.7 37.4717 42.7028 37.2037 42.6794 36.94 42.63 36.7599 42.6038 36.5978 42.5066 36.49 42.36 36.475 42.2942 36.475 42.2258 36.49 42.16 36.5241 41.8402 36.6451 41.5358 36.84 41.28L37.09 40.94 37.17 40.85 37.17 40.85Z" stroke="#0167B1" stroke-width="1.00002" fill="#0167B1"/></g><path d="M39.89 42.51 39.91 42.71 41.74 42.48 41.71 42.28 39.89 42.51Z" stroke="#0167B1" stroke-width="1.00002" fill="#0167B1"/><path d="M40.09 39.01 40.1 39.21 43.09 39.04 43.08 38.84 40.09 39.01Z" stroke="#0167B1" stroke-width="1.00002" fill="#0167B1"/><g clip-path="url(#clip-path)"><path d="M11.66 6.49C11.6931 7.15744 12.2611 7.67165 12.9285 7.63851 13.596 7.60537 14.1102 7.03744 14.077 6.37 14.0451 5.72642 13.5144 5.22079 12.87 5.22 12.1854 5.23636 11.6436 5.80464 11.66 6.48927 11.66 6.48952 11.66 6.48976 11.66 6.49" stroke="#0167B1" stroke-width="1.00002" fill="#0167B1"/></g></g></g></g></svg>