<svg width="57.45" height="60.86" viewBox="0 0 57.45 60.86" xmlns="http://www.w3.org/2000/svg" xmlns:xlink="http://www.w3.org/1999/xlink" overflow="hidden"><g id="Laag_2"><g id="Laag_2-2"><path d="M45.21 32.15 43.29 31.76 42.44 34.48 41.38 31.83 39.65 32.34 39.97 30.52 37.24 29.65 39.9 28.61 39.22 26.72 41.2 27.21 42.05 24.48 43.11 27.14 45.11 26.56 44.52 28.45 47.24 29.32 44.59 30.36 45.21 32.15Z" stroke="#0F67B0" stroke-width="1.68354" stroke-linejoin="round" fill="none"/><path d="M36.23 0.75 47.92 0.75 47.92 4.58C47.92 4.58 48 6.36 45.56 6.42L38.26 6.42C38.26 6.42 36.26 6.53 36.26 4.73Z" stroke="#0F67B0" stroke-width="1.68354" stroke-linejoin="round" fill="none"/><path d="M36.23 60.11 47.92 60.11 47.92 56.27C47.92 56.27 48.03 54.5 45.56 54.44L38.26 54.44C38.26 54.44 36.26 54.33 36.26 56.13Z" stroke="#0F67B0" stroke-width="1.68354" stroke-linejoin="round" fill="none"/><line x1="40.91" y1="6.43" x2="40.91" y2="23.39" stroke="#0F67B0" stroke-width="1.68354" stroke-linejoin="round" fill="none"/><line x1="43.16" y1="6.43" x2="43.16" y2="22.56" stroke="#0F67B0" stroke-width="1.68354" stroke-linejoin="round" fill="none"/><line x1="40.91" y1="54.44" x2="40.91" y2="34.7" stroke="#0F67B0" stroke-width="1.68354" stroke-linejoin="round" fill="none"/><line x1="43.16" y1="54.44" x2="43.16" y2="36.25" stroke="#0F67B0" stroke-width="1.68354" stroke-linejoin="round" fill="none"/><path d="M37.74 18.38 5.77 18.38 5.77 43.08 37.74 43.08" stroke="#0F67B0" stroke-width="1.68354" stroke-linejoin="round" fill="none"/><path d="M45.52 18.38 51.33 18.38 51.33 43.08 45.47 43.08" stroke="#0F67B0" stroke-width="1.68354" stroke-linejoin="round" fill="none"/><path d="M36.23 0.75 0.75 0.75 0.75 60.11 56.7 60.11 56.7 0.75 36.23 0.75Z" stroke="#0F67B0" stroke-width="1.68354" stroke-linejoin="round" fill="none"/></g></g></svg>