<svg width="59.06" height="46.14" viewBox="0 0 59.06 46.14" xmlns="http://www.w3.org/2000/svg" xmlns:xlink="http://www.w3.org/1999/xlink" overflow="hidden"><g id="Laag_2"><g id="Laag_2-2"><g id="Laag_1-2"><ellipse cx="43.4" cy="35.46" rx="2.39" ry="1.45" stroke="#0767B1" stroke-linecap="round" stroke-linejoin="round" fill="none"/><path d="M5.5 22.88 26.25 37.14 51.26 19.04 31.77 8.19 5.5 22.88Z" stroke="#0767B1" stroke-linecap="round" stroke-linejoin="round" fill="none" fill-rule="evenodd"/><path d="M41.42 22.33C41.42 22.33 43.71 21.47 46.42 25.01 49.58 29.21 48.81 31.42 48.81 31.42" stroke="#0767B1" stroke-width="0.75" stroke-linecap="round" stroke-linejoin="round" fill="none" fill-rule="evenodd"/><path d="M45.43 19.39C45.43 19.39 48.74 17.91 53.59 21.16 56.16 22.89 56.59 25.83 56.17 26.52" stroke="#0767B1" stroke-width="0.75" stroke-linecap="round" stroke-linejoin="round" fill="none" fill-rule="evenodd"/><path d="M31.63 29.18C31.63 29.18 37.06 28.29 37.93 32.02 38.7 35.33 36.41 39.18 37.34 39.91" stroke="#0767B1" stroke-width="0.75" stroke-linecap="round" stroke-linejoin="round" fill="none" fill-rule="evenodd"/><path d="M26.6 32.77C26.6 32.77 31.4 31.77 31.6 35.36 31.8 38.95 31.73 43.27 31.81 44.19" stroke="#0767B1" stroke-width="0.75" stroke-linecap="round" stroke-linejoin="round" fill="none" fill-rule="evenodd"/><path d="M20.88 6C20.88 6 22.88 4.51 23.88 4.55 24.88 4.59 25.56 5.4 25.88 6.69 26.2 7.98 27 13.77 27 13.77" stroke="#0767B1" stroke-width="0.75" stroke-linecap="round" stroke-linejoin="round" fill="none" fill-rule="evenodd"/><path d="M29 2.16C29.37 0.97 31.87 1.6 32.59 2.82 34.1 5.38 31.39 11.17 31.39 11.17" stroke="#0767B1" stroke-width="0.75" stroke-linecap="round" stroke-linejoin="round" fill="none" fill-rule="evenodd"/><ellipse cx="48.77" cy="31.42" rx="2.39" ry="1.45" stroke="#0767B1" stroke-linecap="round" stroke-linejoin="round" fill="none"/><ellipse cx="56.17" cy="26.36" rx="2.39" ry="1.45" stroke="#0767B1" stroke-linecap="round" stroke-linejoin="round" fill="none"/><ellipse cx="37.34" cy="40.04" rx="2.39" ry="1.45" stroke="#0767B1" stroke-linecap="round" stroke-linejoin="round" fill="none"/><ellipse cx="31.77" cy="44.19" rx="2.39" ry="1.45" stroke="#0767B1" stroke-linecap="round" stroke-linejoin="round" fill="none"/><ellipse cx="52.71" cy="13.25" rx="2.39" ry="1.45" stroke="#0767B1" stroke-linecap="round" stroke-linejoin="round" fill="none"/><ellipse cx="45.43" cy="6.79" rx="2.39" ry="1.45" stroke="#0767B1" stroke-linecap="round" stroke-linejoin="round" fill="none"/><ellipse cx="29.04" cy="1.95" rx="2.39" ry="1.45" stroke="#0767B1" stroke-linecap="round" stroke-linejoin="round" fill="none"/><ellipse cx="20.88" cy="5.95" rx="2.39" ry="1.45" stroke="#0767B1" stroke-linecap="round" stroke-linejoin="round" fill="none"/><ellipse cx="12.05" cy="10.76" rx="2.39" ry="1.45" stroke="#0767B1" stroke-linecap="round" stroke-linejoin="round" fill="none"/><ellipse cx="2.89" cy="15.68" rx="2.39" ry="1.45" stroke="#0767B1" stroke-linecap="round" stroke-linejoin="round" fill="none"/><ellipse cx="2.92" cy="27.59" rx="2.39" ry="1.45" stroke="#0767B1" stroke-linecap="round" stroke-linejoin="round" fill="none"/><ellipse cx="9.76" cy="32.84" rx="2.39" ry="1.45" stroke="#0767B1" stroke-linecap="round" stroke-linejoin="round" fill="none"/><ellipse cx="19.78" cy="39.19" rx="2.39" ry="1.45" stroke="#0767B1" stroke-linecap="round" stroke-linejoin="round" fill="none"/><path d="M27.19 13.31 28.48 14.1 26.67 15.1 25.41 14.28 27.19 13.28M27.19 12.41 24 14.26 26.64 16 30 14.13 27.26 12.44Z" fill="#0767B1"/><path d="M22.43 16.08 23.74 16.92 21.85 18.13 20.55 17.13 22.43 16.05M22.43 15.18 19.17 17.04 21.79 19.04 25.12 16.9 22.43 15.2Z" fill="#0767B1"/><path d="M17.67 19.12 18.81 19.93 17.15 20.93 15.88 20.1 17.67 19.1M17.67 18.21 14.39 20.07 17.09 21.83 20.09 19.95 17.66 18.21Z" fill="#0767B1"/><path d="M35.61 13 37.27 13.92 35.84 14.92 34.06 13.92 35.61 12.92M35.61 12.05 32.6 14 35.9 15.82 38.65 13.82 35.58 12.11Z" fill="#0767B1"/><path d="M17.19 24.58 18.48 25.45 16.48 26.92 15.03 25.92 17.17 24.58M17.17 23.69 13.69 25.9 16.52 27.84 19.78 25.42 17.2 23.69Z" fill="#0767B1"/><path d="M13.19 21.79 14.44 22.68 12.22 24 10.81 23 13.19 21.74M13.25 20.86 9.35 23 12.19 24.95 15.82 22.77 13.25 20.95Z" fill="#0767B1"/><path d="M36.43 25.59C36.43 25.59 40.78 25.59 41.98 26.81 44.51 29.31 43.4 34.5 43.4 35.42" stroke="#0767B1" stroke-width="0.75" stroke-linecap="round" stroke-linejoin="round" fill="none" fill-rule="evenodd"/><path d="M40.56 15.65 42.25 16.65 40.76 17.71 38.96 16.71 40.56 15.71M40.56 14.84 37.5 16.77 40.83 18.6 43.66 16.6 40.56 14.85Z" fill="#0767B1"/><path d="M2.66 15.51C2.66 15.51 3.31 12.57 6.9 13 11.53 13.59 17.12 19.85 17.12 19.85" stroke="#0767B1" stroke-width="0.75" stroke-linecap="round" stroke-linejoin="round" fill="none" fill-rule="evenodd"/><path d="M12.05 10.76C12.05 10.76 12.72 7.49 15.31 8.76 17.9 10.03 22.05 16.76 22.24 16.76" stroke="#0767B1" stroke-width="0.75" stroke-linecap="round" stroke-linejoin="round" fill="none" fill-rule="evenodd"/><path d="M16.58 26.25C16.58 26.25 11.13 22.34 9.58 32.59" stroke="#0767B1" stroke-width="0.75" stroke-linecap="round" stroke-linejoin="round" fill="none" fill-rule="evenodd"/><path d="M11.83 23C11.83 23 3.35 14.38 2.92 27.58" stroke="#0767B1" stroke-width="0.75" stroke-linecap="round" stroke-linejoin="round" fill="none" fill-rule="evenodd"/><path d="M21.26 29.44C21.26 29.44 14.68 26.12 19.78 39.19" stroke="#0767B1" stroke-width="0.75" stroke-linecap="round" stroke-linejoin="round" fill="none" fill-rule="evenodd"/><path d="M31.53 10.69 32.92 11.45 31.31 12.45 29.93 11.68 31.53 10.68M31.53 9.82 28.45 11.66 31.34 13.28 34.45 11.41 31.51 9.83Z" fill="#0767B1"/><path d="M36.78 24.36 38.25 25.21 36.15 26.79 34.62 25.79 36.78 24.36M36.78 23.48 33.28 25.79 36.2 27.7 39.62 25.13 36.78 23.48Z" fill="#0767B1"/><path d="M31.62 27.83 33.26 29 31.06 30.55 29.37 29.33 31.62 27.88M31.62 26.98 28 29.25 31 31.42 34.52 28.93 31.57 26.93Z" fill="#0767B1"/><path d="M35.67 13.77C35.67 13.77 35.11-0.99 45.43 6.77" stroke="#0767B1" stroke-width="0.75" stroke-linecap="round" stroke-linejoin="round" fill="none" fill-rule="evenodd"/><path d="M40.35 16.55C40.35 16.55 42.45 5.71 52.59 13.26" stroke="#0767B1" stroke-width="0.75" stroke-linecap="round" stroke-linejoin="round" fill="none" fill-rule="evenodd"/><path d="M45.07 18.22 46.72 19.14 45.11 20.3 43.63 19.3 45.07 18.19M45 17.33 42.32 19.33 45.12 21.17 48.12 19.01 45 17.33Z" fill="#0767B1"/><path d="M41.39 21.05 42.89 22 41 23.41 39.44 22.41 41.36 21.07M41.36 20.17 38.12 22.43 41.05 24.34 44.21 22 41.37 20.2Z" fill="#0767B1"/><path d="M22 27.78 23.47 28.69 21.26 30.19 19.79 29.19 22 27.78M22 26.9 18.4 29.13 21.22 31.13 24.8 28.69 22 26.9Z" fill="#0767B1"/><path d="M26.68 31.06 28.49 32.33 26.41 33.74 24.61 32.49 26.68 31.06M26.68 30.14 23.3 32.48 26.4 34.65 29.81 32.34 26.68 30.14Z" fill="#0767B1"/></g></g></g></svg>